<svg version="1.2" xmlns="http://www.w3.org/2000/svg" viewBox="0 0 259 426" width="259" height="426">
	<title>bulb-set-svg</title>
	<style>
		.s0 { fill: #e6e6e6 } 
	</style>
	<g id="background">
		<g id="&lt;Group&gt;">
			<g id="&lt;Group&gt;">
				<g id="&lt;Group&gt;">
					<g id="&lt;Group&gt;">
						<path id="&lt;Compound Path&gt;" fill-rule="evenodd" class="s0" d="m-893.3-205.5h-88.9c-0.7 0-1.3-0.3-1.8-0.8-0.5-0.4-0.7-1.1-0.7-1.8 0.1-6.1-0.5-12.1-1.7-18-1.3-5.9-3.4-11.7-6-17-2.6-5.1-5.9-10.1-10.3-15.2-3.7-4.4-7.9-8.5-13-13.4-5.4-5.2-9.6-9.7-13.2-14.3-4.4-5.4-7.8-10.9-10.6-16.6q-4.4-9-7.5-18.6c-2.1-6.4-3.8-12.9-5-19.5-2.5-12.8-3.2-25.5-2.2-37.7 1.1-13 4.2-25.3 9.2-36.7 4.7-10.5 11-20 18.7-28.3 8-8.6 17.2-15.3 27.3-20 6.4-3 13.4-5.4 21.4-7.3 8-1.9 16-3.2 22-4l1.1-0.2c5.7-0.7 11.4-1.1 17.2-1.1 5.7 0 11.5 0.4 17.2 1.3h0.2c6 0.8 14 2.1 22 4 8 1.9 15 4.3 21.4 7.3 10.1 4.7 19.3 11.4 27.3 20 7.7 8.3 14 17.8 18.7 28.3 5 11.3 8.1 23.7 9.2 36.7 1 12.2 0.3 24.9-2.2 37.7-1.2 6.6-2.9 13.1-5 19.5q-3.2 9.6-7.5 18.6c-2.8 5.7-6.2 11.2-10.6 16.6-3.6 4.6-7.8 9.1-13.3 14.3-5 4.9-9.2 9-12.9 13.4-4.4 5.1-7.7 10.1-10.3 15.2-2.6 5.3-4.7 11.1-6 17-1.2 5.9-1.8 11.9-1.7 18 0 0.7-0.3 1.4-0.7 1.8-0.5 0.5-1.1 0.8-1.8 0.8zm-86.4-5h83.9c0-5.6 0.7-11.2 1.9-16.6 1.3-6.4 3.5-12.5 6.3-18.3 2.8-5.4 6.3-10.7 10.9-16.1 4-4.6 8.2-8.8 13.4-13.8 5.2-5 9.3-9.4 12.8-13.8 4.1-5.2 7.4-10.3 10-15.7 2.8-5.7 5.2-11.8 7.2-18 2.1-6.1 3.7-12.5 4.9-18.8 2.4-12.4 3.1-24.6 2.1-36.4-1-12.4-4-24.2-8.8-35-4.5-10.1-10.4-19.1-17.7-26.9-7.7-8.2-16.3-14.6-25.8-19-6.1-2.8-12.8-5.1-20.5-6.9-7.7-1.9-15.6-3.1-21.5-4l0.1-2.5-0.3 2.5q-8.2-1.2-16.5-1.2-8.4 0-16.5 1.1l-1.1 0.1c-5.9 0.9-13.8 2.1-21.5 4-7.7 1.8-14.4 4.1-20.5 6.9-9.5 4.4-18.2 10.8-25.8 19-7.3 7.8-13.2 16.8-17.7 26.9-4.8 10.8-7.8 22.6-8.8 35-1 11.8-0.3 24 2.1 36.4 1.2 6.3 2.8 12.7 4.8 18.8 2.1 6.2 4.5 12.3 7.3 18 2.6 5.4 5.9 10.6 10 15.7 3.5 4.4 7.5 8.8 12.8 13.8 5.2 5 9.4 9.2 13.3 13.8 4.7 5.4 8.2 10.7 10.9 16.1 2.9 5.8 5.1 11.9 6.4 18.3 1.2 5.4 1.9 11 1.9 16.6z"/>
						<path id="&lt;Path&gt;" class="s0" d="m-917.2-353.3q0.4 0.5 0.4 1.2v72 72.1c0 0.5-0.3 1-0.6 1.4-0.4 0.4-0.9 0.6-1.4 0.6-0.6 0-1.1-0.2-1.4-0.6-0.4-0.4-0.6-0.9-0.6-1.4v-69.3-69.2l-4.6 5.6-4.5 5.6q0 0-0.1 0 0 0 0 0.1 0 0-0.1 0 0 0.1 0 0.1-0.1 0-0.1 0.1-0.1 0-0.1 0 0 0.1-0.1 0.1-0.1 0-0.1 0.1-0.1 0-0.1 0-0.1 0-0.1 0.1-0.1 0-0.1 0 0 0-0.1 0 0 0-0.1 0.1 0 0-0.1 0 0 0-0.1 0 0 0-0.1 0 0 0-0.1 0-0.1 0-0.1 0 0 0-0.1 0 0 0-0.1 0 0 0-0.1 0 0 0-0.1 0 0 0-0.1 0 0-0.1-0.1-0.1-0.1 0-0.1 0-0.1-0.1-0.1-0.1-0.1 0-0.1 0-0.1 0-0.1-0.1 0 0-0.1 0 0-0.1-0.1-0.1-0.1 0-0.1-0.1-0.1 0-0.1-0.1 0 0-0.1 0 0-0.1 0-0.1-0.1-0.1-0.1-0.1 0 0 0-0.1-0.1 0-0.1-0.1-0.1-0.1-0.1-0.1 0-0.1 0-0.1 0-0.1-0.1-0.1 0 0 0-0.1 0 0 0-0.1 0 0 0-0.1 0 0 0-0.1-0.1 0-0.1-0.1 0 0 0-0.1 0-0.1 0-0.1v-4.9-5l-4.5 5.6-4.6 5.6q-0.1 0.1-0.1 0.1-0.1 0.1-0.1 0.1-0.1 0.1-0.1 0.1 0 0-0.1 0 0 0.1-0.1 0.1 0 0-0.1 0.1 0 0-0.1 0-0.1 0.1-0.2 0.1 0 0-0.1 0 0 0-0.1 0.1-0.1 0-0.2 0-0.1 0-0.2 0-0.1 0-0.2 0-0.1 0-0.2 0 0 0-0.1 0-0.1-0.1-0.1-0.1-0.1 0-0.2 0 0 0 0-0.1-0.1 0-0.1 0 0 0-0.1 0 0-0.1-0.1-0.1-0.1-0.1-0.1-0.1 0 0-0.1 0 0 0 0-0.1 0 0-0.1 0 0 0 0-0.1-0.1 0-0.1 0 0-0.1-0.1-0.1 0-0.1 0-0.1-0.1 0-0.1-0.1 0 0 0-0.1-0.1 0-0.1 0 0-0.1 0-0.1-0.1-0.1-0.1-0.1 0-0.1 0-0.1 0 0 0-0.1-0.1 0-0.1-0.1 0 0 0-0.1 0 0 0-0.1 0 0 0-0.1 0 0 0-0.1 0-0.1 0-0.1v-4.8-4.8l-4.3 5.5-4.3 5.6v63.5 63.6c0 0.5-0.2 1-0.6 1.4-0.3 0.4-0.8 0.6-1.4 0.6-0.5 0-1-0.2-1.4-0.6-0.4-0.4-0.6-0.9-0.6-1.4v-63.9-63.9q0-0.3 0.1-0.6 0.1-0.3 0.3-0.6l6.3-8.2 6.3-8.2q0.4-0.5 1-0.7 0.6-0.1 1.2 0.1 0.6 0.2 1 0.7 0.4 0.5 0.4 1.2v4.9 5l4.5-5.6 4.6-5.6q0.4-0.5 1-0.7 0.6-0.1 1.2 0.1 0.6 0.2 1 0.7 0.3 0.5 0.3 1.2v4.9 5l4.6-5.6 4.5-5.6q0.4-0.5 1-0.7 0.6-0.1 1.2 0.1 0.6 0.2 1 0.7z"/>
						<g id="&lt;Group&gt;">
							<path id="&lt;Compound Path&gt;" fill-rule="evenodd" class="s0" d="m-893.3-192.1h-88.9c-1.4 0-2.5-1.1-2.5-2.5v-13.4c0-1.4 1.1-2.5 2.5-2.5h88.9c1.4 0 2.5 1.1 2.5 2.5v13.4c0 1.4-1.1 2.5-2.5 2.5zm-86.4-5h83.9v-8.4h-83.9z"/>
							<path id="&lt;Compound Path&gt;" fill-rule="evenodd" class="s0" d="m-893.3-178.6h-88.9c-1.4 0-2.5-1.1-2.5-2.5v-13.5c0-1.3 1.1-2.5 2.5-2.5h88.9c1.4 0 2.5 1.2 2.5 2.5v13.5c0 1.4-1.1 2.5-2.5 2.5zm-86.4-5h83.9v-8.5h-83.9z"/>
							<path id="&lt;Compound Path&gt;" fill-rule="evenodd" class="s0" d="m-893.3-165.2h-88.9c-1.4 0-2.5-1.1-2.5-2.5v-13.4c0-1.4 1.1-2.5 2.5-2.5h88.9c1.4 0 2.5 1.1 2.5 2.5v13.4c0 1.4-1.1 2.5-2.5 2.5zm-86.4-5h83.9v-8.4h-83.9z"/>
							<path id="&lt;Compound Path&gt;" fill-rule="evenodd" class="s0" d="m-893.3-151.7h-88.9c-1.4 0-2.5-1.2-2.5-2.5v-13.5c0-1.4 1.1-2.5 2.5-2.5h88.9c1.4 0 2.5 1.1 2.5 2.5v13.5c0 1.3-1.1 2.5-2.5 2.5zm-86.4-5h83.9v-8.5h-83.9z"/>
							<g id="&lt;Group&gt;">
								<path id="&lt;Path&gt;" class="s0" d="m-937.8-154.2h4.4 20.1 20c0 2.5-0.8 4.9-2.3 7-1.5 2.1-3.7 3.9-6.4 5.1l-7.3 4.2-7.2 4.1q-0.9 0.5-1.9 1-0.9 0.4-1.9 0.7-0.6 0.2-1.2 0.3-0.6 0.1-1.2 0.2-0.8 0.2-1.6 0.2-0.9 0.1-1.7 0.1h-1.9-1.9-7.5-7.5-1.9-1.9q-1.1 0-2.1-0.1-1-0.1-1.9-0.3-0.9-0.2-1.8-0.4-0.9-0.3-1.8-0.6-0.3-0.2-0.7-0.4-0.4-0.2-0.8-0.4l-7.9-4.3-7.9-4.3c-2.7-1.2-4.9-3-6.4-5.1-1.5-2.1-2.3-4.5-2.3-7h20 20z"/>
								<path id="&lt;Compound Path&gt;" fill-rule="evenodd" class="s0" d="m-926-128.8h-22.6q-1.2 0-2.3-0.1-1.1-0.1-2.2-0.3-1-0.2-2-0.5-1-0.3-2-0.7-0.5-0.2-0.9-0.5-0.4-0.2-0.8-0.4l-15.9-8.5c-3-1.4-5.5-3.5-7.2-5.9-1.9-2.6-2.8-5.5-2.8-8.5 0-1.4 1.1-2.5 2.5-2.5h88.9c1.4 0 2.5 1.1 2.5 2.5 0 3-1 5.9-2.8 8.5-1.8 2.4-4.3 4.5-7.2 5.9l-14.5 8.2q-1 0.6-2.1 1.1-1.1 0.5-2.2 0.8-0.7 0.2-1.4 0.3-0.6 0.2-1.2 0.3-1 0.1-1.9 0.2-1 0.1-1.9 0.1zm-53.4-22.9q0.5 1.6 1.5 3c1.3 1.8 3.2 3.3 5.4 4.4q0.1 0 0.1 0l15.9 8.6q0.4 0.2 0.7 0.4 0.3 0.1 0.6 0.2 0.7 0.3 1.5 0.6 0.8 0.2 1.6 0.4 0.8 0.1 1.7 0.2 0.9 0.1 1.8 0.1h22.6q0.7 0 1.5-0.1 0.7 0 1.4-0.1 0.6-0.1 1.1-0.2 0.5-0.2 0.9-0.3 0.9-0.2 1.7-0.6 0.8-0.4 1.6-0.8l14.6-8.3q0.1-0.1 0.2-0.1c2.2-1.1 4.1-2.6 5.3-4.4q1.1-1.4 1.5-3z"/>
							</g>
							<path id="&lt;Compound Path&gt;" fill-rule="evenodd" class="s0" d="m-937.3-114.8c-10.8 0-19.6-8.8-19.6-19.6 0-10.8 8.8-19.6 19.6-19.6 10.8 0 19.6 8.8 19.6 19.6 0 10.8-8.8 19.6-19.6 19.6zm0-34.2c-8.1 0-14.6 6.6-14.6 14.6 0 8.1 6.5 14.6 14.6 14.6 8 0 14.6-6.5 14.6-14.6 0-8-6.6-14.6-14.6-14.6z"/>
						</g>
					</g>
					<g id="&lt;Group&gt;">
						<path id="&lt;Path&gt;" class="s0" d="m-844.1-349.6c0 0 0.1 0.3 0.2 0.9 0.1 0.6 0.3 1.4 0.4 2.3 0.2 1.9 0.1 4.4-0.3 6.9q-0.1 0.9-0.4 1.8-0.2 0.9-0.4 1.8c-0.4 1.1-0.8 2.2-1.3 3.1-0.8 1.7-1.8 2.8-1.8 2.8-0.6 0.7-1.7 0.7-2.3 0.1q-0.4-0.3-0.5-0.7v-0.1c0 0-0.1-0.3-0.2-0.9-0.1-0.6-0.3-1.3-0.3-2.3-0.2-1.9-0.1-4.3 0.3-6.7 0.4-2.4 1-4.8 1.8-6.6 0.3-0.9 0.7-1.6 1-2.1 0.3-0.5 0.5-0.8 0.5-0.8 0.6-0.8 1.8-1 2.6-0.4q0.5 0.4 0.7 0.9z"/>
						<path id="&lt;Path&gt;" class="s0" d="m-911.8-446.8q0-0.1 1.3-0.2 0.7 0 1.6-0.1 1 0 2.3 0c1.8 0 3.8 0.1 6.2 0.4 2.4 0.3 5 0.8 7.8 1.6 2.9 0.9 5.9 1.9 8.9 3.4 3.1 1.5 6.2 3.2 9.2 5.4q4.5 3.2 8.7 7.2c2.7 2.7 5.3 5.7 7.6 8.8 2.3 3.2 4.4 6.5 6.2 9.8 1.9 3.4 3.4 6.9 4.6 10.3q0.9 2.6 1.7 5.1c0.4 1.7 0.8 3.4 1.2 5 0.3 1.6 0.6 3.2 0.9 4.7q0.3 2.3 0.5 4.5c0.3 2.8 0.4 5.4 0.5 7.8 0 2.3-0.1 4.3-0.1 5.9-0.1 1.7-0.3 3-0.3 3.9q-0.2 1.3-0.2 1.3c-0.1 1-1 1.8-2.1 1.7-0.8-0.1-1.5-0.8-1.6-1.7 0 0-0.2-1.8-0.6-5-0.2-1.6-0.5-3.5-0.9-5.6-0.3-2.2-0.8-4.6-1.3-7.3q-0.5-1.9-1-4c-0.4-1.4-0.8-2.9-1.2-4.3-0.9-3-2-5.9-3.3-8.9-1.3-3.1-2.8-6.1-4.5-9.1q-2.6-4.5-5.7-8.7c-2.1-2.8-4.3-5.4-6.7-7.9-2.4-2.5-4.9-4.7-7.5-6.7-2.5-2-5.1-3.8-7.7-5.3-2.6-1.4-5.1-2.7-7.5-3.6-2.4-1-4.7-1.7-6.8-2.3-2-0.5-3.9-0.9-5.4-1.2q-1.1-0.2-1.9-0.3-1-0.1-1.6-0.2-1.3-0.2-1.4-0.2c-1.1-0.1-2-1.2-1.9-2.4 0.2-1 1-1.8 2-1.8z"/>
					</g>
				</g>
				<g id="&lt;Group&gt;">
					<path id="&lt;Compound Path&gt;" fill-rule="evenodd" class="s0" d="m-358.3-205.5h-88.8q-0.8 0-1.4-0.4c-0.4-0.3-10.8-6.8-21.6-17.5-14.5-14.3-22.6-29.3-23.4-43.2-1-15.6 5.3-63.8 19.2-110.4 12.1-40.5 33-90.2 64.3-97q1.8-0.4 3.6-0.6 1.8-0.2 3.7-0.2c33.9 0 56.7 50.2 69.9 92.4 14.5 46.4 21.9 98.7 20.9 115.8-0.9 13.9-9 28.9-23.4 43.2-10.8 10.7-21.2 17.2-21.6 17.5q-0.6 0.4-1.4 0.4zm-88.1-5h87.4c2.3-1.5 11.2-7.6 20.2-16.4 9.4-9.4 20.9-24 21.9-40 1-16.7-6.3-68.1-20.7-114-17.9-57.3-41-88.9-65.1-88.9q-1.6 0-3.1 0.2-1.6 0.1-3.1 0.5c-22.6 4.9-44.1 38.1-60.6 93.6-13.7 46-20 93.4-19 108.6 1 16 12.5 30.6 21.9 40 9 8.8 17.9 14.9 20.2 16.4z"/>
					<path id="&lt;Path&gt;" class="s0" d="m-382.2-353.3q0.4 0.5 0.4 1.2v72 72.1c0 0.5-0.2 1-0.6 1.4-0.3 0.4-0.8 0.6-1.4 0.6-0.5 0-1-0.2-1.4-0.6-0.4-0.4-0.6-0.9-0.6-1.4v-69.3-69.2l-4.5 5.6-4.6 5.6q0 0-0.1 0.1-0.1 0.1-0.1 0.1 0 0-0.1 0.1 0 0-0.1 0 0 0.1 0 0.1-0.1 0-0.1 0 0 0-0.1 0.1 0 0-0.1 0 0 0-0.1 0.1-0.1 0-0.2 0 0 0-0.1 0.1-0.1 0-0.1 0-0.1 0-0.1 0-0.1 0-0.1 0-0.1 0-0.1 0-0.1 0-0.1 0-0.1 0-0.1 0-0.1 0-0.1 0-0.1 0-0.1 0-0.1 0-0.1 0-0.1-0.1-0.1-0.1-0.1 0-0.1 0-0.1 0-0.1 0 0-0.1-0.1-0.1 0 0-0.1 0 0 0-0.1-0.1-0.1-0.1-0.1-0.1 0 0-0.1 0 0 0 0-0.1-0.1 0-0.1 0 0 0 0-0.1-0.1 0-0.1 0 0-0.1-0.1-0.1 0-0.1 0-0.1-0.1 0-0.1-0.1 0 0 0-0.1-0.1 0-0.1 0 0-0.1 0-0.1-0.1-0.1-0.1-0.1 0-0.1 0-0.1 0 0 0-0.1-0.1 0-0.1-0.1 0 0 0-0.1 0 0 0-0.1 0 0 0-0.1 0 0 0-0.1 0-0.1 0-0.1v-4.9-5l-4.6 5.6-4.5 5.6q-0.1 0-0.1 0 0 0.1-0.1 0.1 0 0.1-0.1 0.1 0 0.1-0.1 0.1-0.1 0.1-0.1 0.1-0.1 0-0.1 0.1-0.1 0-0.1 0 0 0-0.1 0 0 0.1-0.1 0.1-0.1 0-0.2 0 0 0 0 0.1 0 0-0.1 0-0.1 0-0.2 0-0.1 0-0.2 0-0.1 0-0.2 0-0.1 0-0.2 0-0.1 0-0.1 0 0-0.1-0.1-0.1-0.1 0-0.1 0 0 0-0.1-0.1-0.1 0-0.1 0-0.1-0.1-0.1-0.1-0.1 0-0.1 0 0-0.1-0.1-0.1-0.1 0-0.1-0.1-0.1 0-0.1-0.1 0 0-0.1 0 0-0.1 0-0.1-0.1-0.1-0.1-0.1 0 0 0-0.1-0.1 0-0.1-0.1-0.1-0.1-0.1-0.1 0-0.1 0-0.1 0-0.1-0.1-0.1 0 0 0-0.1 0 0 0-0.1 0 0 0-0.1 0 0-0.1-0.1 0 0 0-0.1 0 0 0-0.1 0-0.1 0-0.1v-4.8-4.8l-4.3 5.5-4.2 5.6v63.5 63.6c0 0.5-0.3 1-0.6 1.4-0.4 0.4-0.9 0.6-1.4 0.6-0.6 0-1.1-0.2-1.4-0.6-0.4-0.4-0.6-0.9-0.6-1.4v-63.9-63.9q0-0.3 0.1-0.6 0.1-0.3 0.3-0.6l6.3-8.2 6.2-8.2q0.4-0.5 1-0.7 0.6-0.1 1.3 0.1 0.6 0.2 0.9 0.7 0.4 0.5 0.4 1.2v4.9 5l4.6-5.6 4.5-5.6q0.4-0.5 1-0.7 0.6-0.1 1.2 0.1 0.6 0.2 1 0.7 0.4 0.5 0.4 1.2v4.9 5l4.5-5.6 4.6-5.6q0.4-0.5 1-0.7 0.6-0.1 1.2 0.1 0.6 0.2 0.9 0.7z"/>
					<g id="&lt;Group&gt;">
						<path id="&lt;Path&gt;" class="s0" d="m-340.3-335c0 0 0.2 0.4 0.5 1.2 0.3 0.7 0.8 1.8 1.2 3.1 0.9 2.7 1.8 6.3 2.3 9.9q0.2 1.3 0.3 2.7 0.1 1.4 0.2 2.7c0.1 1.7 0.1 3.3 0 4.7-0.1 1.4-0.2 2.6-0.4 3.4-0.1 0.8-0.2 1.3-0.2 1.3-0.3 0.9-1.1 1.3-1.9 1.1-0.5-0.1-0.8-0.4-1-0.8q0 0-0.6-1.2c-0.3-0.7-0.7-1.8-1.1-3.1-0.9-2.7-1.7-6.2-2.3-9.8-0.5-3.6-0.7-7.2-0.7-10 0-1.4 0.1-2.6 0.2-3.4 0.1-0.8 0.2-1.3 0.2-1.3 0.1-1 1.1-1.6 2-1.4 0.6 0.1 1 0.4 1.3 0.9z"/>
						<path id="&lt;Path&gt;" class="s0" d="m-395.3-458.1q0 0 1.1 0.7c0.7 0.5 1.8 1.1 3.1 2.2 0.7 0.6 1.5 1.2 2.2 1.8q1.2 1 2.5 2.2c1.6 1.6 3.5 3.5 5.4 5.6 1.9 2.2 3.8 4.5 5.7 7.2 2 2.6 3.9 5.4 5.8 8.4 0.9 1.5 1.8 3.1 2.8 4.6q1.3 2.4 2.6 4.9 1.3 2.5 2.6 5c0.7 1.7 1.6 3.4 2.3 5.1 1.5 3.4 3 6.9 4.3 10.4 1.3 3.4 2.4 6.8 3.5 10.2 1 3.3 1.9 6.6 2.7 9.7q0.6 2.3 1.1 4.5 0.5 2.2 1 4.3c0.6 2.7 1 5.2 1.4 7.5 0.4 2.2 0.7 4.2 0.9 5.8 0.5 3.2 0.7 5 0.7 5v0.1c0.1 1-0.7 1.9-1.7 2-0.9 0.1-1.7-0.5-2-1.2 0 0-0.6-1.8-1.6-4.8-1-3.1-2.5-7.4-4.2-12.6q-1.4-3.9-2.9-8.4-1.6-4.4-3.4-9.2c-1.2-3.2-2.5-6.5-3.8-9.8-0.6-1.6-1.4-3.2-2-4.9-0.7-1.7-1.5-3.3-2.2-5-1.5-3.2-3-6.5-4.6-9.7q-1.2-2.3-2.4-4.7-1.2-2.2-2.4-4.5c-1.7-2.9-3.3-5.7-4.9-8.3q-2.5-3.9-4.8-7.2-2.4-3.3-4.4-5.8-1-1.3-2-2.3c-0.5-0.8-1.1-1.3-1.6-1.9-1-1.1-2-2.1-2.6-2.7q-0.9-0.9-0.9-0.9c-0.9-0.8-0.9-2.2 0-3.1 0.7-0.7 1.9-0.8 2.7-0.2z"/>
					</g>
					<g id="&lt;Group&gt;">
						<path id="&lt;Compound Path&gt;" fill-rule="evenodd" class="s0" d="m-358.3-192.1h-88.9c-1.3 0-2.5-1.1-2.5-2.5v-13.4c0-1.4 1.2-2.5 2.5-2.5h88.9c1.4 0 2.5 1.1 2.5 2.5v13.4c0 1.4-1.1 2.5-2.5 2.5zm-86.4-5h83.9v-8.4h-83.9z"/>
						<path id="&lt;Compound Path&gt;" fill-rule="evenodd" class="s0" d="m-358.3-178.6h-88.9c-1.3 0-2.5-1.1-2.5-2.5v-13.5c0-1.3 1.2-2.5 2.5-2.5h88.9c1.4 0 2.5 1.2 2.5 2.5v13.5c0 1.4-1.1 2.5-2.5 2.5zm-86.4-5h83.9v-8.5h-83.9z"/>
						<path id="&lt;Compound Path&gt;" fill-rule="evenodd" class="s0" d="m-358.3-165.2h-88.9c-1.3 0-2.5-1.1-2.5-2.5v-13.4c0-1.4 1.2-2.5 2.5-2.5h88.9c1.4 0 2.5 1.1 2.5 2.5v13.4c0 1.4-1.1 2.5-2.5 2.5zm-86.4-5h83.9v-8.4h-83.9z"/>
						<path id="&lt;Compound Path&gt;" fill-rule="evenodd" class="s0" d="m-358.3-151.7h-88.9c-1.3 0-2.5-1.2-2.5-2.5v-13.5c0-1.4 1.2-2.5 2.5-2.5h88.9c1.4 0 2.5 1.1 2.5 2.5v13.5c0 1.3-1.1 2.5-2.5 2.5zm-86.4-5h83.9v-8.5h-83.9z"/>
						<g id="&lt;Group&gt;">
							<path id="&lt;Path&gt;" class="s0" d="m-402.7-154.2h4.4 20 20c0 2.5-0.8 4.9-2.3 7-1.5 2.1-3.6 3.9-6.3 5.1l-7.3 4.2-7.3 4.1q-0.9 0.5-1.8 1-1 0.4-2 0.7-0.6 0.2-1.1 0.3-0.6 0.1-1.2 0.2-0.8 0.2-1.7 0.2-0.8 0.1-1.7 0.1h-1.9-1.9-7.5-7.5-1.9-1.9q-1 0-2-0.1-1-0.1-2-0.3-0.9-0.2-1.8-0.4-0.9-0.3-1.7-0.6-0.4-0.2-0.8-0.4-0.3-0.2-0.7-0.4l-7.9-4.3-8-4.3c-2.7-1.2-4.8-3-6.3-5.1-1.5-2.1-2.4-4.5-2.4-7h20.1 20z"/>
							<path id="&lt;Compound Path&gt;" fill-rule="evenodd" class="s0" d="m-391-128.8h-22.6q-1.1 0-2.2-0.1-1.2-0.1-2.3-0.3-1-0.2-2-0.5-1-0.3-1.9-0.7-0.5-0.2-1-0.5-0.4-0.2-0.8-0.4l-15.8-8.5c-3-1.4-5.5-3.5-7.3-5.9-1.8-2.6-2.8-5.5-2.8-8.5 0-1.4 1.2-2.5 2.5-2.5h88.9c1.4 0 2.5 1.1 2.5 2.5 0 3-0.9 5.9-2.7 8.5-1.8 2.4-4.3 4.5-7.3 5.9l-14.4 8.2q-1.1 0.6-2.1 1.1-1.2 0.5-2.3 0.8-0.6 0.2-1.3 0.3-0.6 0.2-1.3 0.3-0.9 0.1-1.8 0.2-1 0.1-2 0.1zm-53.3-22.9q0.5 1.6 1.5 3c1.3 1.8 3.1 3.3 5.4 4.4q0 0 0.1 0l15.9 8.6q0.3 0.2 0.6 0.4 0.3 0.1 0.7 0.2 0.7 0.3 1.4 0.6 0.8 0.2 1.6 0.4 0.9 0.1 1.8 0.2 0.8 0.1 1.7 0.1h22.6q0.8 0 1.5-0.1 0.8 0 1.5-0.1 0.5-0.1 1-0.2 0.5-0.2 1-0.3 0.8-0.2 1.7-0.6 0.8-0.4 1.6-0.8l14.5-8.3q0.1-0.1 0.2-0.1c2.3-1.1 4.1-2.6 5.4-4.4q1-1.4 1.5-3z"/>
						</g>
						<path id="&lt;Compound Path&gt;" fill-rule="evenodd" class="s0" d="m-402.3-114.8c-10.8 0-19.5-8.8-19.5-19.6 0-10.8 8.7-19.6 19.5-19.6 10.8 0 19.6 8.8 19.6 19.6 0 10.8-8.8 19.6-19.6 19.6zm0-34.2c-8 0-14.5 6.6-14.5 14.6 0 8.1 6.5 14.6 14.5 14.6 8.1 0 14.6-6.5 14.6-14.6 0-8-6.5-14.6-14.6-14.6z"/>
					</g>
				</g>
				<g id="&lt;Group&gt;">
					<g id="&lt;Group&gt;">
						<path id="&lt;Path&gt;" class="s0" d="m-101.8-255h28.8v8.3 8.4c0 2.3-0.4 4.5-1.2 6.5-0.8 2.1-2 4-3.5 5.7-4.7 5-8.4 10.5-11 14.6-2.5 4.1-3.9 7-3.9 7h-21.3-21.3-21.3-21.3c0 0-1.4-2.9-3.9-7-2.6-4.1-6.3-9.6-10.9-14.6q-2.4-2.6-3.6-5.7c-0.8-2-1.2-4.2-1.2-6.5v-8.4-8.3h31.2 31.1 2.3 2.2z"/>
						<path id="&lt;Compound Path&gt;" fill-rule="evenodd" class="s0" d="m-92.6-202h-85.2c-0.9 0-1.8-0.6-2.2-1.4 0 0-1.4-2.8-3.8-6.8-2.3-3.7-6-9.1-10.7-14.2-1.7-1.9-3.1-4.1-4-6.5-0.9-2.3-1.4-4.8-1.4-7.4v-16.7c0-1.4 1.2-2.5 2.5-2.5h124.4c1.4 0 2.5 1.1 2.5 2.5v16.7c0 2.6-0.5 5.1-1.4 7.4-0.9 2.4-2.3 4.6-4 6.5-4.7 5.1-8.4 10.5-10.6 14.2-2.5 4-3.8 6.8-3.9 6.8-0.4 0.8-1.2 1.4-2.2 1.4zm-83.6-5h82.1c0.6-1.3 1.8-3.3 3.3-5.8 2.4-3.9 6.3-9.6 11.2-15q2-2.1 3.1-4.9 1-2.7 1-5.6v-14.2h-119.4v14.2q0 2.9 1.1 5.6 1 2.8 3 4.9c4.9 5.4 8.8 11.1 11.2 15 1.6 2.5 2.7 4.5 3.4 5.8z"/>
					</g>
					<path id="&lt;Compound Path&gt;" fill-rule="evenodd" class="s0" d="m-73-252.5h-23.6c-1.4 0-2.5-1.2-2.5-2.5v-203c0-1.3-0.5-2.6-1.4-3.5-1-1-2.3-1.5-3.6-1.5-1.3 0-2.6 0.5-3.5 1.5-1 0.9-1.5 2.2-1.5 3.5v203c0 1.3-1.1 2.5-2.5 2.5h-23.6c-1.4 0-2.5-1.2-2.5-2.5v-203c0-9 3.5-17.4 9.9-23.8 6.3-6.3 14.7-9.8 23.7-9.8 9 0 17.4 3.5 23.8 9.8 6.3 6.4 9.8 14.8 9.8 23.8v203c0 1.3-1.1 2.5-2.5 2.5zm-21.1-5h18.6v-200.5c0-7.6-3-14.8-8.4-20.2-5.4-5.4-12.6-8.4-20.2-8.4-7.6 0-14.8 3-20.2 8.4-5.4 5.4-8.4 12.6-8.4 20.2v200.5h18.6v-200.5c0-2.7 1-5.2 2.9-7.1 1.9-1.9 4.4-2.9 7.1-2.9 2.7 0 5.2 1 7.1 2.9 1.9 1.9 2.9 4.4 2.9 7.1z"/>
					<path id="&lt;Compound Path&gt;" fill-rule="evenodd" class="s0" d="m-135.2-252.5h-23.6c-1.3 0-2.5-1.2-2.5-2.5v-203c0-1.3-0.5-2.6-1.4-3.5q-1.5-1.5-3.6-1.5c-1.3 0-2.6 0.5-3.5 1.5-1 0.9-1.5 2.2-1.5 3.5v203c0 1.3-1.1 2.5-2.5 2.5h-23.6c-1.3 0-2.5-1.2-2.5-2.5v-203c0-9 3.5-17.4 9.9-23.8 6.3-6.3 14.8-9.8 23.7-9.8 9 0 17.4 3.5 23.8 9.8 6.3 6.4 9.8 14.8 9.8 23.8v203c0 1.3-1.1 2.5-2.5 2.5zm-21.1-5h18.6v-200.5c0-7.6-3-14.8-8.4-20.2-5.4-5.4-12.5-8.4-20.2-8.4-7.6 0-14.8 3-20.2 8.4-5.4 5.4-8.4 12.6-8.4 20.2v200.5h18.6v-200.5c0-2.7 1-5.2 2.9-7.1 1.9-1.9 4.5-2.9 7.1-2.9 2.7 0 5.2 1 7.1 2.9 1.9 1.9 2.9 4.4 2.9 7.1z"/>
					<g id="&lt;Group&gt;">
						<path id="&lt;Compound Path&gt;" fill-rule="evenodd" class="s0" d="m-92.4-189.1h-85.5c-1.4 0-2.5-1.1-2.5-2.5v-12.9c0-1.4 1.1-2.5 2.5-2.5h85.5c1.3 0 2.5 1.1 2.5 2.5v12.9c0 1.4-1.2 2.5-2.5 2.5zm-83-5h80.5v-7.9h-80.5z"/>
						<path id="&lt;Compound Path&gt;" fill-rule="evenodd" class="s0" d="m-92.4-176.2h-85.5c-1.4 0-2.5-1.1-2.5-2.5v-12.9c0-1.4 1.1-2.5 2.5-2.5h85.5c1.3 0 2.5 1.1 2.5 2.5v12.9c0 1.4-1.2 2.5-2.5 2.5zm-83-5h80.5v-7.9h-80.5z"/>
						<path id="&lt;Compound Path&gt;" fill-rule="evenodd" class="s0" d="m-92.4-163.2h-85.5c-1.4 0-2.5-1.2-2.5-2.5v-13c0-1.3 1.1-2.5 2.5-2.5h85.5c1.3 0 2.5 1.2 2.5 2.5v13c0 1.3-1.2 2.5-2.5 2.5zm-83-5h80.5v-8h-80.5z"/>
						<path id="&lt;Compound Path&gt;" fill-rule="evenodd" class="s0" d="m-92.4-150.3h-85.5c-1.4 0-2.5-1.1-2.5-2.5v-12.9c0-1.4 1.1-2.5 2.5-2.5h85.5c1.3 0 2.5 1.1 2.5 2.5v12.9c0 1.4-1.2 2.5-2.5 2.5zm-83-5h80.5v-7.9h-80.5z"/>
						<g id="&lt;Group&gt;">
							<path id="&lt;Path&gt;" class="s0" d="m-135.2-152.8h4.3 19.2 19.3c0 2.4-0.8 4.7-2.3 6.8-1.4 2-3.5 3.7-6.1 4.9l-7 4-7 4q-0.8 0.5-1.7 0.9-1 0.4-1.9 0.7-0.6 0.1-1.1 0.3-0.6 0.1-1.2 0.2-0.8 0.1-1.6 0.2-0.8 0.1-1.6 0.1h-1.8-1.8-7.3-7.2-1.8-1.8q-1 0-2-0.1-0.9-0.1-1.9-0.3-0.9-0.2-1.7-0.5-0.8-0.2-1.7-0.5-0.3-0.2-0.7-0.4-0.4-0.2-0.7-0.4l-7.6-4.1-7.7-4.1c-2.6-1.2-4.6-2.9-6.1-4.9-1.4-2.1-2.2-4.4-2.2-6.8h19.2 19.3z"/>
							<path id="&lt;Compound Path&gt;" fill-rule="evenodd" class="s0" d="m-123.9-128.2h-21.7q-1.1 0-2.2-0.2-1.1-0.1-2.2-0.3-1-0.2-1.9-0.5-1-0.3-1.9-0.6-0.5-0.2-0.9-0.4-0.4-0.2-0.8-0.5l-15.2-8.2c-2.9-1.3-5.3-3.3-7-5.7-1.8-2.5-2.7-5.3-2.7-8.2 0-1.4 1.1-2.5 2.5-2.5h85.5c1.3 0 2.5 1.1 2.5 2.5 0 2.9-1 5.7-2.7 8.2-1.7 2.4-4.2 4.4-7 5.7l-13.9 7.9q-1 0.6-2 1.1-1.1 0.5-2.2 0.8-0.7 0.2-1.3 0.3-0.6 0.1-1.2 0.2-1 0.2-1.8 0.3-1 0.1-1.9 0.1zm-51.1-22.1q0.4 1.5 1.3 2.8c1.3 1.7 3 3.1 5.2 4.1q0 0.1 0.1 0.1l15.3 8.3q0.3 0.1 0.6 0.3 0.3 0.1 0.6 0.2 0.7 0.3 1.4 0.5 0.7 0.3 1.5 0.4 0.8 0.2 1.7 0.3 0.8 0.1 1.7 0.1h21.7q0.7 0 1.4-0.1 0.7-0.1 1.4-0.2 0.5-0.1 1-0.2 0.5-0.1 1-0.2 0.7-0.3 1.5-0.6 0.8-0.3 1.6-0.8l14-8q0.1 0 0.2-0.1c2.1-1 3.9-2.4 5.1-4.1q0.9-1.3 1.4-2.8z"/>
						</g>
						<path id="&lt;Compound Path&gt;" fill-rule="evenodd" class="s0" d="m-134.8-114.8c-10.4 0-18.9-8.5-18.9-18.9 0-10.5 8.5-18.9 18.9-18.9 10.5 0 19 8.4 19 18.9 0 10.4-8.5 18.9-19 18.9zm0-32.8c-7.6 0-13.9 6.2-13.9 13.9 0 7.6 6.3 13.9 13.9 13.9 7.7 0 14-6.3 14-13.9 0-7.7-6.3-13.9-14-13.9z"/>
					</g>
				</g>
				<g id="&lt;Group&gt;">
					<path id="&lt;Compound Path&gt;" fill-rule="evenodd" class="s0" d="m-625.8-205.5h-88.9c-0.9 0-1.8-0.6-2.2-1.5-0.1-0.1-6.8-14.9-14.7-35.2-7.3-18.8-17-46.2-22.3-70.4-11.9-55 7.9-96.4 26.6-121.5 17.7-23.8 37.4-37.4 42.5-40.7 0-1.7 0.2-4.5 1.1-7.3 2.1-6.1 6.8-9.5 13.5-9.5 6.6 0 11.3 3.4 13.4 9.5 0.9 2.8 1.1 5.6 1.1 7.3 5.1 3.3 24.8 16.9 42.5 40.7 18.7 25.1 38.5 66.5 26.6 121.5-5.3 24.2-15 51.6-22.3 70.4-7.8 20.3-14.5 35.1-14.6 35.2-0.4 0.9-1.3 1.5-2.3 1.5zm-87.2-5h85.6c1.9-4.2 7.5-17 13.9-33.5 7.2-18.6 16.8-45.8 22-69.7 11.5-53.1-7.6-93.1-25.7-117.4-19.6-26.2-42.1-40.1-42.4-40.3-0.8-0.5-1.3-1.4-1.2-2.3 0-0.1 0.4-3.5-0.8-6.8-1.3-4.1-4.2-6.1-8.6-6.1-4.5 0-7.4 2-8.7 6.1-1.1 3.3-0.8 6.7-0.8 6.7 0.1 1-0.4 1.9-1.2 2.4-0.2 0.2-22.8 14.1-42.4 40.3-18.1 24.3-37.2 64.3-25.7 117.4 5.2 23.9 14.9 51.1 22.1 69.7 6.4 16.5 12 29.3 13.9 33.5z"/>
					<path id="&lt;Path&gt;" class="s0" d="m-649.7-353.3q0.4 0.5 0.4 1.2v72 72.1c0 0.5-0.2 1-0.6 1.4-0.4 0.4-0.9 0.6-1.4 0.6-0.6 0-1.1-0.2-1.4-0.6-0.4-0.4-0.6-0.9-0.6-1.4v-69.3-69.2l-4.6 5.6-4.5 5.6q-0.1 0-0.1 0.1 0 0-0.1 0 0 0.1 0 0.1-0.1 0-0.1 0.1 0 0-0.1 0 0 0.1-0.1 0.1-0.1 0-0.1 0.1-0.1 0-0.1 0-0.1 0-0.1 0.1 0 0-0.1 0 0 0-0.1 0 0 0-0.1 0.1 0 0-0.1 0-0.1 0-0.2 0 0 0-0.1 0 0 0-0.1 0-0.1 0-0.2 0 0 0-0.1 0 0 0-0.1 0-0.1-0.1-0.1-0.1-0.1 0-0.1 0-0.1 0-0.1 0-0.1-0.1-0.1-0.1-0.1 0-0.1 0 0 0-0.1-0.1 0 0-0.1 0 0-0.1-0.1-0.1 0 0-0.1-0.1 0 0-0.1-0.1-0.1-0.1-0.1-0.1 0-0.1-0.1-0.1 0 0 0-0.1 0 0-0.1-0.1 0-0.1-0.1-0.1 0-0.1 0-0.1 0-0.1 0-0.1-0.1 0-0.1-0.1 0 0 0-0.1 0 0 0-0.1 0 0 0-0.1 0 0 0-0.1 0 0-0.1-0.1 0-0.1 0-0.1v-4.9-5l-4.5 5.6-4.6 5.6q-0.1 0.1-0.1 0.1-0.1 0.1-0.1 0.1 0 0.1-0.1 0.1-0.1 0.1-0.2 0.1 0 0-0.1 0.1-0.1 0-0.1 0-0.1 0.1-0.1 0.1-0.1 0-0.2 0 0 0 0 0.1-0.1 0-0.1 0-0.1 0-0.2 0-0.1 0-0.2 0-0.1 0-0.2 0-0.1 0-0.2 0-0.1 0-0.1 0-0.1-0.1-0.1-0.1-0.1 0-0.1 0-0.1 0-0.1-0.1 0 0-0.1 0 0 0-0.1 0 0-0.1-0.1-0.1-0.1-0.1-0.1-0.1-0.1 0-0.1 0 0 0 0-0.1-0.1 0-0.1-0.1-0.1 0-0.1 0 0-0.1-0.1-0.1 0-0.1 0-0.1 0 0-0.1-0.1 0 0 0-0.1 0 0-0.1 0 0-0.1 0-0.1 0-0.1-0.1-0.1 0-0.1 0-0.1 0 0 0-0.1 0 0 0-0.1-0.1 0-0.1-0.1 0 0 0-0.1 0 0 0-0.1 0 0 0-0.1 0-0.1 0-0.1v-4.8-4.8l-4.3 5.5-4.3 5.6v63.5 63.6c0 0.5-0.2 1-0.5 1.4q-0.6 0.6-1.5 0.6c-0.5 0-1-0.2-1.4-0.6-0.3-0.4-0.6-0.9-0.6-1.4v-63.9-63.9q0-0.3 0.1-0.6 0.2-0.3 0.4-0.6l6.2-8.2 6.3-8.2q0.4-0.5 1-0.7 0.6-0.1 1.2 0.1 0.6 0.2 1 0.7 0.4 0.5 0.4 1.2v4.9 5l4.5-5.6 4.6-5.6q0.4-0.5 1-0.7 0.6-0.1 1.2 0.1 0.6 0.2 1 0.7 0.3 0.5 0.3 1.2v4.9 5l4.6-5.6 4.5-5.6q0.5-0.5 1-0.7 0.6-0.1 1.3 0.1 0.6 0.2 0.9 0.7z"/>
					<g id="&lt;Group&gt;">
						<path id="&lt;Path&gt;" class="s0" d="m-603.5-319.5c0 0 0.1 0.5 0.2 1.2 0.1 0.7 0.3 1.8 0.4 3 0.2 2.5 0.1 5.7-0.3 9q-0.1 1.2-0.3 2.4-0.3 1.2-0.5 2.3c-0.4 1.5-0.8 2.9-1.3 4.1-0.4 1.2-0.8 2.1-1.2 2.8-0.4 0.7-0.6 1.1-0.6 1.1-0.5 0.7-1.5 0.9-2.2 0.4-0.3-0.2-0.6-0.6-0.7-0.9v-0.1c0 0-0.1-0.4-0.2-1.1q-0.2-1.2-0.3-3c-0.1-2.5 0-5.7 0.4-8.9 0.3-3.2 1-6.4 1.7-8.7 0.4-1.2 0.8-2.2 1.1-2.9 0.3-0.7 0.5-1 0.5-1 0.4-0.9 1.5-1.2 2.4-0.8 0.4 0.3 0.8 0.7 0.9 1.1z"/>
						<path id="&lt;Path&gt;" class="s0" d="m-642.1-436.9q0 0 1 0.7 0.5 0.3 1.3 0.8c0.5 0.3 1.1 0.7 1.7 1.2 1.3 0.9 2.9 2.1 4.5 3.6 1.7 1.4 3.5 3.1 5.3 5.1 0.9 1 1.9 2.1 2.8 3.2q1.4 1.7 2.8 3.5 1.4 1.9 2.7 3.9c0.9 1.4 1.8 2.7 2.7 4.2 1.7 2.9 3.3 6 4.8 9.2 0.8 1.6 1.5 3.2 2.1 4.9l1 2.5 0.9 2.5c0.7 1.7 1.2 3.4 1.7 5.1 0.6 1.7 1 3.4 1.4 5.1 0.9 3.4 1.6 6.8 2.1 10.1 0.5 3.3 0.8 6.5 1.1 9.5q0.2 2.3 0.3 4.5 0.1 2.1 0.1 4.1 0.2 3.9 0 7.2c-0.1 2.1-0.2 4-0.3 5.5-0.2 3.1-0.5 4.8-0.5 4.8v0.1c-0.1 1-1.1 1.7-2.1 1.6-0.9-0.1-1.5-0.8-1.6-1.7 0 0-0.2-1.7-0.6-4.7q-0.3-2.2-0.6-5.3-0.5-3.1-1-7-0.3-1.9-0.6-3.9-0.3-2-0.7-4.2c-0.5-2.8-1.1-5.9-1.8-8.9q-1-4.7-2.3-9.4c-0.9-3.2-1.9-6.4-3-9.5l-0.9-2.4-0.9-2.3c-0.6-1.6-1.2-3.1-1.9-4.6-1.3-3-2.7-5.9-4.1-8.6-0.7-1.4-1.5-2.7-2.2-4.1-0.8-1.3-1.5-2.5-2.3-3.8q-1.1-1.7-2.2-3.4c-0.8-1.1-1.6-2.2-2.3-3.2-0.7-1-1.5-1.9-2.2-2.8-0.6-0.9-1.4-1.7-2-2.5-1.3-1.6-2.5-2.8-3.5-3.9-1-1-1.9-1.8-2.5-2.4q-0.9-0.9-0.9-0.9c-0.8-0.8-0.9-2.2 0-3 0.7-0.8 1.8-0.9 2.7-0.4z"/>
					</g>
					<g id="&lt;Group&gt;">
						<path id="&lt;Compound Path&gt;" fill-rule="evenodd" class="s0" d="m-625.8-192.1h-88.9c-1.4 0-2.5-1.1-2.5-2.5v-13.4c0-1.4 1.1-2.5 2.5-2.5h88.9c1.4 0 2.5 1.1 2.5 2.5v13.4c0 1.4-1.1 2.5-2.5 2.5zm-86.4-5h83.9v-8.4h-83.9z"/>
						<path id="&lt;Compound Path&gt;" fill-rule="evenodd" class="s0" d="m-625.8-178.6h-88.9c-1.4 0-2.5-1.1-2.5-2.5v-13.5c0-1.3 1.1-2.5 2.5-2.5h88.9c1.4 0 2.5 1.2 2.5 2.5v13.5c0 1.4-1.1 2.5-2.5 2.5zm-86.4-5h83.9v-8.5h-83.9z"/>
						<path id="&lt;Compound Path&gt;" fill-rule="evenodd" class="s0" d="m-625.8-165.2h-88.9c-1.4 0-2.5-1.1-2.5-2.5v-13.4c0-1.4 1.1-2.5 2.5-2.5h88.9c1.4 0 2.5 1.1 2.5 2.5v13.4c0 1.4-1.1 2.5-2.5 2.5zm-86.4-5h83.9v-8.4h-83.9z"/>
						<path id="&lt;Compound Path&gt;" fill-rule="evenodd" class="s0" d="m-625.8-151.7h-88.9c-1.4 0-2.5-1.2-2.5-2.5v-13.5c0-1.4 1.1-2.5 2.5-2.5h88.9c1.4 0 2.5 1.1 2.5 2.5v13.5c0 1.3-1.1 2.5-2.5 2.5zm-86.4-5h83.9v-8.5h-83.9z"/>
						<g id="&lt;Group&gt;">
							<path id="&lt;Path&gt;" class="s0" d="m-670.2-154.2h4.4 20 20c0 2.5-0.8 4.9-2.3 7-1.5 2.1-3.7 3.9-6.4 5.1l-7.2 4.2-7.3 4.1q-0.9 0.5-1.8 1-1 0.4-2 0.7-0.6 0.2-1.2 0.3-0.5 0.1-1.1 0.2-0.9 0.2-1.7 0.2-0.8 0.1-1.7 0.1h-1.9-1.9-7.5-7.5-1.9-1.9q-1 0-2-0.1-1-0.1-2-0.3-0.9-0.2-1.8-0.4-0.9-0.3-1.7-0.6-0.4-0.2-0.8-0.4-0.4-0.2-0.7-0.4l-8-4.3-7.9-4.3c-2.7-1.2-4.9-3-6.4-5.1-1.5-2.1-2.3-4.5-2.3-7h20 20z"/>
							<path id="&lt;Compound Path&gt;" fill-rule="evenodd" class="s0" d="m-658.5-128.8h-22.6q-1.1 0-2.3-0.1-1.1-0.1-2.2-0.3-1-0.2-2-0.5-1-0.3-2-0.7-0.4-0.2-0.9-0.5-0.4-0.2-0.8-0.4l-15.8-8.5c-3-1.4-5.5-3.5-7.3-5.9-1.8-2.6-2.8-5.5-2.8-8.5 0-1.4 1.1-2.5 2.5-2.5h88.9c1.4 0 2.5 1.1 2.5 2.5 0 3-0.9 5.9-2.8 8.5-1.7 2.4-4.2 4.5-7.2 5.9l-14.4 8.2q-1.1 0.6-2.1 1.1-1.2 0.5-2.3 0.8-0.7 0.2-1.3 0.3-0.7 0.2-1.3 0.3-1 0.1-1.9 0.2-0.9 0.1-1.9 0.1zm-53.3-22.9q0.4 1.6 1.5 3c1.2 1.8 3.1 3.3 5.3 4.4q0.1 0 0.2 0l15.9 8.6q0.3 0.2 0.6 0.4 0.3 0.1 0.6 0.2 0.8 0.3 1.5 0.6 0.8 0.2 1.6 0.4 0.9 0.1 1.7 0.2 0.9 0.1 1.8 0.1h22.6q0.7 0 1.5-0.1 0.7 0 1.5-0.1 0.5-0.1 1-0.2 0.5-0.2 1-0.3 0.8-0.2 1.6-0.6 0.8-0.4 1.7-0.8l14.5-8.3q0.1-0.1 0.2-0.1c2.2-1.1 4.1-2.6 5.4-4.4q1-1.4 1.5-3z"/>
						</g>
						<path id="&lt;Compound Path&gt;" fill-rule="evenodd" class="s0" d="m-669.8-114.8c-10.8 0-19.6-8.8-19.6-19.6 0-10.8 8.8-19.6 19.6-19.6 10.8 0 19.6 8.8 19.6 19.6 0 10.8-8.8 19.6-19.6 19.6zm0-34.2c-8 0-14.6 6.6-14.6 14.6 0 8.1 6.6 14.6 14.6 14.6 8 0 14.6-6.5 14.6-14.6 0-8-6.6-14.6-14.6-14.6z"/>
					</g>
				</g>
				<g id="&lt;Group&gt;">
					<path id="&lt;Compound Path&gt;" fill-rule="evenodd" class="s0" d="m174.9-202h-85.1c-1 0-1.9-0.6-2.3-1.4 0 0-1.4-2.8-3.8-6.8-2.3-3.7-6-9.1-10.7-14.2-1.7-1.9-3-4.1-4-6.5-0.9-2.3-1.3-4.8-1.3-7.4v-16.7c0-1.4 1.1-2.5 2.5-2.5h124.3c1.4 0 2.5 1.1 2.5 2.5v16.7c0 2.6-0.4 5.1-1.4 7.4-0.9 2.4-2.2 4.6-4 6.5-4.6 5.1-8.3 10.5-10.6 14.2-2.5 4-3.8 6.8-3.8 6.8-0.4 0.8-1.3 1.4-2.3 1.4zm-83.6-5h82.1c0.7-1.3 1.8-3.3 3.3-5.8 2.4-3.9 6.3-9.6 11.3-15q1.9-2.1 3-4.9 1-2.7 1-5.6v-14.2h-119.3v14.2q0 2.9 1 5.6 1.1 2.8 3 4.9c5 5.4 8.9 11.1 11.2 15 1.6 2.5 2.7 4.5 3.4 5.8z"/>
					<g id="&lt;Group&gt;">
						<g id="&lt;Group&gt;">
							<g id="&lt;Group&gt;">
								<path id="&lt;Path&gt;" class="s0" d="m166.7-285.8l2.5-0.8q2.2 0.7 4.2 1.5c11.9 5 21.1 14.1 21.1 30.1h-26.1-26.2-9.9-9.9-26.1-26.1q0-0.2 0.1-0.4 0.9 0.2 1.8 0.3c1.9 0.2 3.9-0.1 5.9-0.7l29.6-10 29.5-10z"/>
								<path id="&lt;Compound Path&gt;" fill-rule="evenodd" class="s0" d="m73.2-252.5q-0.1 0-0.1 0h-2.9c-0.9 0-1.7-0.5-2.1-1.2-0.5-0.7-0.6-1.6-0.2-2.4l0.1-0.2c0.4-1.1 1.6-1.7 2.8-1.5 0.6 0.1 1 0.2 1.5 0.2q0.4 0 0.8 0.1h0.2q2-0.1 3.9-0.7l91.2-30.8c0.5-0.2 1.1-0.2 1.6 0 1.6 0.5 3 1 4.4 1.6 14.8 6.2 22.6 17.4 22.6 32.4 0 1.3-1.1 2.5-2.5 2.5-0.1 0-121.2 0-121.3 0zm17.7-5h101c-0.8-11.7-7.3-20.2-19.5-25.3q-1.4-0.6-3.2-1.2l-31.3 10.6z"/>
							</g>
							<g id="&lt;Group&gt;">
								<path id="&lt;Path&gt;" class="s0" d="m127.6-408.2l-5.2 1.8-20.2-2.2-26.5-2.9q1.6-0.3 3.3-0.8l29.2-9.9 29.2-9.8 3.5-1.2 22.5 2.4 23.6 2.6q-0.2 0-0.3 0l-29.6 10z"/>
								<path id="&lt;Compound Path&gt;" fill-rule="evenodd" class="s0" d="m122.4-403.9q-0.2 0-0.3-0.1l-46.7-5c-1.3-0.2-2.2-1.2-2.2-2.4-0.1-1.3 0.8-2.4 2.1-2.6q1.5-0.2 2.9-0.7l61.9-20.9q0.5-0.2 1.1-0.1l46 5c1.2 0.1 2.1 1 2.2 2.2 0.2 1.2-0.6 2.3-1.7 2.6q-0.1 0.1-0.2 0.1l-29.6 10-34.7 11.7q-0.4 0.2-0.8 0.2zm-34.5-8.8l34.2 3.7 53.3-18-34.2-3.7z"/>
							</g>
							<path id="&lt;Path&gt;" class="s0" d="m192.8-344.1c-1.2 0-2.2-0.8-2.5-2-0.2-1.2 0.5-2.5 1.7-2.9l3.4-1.2q2.4-0.8 4.3-2.5 0.9-0.8 1.7-1.8c0.8-1 2.3-1.3 3.4-0.5 1.1 0.8 1.4 2.3 0.6 3.5q-0.7 1.1-1.7 2.1-1.7 1.8-4 3.1-2.3 1.2-4.7 1.8-0.9 0.2-1.9 0.3-0.2 0.1-0.3 0.1z"/>
							<g id="&lt;Group&gt;">
								<path id="&lt;Path&gt;" class="s0" d="m127.6-356.2l-6.2 2.1-19.2-2-28.2-3.1q2-0.1 4-0.7l29.6-10 29.5-10 2.8-0.9 23.5 2.5 22.5 2.5-28.8 9.7z"/>
								<path id="&lt;Compound Path&gt;" fill-rule="evenodd" class="s0" d="m121.4-351.6q-0.2 0-0.3 0l-47.4-5.1c-1.3-0.1-2.2-1.2-2.2-2.5 0-1.4 1.1-2.4 2.4-2.5q1.7-0.1 3.3-0.6l61.9-20.9q0.5-0.2 1.1-0.1l46 5c1.1 0.1 2.1 1 2.2 2.2 0.1 1.1-0.6 2.2-1.7 2.6l-64.5 21.8q-0.4 0.1-0.8 0.1zm-34.5-8.7l34.2 3.7 53.3-18-34.2-3.7z"/>
							</g>
							<g id="&lt;Group&gt;">
								<path id="&lt;Path&gt;" class="s0" d="m137.1-327.8l4-1.4 22.3 2.4 23.8 2.6q-0.2 0.1-0.5 0.1l-29.6 10-29.5 10-5 1.7-20.4-2.2-25.9-2.8q0.8-0.2 1.7-0.5l29.6-10z"/>
								<path id="&lt;Compound Path&gt;" fill-rule="evenodd" class="s0" d="m122.6-299.9q-0.1 0-0.3 0l-46.3-5c-1.2-0.2-2.1-1.2-2.2-2.4-0.1-1.2 0.8-2.3 2-2.6q0.8-0.1 1.4-0.4l63.1-21.3q0.5-0.1 1.1-0.1l46.1 5c1.2 0.1 2.1 1.1 2.2 2.3 0.1 1.1-0.6 2.2-1.8 2.6q-0.1 0-0.3 0.1h-0.1l-64.1 21.6q-0.4 0.2-0.8 0.2zm-34.5-8.8l34.2 3.7 53.3-18-34.2-3.7z"/>
							</g>
							<path id="&lt;Compound Path&gt;" fill-rule="evenodd" class="s0" d="m73.2-252.5q-0.6 0-1.3-0.1-0.9 0-2.1-0.3-2.3-0.5-4.3-1.5c-2.1-1-3.8-2.3-5.3-4q-2.4-2.7-3.5-6c-0.8-2.2-1.1-4.6-0.9-6.9q0.3-3.4 1.8-6.4 1.5-3.1 4-5.3c1.8-1.6 3.8-2.8 6-3.5l88.7-30 29.6-9.9q0.2-0.1 0.5-0.2h0.1q3.1-0.9 6.3-0.7c2.2 0.2 4.4 0.8 6.4 1.8 2 1 3.8 2.3 5.3 4 1.6 1.8 2.7 3.8 3.5 6q1.1 3.3 0.9 6.9-0.3 3.4-1.8 6.4-1.5 3.1-4.1 5.3c-1.7 1.6-3.7 2.8-6 3.5l-118.2 39.9q-2.7 1-5.6 1zm84.7-59.2l-88.7 29.9q-2.4 0.8-4.2 2.5-1.9 1.6-2.9 3.8-1.1 2.2-1.3 4.6-0.2 2.5 0.6 4.9 0.8 2.4 2.5 4.3 1.6 1.8 3.8 2.9 1.4 0.7 3.1 1c0.6 0.1 1 0.2 1.5 0.2q2.5 0.2 4.9-0.6l118.2-39.9q2.4-0.8 4.3-2.5 1.8-1.6 2.9-3.8 1.1-2.2 1.3-4.6 0.2-2.5-0.6-4.9-0.9-2.4-2.5-4.3-1.6-1.8-3.8-2.9-2.2-1-4.6-1.2-2.2-0.2-4.5 0.5-0.1 0-0.3 0.1h-0.1z"/>
							<path id="&lt;Compound Path&gt;" fill-rule="evenodd" class="s0" d="m73.2-304.6q-0.7 0-1.3 0-3.4-0.3-6.4-1.8c-2.1-1-3.8-2.4-5.3-4.1-1.6-1.7-2.8-3.7-3.5-6-0.8-2.2-1.1-4.5-0.9-6.8q0.3-3.4 1.8-6.5 1.5-3 4-5.3c1.8-1.5 3.8-2.7 6-3.5l118.3-39.9q3.3-1 6.9-0.9c2.2 0.2 4.4 0.8 6.4 1.8 2 1 3.8 2.4 5.3 4.1 1.6 1.7 2.7 3.7 3.5 6 0.7 2.2 1 4.5 0.9 6.8q-0.3 3.4-1.8 6.5-0.7 1.4-1.7 2.7-1.1 1.4-2.4 2.6c-1.7 1.5-3.7 2.7-6 3.5l-3.4 1.1-114.8 38.8q-0.9 0.3-2 0.5-1.8 0.4-3.6 0.4zm118.3-69.8q-2.1 0-4 0.7l-118.3 39.9q-2.4 0.8-4.2 2.5-1.9 1.6-2.9 3.7-1.1 2.2-1.3 4.6-0.2 2.5 0.6 4.9 0.8 2.4 2.5 4.3 1.6 1.8 3.8 2.9 2.2 1.1 4.6 1.3 1.7 0.1 3.5-0.3 0.8-0.1 1.4-0.4l118.2-39.9q2.4-0.8 4.3-2.5 0.9-0.8 1.7-1.8 0.7-0.9 1.2-1.9 1.1-2.2 1.3-4.6 0.2-2.5-0.6-4.9-0.9-2.4-2.5-4.3-1.6-1.8-3.8-2.9-2.2-1.1-4.6-1.3-0.5 0-0.9 0z"/>
							<path id="&lt;Compound Path&gt;" fill-rule="evenodd" class="s0" d="m73-356.7q-0.6 0-1.1 0-3.4-0.3-6.4-1.8c-2.1-1-3.8-2.3-5.3-4-1.6-1.8-2.8-3.8-3.5-6q-1.2-3.3-0.9-6.9 0.3-3.4 1.8-6.4 1.5-3.1 4-5.3c1.8-1.6 3.8-2.8 6-3.5l118.3-39.9q0.2-0.1 0.3-0.1c2.2-0.7 4.4-1 6.6-0.8 2.2 0.2 4.4 0.8 6.4 1.8 2 1 3.8 2.3 5.3 4 1.6 1.8 2.7 3.8 3.5 6 0.7 2.2 1 4.6 0.9 6.9q-0.3 3.4-1.8 6.4-1.5 3.1-4.1 5.3c-1.7 1.6-3.7 2.8-6 3.5l-88.6 30-29.6 9.9q-2.2 0.8-4.7 0.9-0.6 0-1.1 0zm118.5-69.7q-1.9 0-3.8 0.5-0.1 0.1-0.2 0.1l-118.3 39.9q-2.4 0.8-4.2 2.5-1.9 1.6-2.9 3.8-1.1 2.2-1.3 4.6-0.2 2.5 0.6 4.9 0.8 2.4 2.5 4.3 1.6 1.8 3.8 2.9 2.2 1 4.6 1.2c0.4 0.1 0.9 0.1 1.6 0q1.7-0.1 3.3-0.6l118.2-39.9q2.4-0.8 4.3-2.5 1.8-1.6 2.9-3.8 1.1-2.2 1.3-4.6 0.2-2.5-0.6-4.9-0.9-2.4-2.5-4.3-1.6-1.8-3.8-2.9-2.2-1-4.6-1.2-0.5 0-0.9 0z"/>
							<path id="&lt;Compound Path&gt;" fill-rule="evenodd" class="s0" d="m72.9-408.8q-0.9 0-1.9-0.1c-2.8-0.3-5.3-1.3-7.5-2.8q-3.3-2.4-5.1-6.3c-1.2-2.5-1.8-5.5-1.8-8.7q0-2.5 0.9-5.1 0.9-2.5 2.4-4.7 1.6-2.2 3.7-3.8 2.2-1.7 4.6-2.5l116.7-39.4c3-1.1 6-1.4 8.8-1.1 2.8 0.3 5.3 1.3 7.5 2.8q3.3 2.4 5.1 6.3c1.2 2.5 1.8 5.5 1.8 8.7q0 2.5-0.9 5.1-0.9 2.5-2.5 4.7-1.5 2.2-3.6 3.8-2.2 1.7-4.6 2.5l-116.7 39.4q-1.8 0.7-3.8 1-1.5 0.2-3.1 0.2zm118.8-69.6q-2.5 0-5.2 0.9l-116.7 39.4q-1.6 0.5-3.1 1.7-1.5 1.2-2.7 2.8-1.2 1.7-1.8 3.4-0.6 1.8-0.6 3.5 0 3.8 1.3 6.6 1.2 2.7 3.5 4.3 2.2 1.6 5.1 1.9 1.8 0.2 3.8-0.1 1.5-0.2 2.9-0.7l116.7-39.4q1.6-0.5 3.1-1.7 1.5-1.2 2.7-2.8 1.1-1.6 1.8-3.4 0.6-1.8 0.6-3.5c0-2.5-0.4-4.7-1.3-6.6q-1.3-2.7-3.5-4.3-2.2-1.6-5.2-1.9-0.7-0.1-1.4-0.1z"/>
						</g>
					</g>
					<g id="&lt;Group&gt;">
						<path id="&lt;Compound Path&gt;" fill-rule="evenodd" class="s0" d="m175.1-189.1h-85.5c-1.4 0-2.5-1.1-2.5-2.5v-12.9c0-1.4 1.1-2.5 2.5-2.5h85.5c1.4 0 2.5 1.1 2.5 2.5v12.9c0 1.4-1.1 2.5-2.5 2.5zm-83-5h80.5v-7.9h-80.5z"/>
						<path id="&lt;Compound Path&gt;" fill-rule="evenodd" class="s0" d="m175.1-176.2h-85.5c-1.4 0-2.5-1.1-2.5-2.5v-12.9c0-1.4 1.1-2.5 2.5-2.5h85.5c1.4 0 2.5 1.1 2.5 2.5v12.9c0 1.4-1.1 2.5-2.5 2.5zm-83-5h80.5v-7.9h-80.5z"/>
						<path id="&lt;Compound Path&gt;" fill-rule="evenodd" class="s0" d="m175.1-163.2h-85.5c-1.4 0-2.5-1.2-2.5-2.5v-13c0-1.3 1.1-2.5 2.5-2.5h85.5c1.4 0 2.5 1.2 2.5 2.5v13c0 1.3-1.1 2.5-2.5 2.5zm-83-5h80.5v-8h-80.5z"/>
						<path id="&lt;Compound Path&gt;" fill-rule="evenodd" class="s0" d="m175.1-150.3h-85.5c-1.4 0-2.5-1.1-2.5-2.5v-12.9c0-1.4 1.1-2.5 2.5-2.5h85.5c1.4 0 2.5 1.1 2.5 2.5v12.9c0 1.4-1.1 2.5-2.5 2.5zm-83-5h80.5v-7.9h-80.5z"/>
						<g id="&lt;Group&gt;">
							<path id="&lt;Path&gt;" class="s0" d="m132.3-152.8h4.3 19.2 19.3c0 2.4-0.8 4.7-2.3 6.8-1.4 2-3.5 3.7-6.1 4.9l-7 4-6.9 4q-0.9 0.5-1.8 0.9-0.9 0.4-1.9 0.7-0.6 0.1-1.1 0.3-0.6 0.1-1.1 0.2-0.8 0.1-1.6 0.2-0.8 0.1-1.7 0.1h-1.8-1.8-7.2-7.3-1.8-1.8q-1 0-1.9-0.1-1-0.1-1.9-0.3-0.9-0.2-1.8-0.5-0.8-0.2-1.6-0.5-0.4-0.2-0.8-0.4-0.3-0.2-0.7-0.4l-7.6-4.1-7.7-4.1c-2.5-1.2-4.6-2.9-6.1-4.9-1.4-2.1-2.2-4.4-2.2-6.8h19.2 19.3z"/>
							<path id="&lt;Compound Path&gt;" fill-rule="evenodd" class="s0" d="m143.6-128.2h-21.7q-1.1 0-2.2-0.2-1.1-0.1-2.1-0.3-1-0.2-2-0.5-1-0.3-1.9-0.6-0.4-0.2-0.9-0.4-0.4-0.2-0.8-0.5l-15.2-8.2c-2.9-1.3-5.3-3.3-7-5.7-1.8-2.5-2.7-5.3-2.7-8.2 0-1.4 1.1-2.5 2.5-2.5h85.5c1.4 0 2.5 1.1 2.5 2.5 0 2.9-1 5.7-2.7 8.2-1.7 2.4-4.1 4.4-7 5.7l-13.9 7.9q-1 0.6-2 1.1-1.1 0.5-2.2 0.8-0.6 0.2-1.3 0.3-0.6 0.1-1.2 0.2-0.9 0.2-1.8 0.3-0.9 0.1-1.9 0.1zm-51.1-22.1q0.4 1.5 1.4 2.8c1.2 1.7 3 3.1 5.1 4.1q0.1 0.1 0.1 0.1l15.3 8.3q0.3 0.1 0.6 0.3 0.3 0.1 0.6 0.2 0.7 0.3 1.4 0.5 0.8 0.3 1.5 0.4 0.9 0.2 1.7 0.3 0.8 0.1 1.7 0.1h21.7q0.7 0 1.4-0.1 0.8-0.1 1.5-0.2 0.5-0.1 0.9-0.2 0.5-0.1 1-0.2 0.8-0.2 1.6-0.6 0.7-0.3 1.5-0.8l14-8q0.1 0 0.2-0.1c2.1-1 3.9-2.4 5.1-4.1q1-1.3 1.4-2.8z"/>
						</g>
						<path id="&lt;Compound Path&gt;" fill-rule="evenodd" class="s0" d="m132.8-114.8c-10.5 0-19-8.5-19-18.9 0-10.5 8.5-18.9 19-18.9 10.4 0 18.9 8.4 18.9 18.9 0 10.4-8.5 18.9-18.9 18.9zm0-32.8c-7.7 0-14 6.2-14 13.9 0 7.6 6.3 13.9 14 13.9 7.6 0 13.9-6.3 13.9-13.9 0-7.7-6.3-13.9-13.9-13.9z"/>
					</g>
				</g>
				<g id="&lt;Group&gt;">
					<g id="&lt;Group&gt;">
						<path id="&lt;Path&gt;" class="s0" d="m433.2-255h28.8v8.3 8.4c0 2.3-0.4 4.5-1.2 6.5-0.8 2.1-1.9 4-3.5 5.7-4.6 5-8.4 10.5-10.9 14.6-2.6 4.1-4 7-4 7h-21.2-21.3-21.3-21.3c0 0-1.4-2.9-4-7-2.5-4.1-6.2-9.6-10.9-14.6-1.5-1.7-2.7-3.6-3.5-5.7-0.8-2-1.2-4.2-1.2-6.5v-8.4-8.3h31.1 31.2 2.2 2.2z"/>
						<path id="&lt;Compound Path&gt;" fill-rule="evenodd" class="s0" d="m442.4-202h-85.1c-1 0-1.8-0.6-2.3-1.4 0 0-1.3-2.8-3.8-6.8-2.3-3.7-6-9.1-10.6-14.2-1.8-1.9-3.1-4.1-4-6.5-1-2.3-1.4-4.8-1.4-7.4v-16.7c0-1.4 1.1-2.5 2.5-2.5h124.3c1.4 0 2.5 1.1 2.5 2.5v16.7c0 2.6-0.4 5.1-1.3 7.4-1 2.4-2.3 4.6-4 6.5-4.7 5.1-8.4 10.5-10.7 14.2-2.4 4-3.8 6.8-3.8 6.8-0.4 0.8-1.3 1.4-2.3 1.4zm-83.6-5h82.1c0.7-1.3 1.8-3.3 3.4-5.8 2.4-3.9 6.2-9.6 11.2-15q1.9-2.1 3-4.9 1-2.7 1-5.6v-14.2h-119.3v14.2q0 2.9 1 5.6 1.1 2.8 3 4.9c5 5.4 8.9 11.1 11.3 15 1.5 2.5 2.6 4.5 3.3 5.8z"/>
					</g>
					<path id="&lt;Compound Path&gt;" fill-rule="evenodd" class="s0" d="m457.9-252.5h-116.1c-4.8 0-9.3-1.9-12.7-5.3-3.4-3.4-5.2-7.9-5.2-12.7 0-4.8 1.8-9.3 5.2-12.7 3.4-3.4 7.9-5.2 12.7-5.2h116.1c4.8 0 9.3 1.8 12.7 5.2 3.4 3.4 5.3 7.9 5.3 12.7 0 4.8-1.9 9.3-5.3 12.7-3.4 3.4-7.9 5.3-12.7 5.3zm-116.1-30.9c-3.5 0-6.7 1.3-9.2 3.8-2.4 2.4-3.7 5.7-3.7 9.1 0 3.5 1.3 6.7 3.7 9.2 2.5 2.4 5.7 3.8 9.2 3.8h116.1c3.5 0 6.7-1.4 9.2-3.8 2.4-2.5 3.8-5.7 3.8-9.2 0-3.4-1.4-6.7-3.8-9.1-2.5-2.5-5.7-3.8-9.2-3.8z"/>
					<g id="&lt;Group&gt;">
						<path id="&lt;Path&gt;" class="s0" d="m468.8-312.3c2.8 2.8 4.6 6.7 4.6 10.9 0 4.3-1.8 8.2-4.6 11-2.7 2.8-6.6 4.5-10.9 4.5h-58-58.1c-4.3 0-8.1-1.7-10.9-4.5-2.8-2.8-4.5-6.7-4.5-11 0-4.2 1.7-8.1 4.5-10.9 2.8-2.8 6.6-4.5 10.9-4.5h58.1 58c4.3 0 8.2 1.7 10.9 4.5z"/>
						<path id="&lt;Compound Path&gt;" fill-rule="evenodd" class="s0" d="m457.9-283.4h-116.1c-4.8 0-9.3-1.9-12.7-5.3-3.4-3.4-5.2-7.9-5.2-12.7 0-4.7 1.8-9.2 5.2-12.6 3.4-3.4 7.9-5.3 12.7-5.3h116.1c4.8 0 9.3 1.9 12.7 5.3 3.4 3.4 5.3 7.9 5.3 12.6 0 4.8-1.9 9.3-5.3 12.7-3.4 3.4-7.9 5.3-12.7 5.3zm-116.1-30.9c-3.5 0-6.7 1.4-9.2 3.8-2.4 2.4-3.7 5.7-3.7 9.1 0 3.5 1.3 6.8 3.7 9.2 2.5 2.4 5.7 3.8 9.2 3.8h116.1c3.5 0 6.7-1.4 9.2-3.8 2.4-2.4 3.8-5.7 3.8-9.2 0-3.4-1.4-6.7-3.8-9.1-2.5-2.4-5.7-3.8-9.2-3.8z"/>
					</g>
					<path id="&lt;Compound Path&gt;" fill-rule="evenodd" class="s0" d="m457.9-314.3h-116.1c-4.8 0-9.3-1.9-12.7-5.2-3.4-3.4-5.2-7.9-5.2-12.7 0-4.8 1.8-9.3 5.2-12.7 3.4-3.4 7.9-5.3 12.7-5.3h116.1c4.8 0 9.3 1.9 12.7 5.3 3.4 3.4 5.3 7.9 5.3 12.7 0 4.8-1.9 9.3-5.3 12.7-3.4 3.3-7.9 5.2-12.7 5.2zm-116.1-30.9c-3.5 0-6.7 1.4-9.2 3.8-2.4 2.5-3.7 5.7-3.7 9.2 0 3.4 1.3 6.7 3.7 9.1 2.5 2.5 5.7 3.8 9.2 3.8h116.1c3.5 0 6.7-1.3 9.2-3.8 2.4-2.4 3.8-5.7 3.8-9.1 0-3.5-1.4-6.7-3.8-9.2-2.5-2.4-5.7-3.8-9.2-3.8z"/>
					<g id="&lt;Group&gt;">
						<path id="&lt;Path&gt;" class="s0" d="m468.8-374c2.8 2.8 4.6 6.6 4.6 10.9 0 4.3-1.8 8.1-4.6 10.9-2.7 2.8-6.6 4.5-10.9 4.5h-58-58.1c-4.3 0-8.1-1.7-10.9-4.5-2.8-2.8-4.5-6.6-4.5-10.9 0-4.3 1.7-8.1 4.5-10.9 2.8-2.8 6.6-4.5 10.9-4.5h58.1 58c4.3 0 8.2 1.7 10.9 4.5z"/>
						<path id="&lt;Compound Path&gt;" fill-rule="evenodd" class="s0" d="m457.9-345.2h-116.1c-4.8 0-9.3-1.8-12.7-5.2-3.4-3.4-5.2-7.9-5.2-12.7 0-4.8 1.8-9.3 5.2-12.7 3.4-3.4 7.9-5.2 12.7-5.2h116.1c4.8 0 9.3 1.8 12.7 5.2 3.4 3.4 5.3 7.9 5.3 12.7 0 4.8-1.9 9.3-5.3 12.7-3.4 3.4-7.9 5.2-12.7 5.2zm-116.1-30.8c-3.5 0-6.7 1.3-9.2 3.8-2.4 2.4-3.7 5.7-3.7 9.1 0 3.5 1.3 6.7 3.7 9.2 2.5 2.4 5.7 3.7 9.2 3.7h116.1c3.5 0 6.7-1.3 9.2-3.7 2.4-2.5 3.8-5.7 3.8-9.2 0-3.4-1.4-6.7-3.8-9.1-2.5-2.5-5.7-3.8-9.2-3.8z"/>
					</g>
					<path id="&lt;Compound Path&gt;" fill-rule="evenodd" class="s0" d="m457.9-376h-116.1c-4.8 0-9.3-1.9-12.7-5.3-3.4-3.4-5.2-7.9-5.2-12.7 0-4.7 1.8-9.3 5.2-12.6 3.4-3.4 7.9-5.3 12.7-5.3h116.1c4.8 0 9.3 1.9 12.7 5.3 3.4 3.3 5.3 7.9 5.3 12.6 0 4.8-1.9 9.3-5.3 12.7-3.4 3.4-7.9 5.3-12.7 5.3zm-116.1-30.9c-3.5 0-6.7 1.4-9.2 3.8-2.4 2.4-3.7 5.7-3.7 9.1 0 3.5 1.3 6.7 3.7 9.2 2.5 2.4 5.7 3.8 9.2 3.8h116.1c3.5 0 6.7-1.4 9.2-3.8 2.4-2.5 3.8-5.7 3.8-9.2 0-3.4-1.4-6.7-3.8-9.1-2.5-2.4-5.7-3.8-9.2-3.8z"/>
					<g id="&lt;Group&gt;">
						<path id="&lt;Path&gt;" class="s0" d="m468.8-435.7c2.8 2.8 4.6 6.6 4.6 10.9 0 4.2-1.8 8.1-4.6 10.9-2.7 2.8-6.6 4.5-10.9 4.5h-58-58.1c-4.3 0-8.1-1.7-10.9-4.5-2.8-2.8-4.5-6.7-4.5-10.9 0-4.3 1.7-8.1 4.5-10.9 2.8-2.8 6.6-4.6 10.9-4.6h58.1 58c4.3 0 8.2 1.8 10.9 4.6z"/>
						<path id="&lt;Compound Path&gt;" fill-rule="evenodd" class="s0" d="m457.9-406.9h-116.1c-4.8 0-9.3-1.9-12.7-5.2-3.4-3.4-5.2-7.9-5.2-12.7 0-4.8 1.8-9.3 5.2-12.7 3.4-3.4 7.9-5.3 12.7-5.3h116.1c4.8 0 9.3 1.9 12.7 5.3 3.4 3.4 5.3 7.9 5.3 12.7 0 4.8-1.9 9.3-5.3 12.7-3.4 3.3-7.9 5.2-12.7 5.2zm-116.1-30.9c-3.5 0-6.7 1.4-9.2 3.8-2.4 2.5-3.7 5.7-3.7 9.2 0 3.4 1.3 6.7 3.7 9.1 2.5 2.5 5.7 3.8 9.2 3.8h116.1c3.5 0 6.7-1.3 9.2-3.8 2.4-2.4 3.8-5.7 3.8-9.1 0-3.5-1.4-6.7-3.8-9.2-2.5-2.4-5.7-3.8-9.2-3.8z"/>
					</g>
					<path id="&lt;Compound Path&gt;" fill-rule="evenodd" class="s0" d="m446.6-437.8h-93.5c-4.8 0-9.3-1.8-12.7-5.2-3.4-3.4-5.2-7.9-5.2-12.7 0-4.8 1.8-9.3 5.2-12.7 3.4-3.4 7.9-5.2 12.7-5.2h93.5c4.8 0 9.3 1.8 12.7 5.2 3.4 3.4 5.2 7.9 5.2 12.7 0 4.8-1.8 9.3-5.2 12.7-3.4 3.4-7.9 5.2-12.7 5.2zm-93.5-30.8c-3.4 0-6.7 1.3-9.1 3.8-2.5 2.4-3.8 5.6-3.8 9.1 0 3.5 1.3 6.7 3.8 9.1 2.4 2.5 5.7 3.8 9.1 3.8h93.5c3.5 0 6.7-1.3 9.2-3.8 2.4-2.4 3.7-5.6 3.7-9.1 0-3.5-1.3-6.7-3.7-9.1-2.5-2.5-5.7-3.8-9.2-3.8z"/>
					<g id="&lt;Group&gt;">
						<path id="&lt;Compound Path&gt;" fill-rule="evenodd" class="s0" d="m442.6-189.1h-85.5c-1.4 0-2.5-1.1-2.5-2.5v-12.9c0-1.4 1.1-2.5 2.5-2.5h85.5c1.4 0 2.5 1.1 2.5 2.5v12.9c0 1.4-1.1 2.5-2.5 2.5zm-83-5h80.5v-7.9h-80.5z"/>
						<path id="&lt;Compound Path&gt;" fill-rule="evenodd" class="s0" d="m442.6-176.2h-85.5c-1.4 0-2.5-1.1-2.5-2.5v-12.9c0-1.4 1.1-2.5 2.5-2.5h85.5c1.4 0 2.5 1.1 2.5 2.5v12.9c0 1.4-1.1 2.5-2.5 2.5zm-83-5h80.5v-7.9h-80.5z"/>
						<path id="&lt;Compound Path&gt;" fill-rule="evenodd" class="s0" d="m442.6-163.2h-85.5c-1.4 0-2.5-1.2-2.5-2.5v-13c0-1.3 1.1-2.5 2.5-2.5h85.5c1.4 0 2.5 1.2 2.5 2.5v13c0 1.3-1.1 2.5-2.5 2.5zm-83-5h80.5v-8h-80.5z"/>
						<path id="&lt;Compound Path&gt;" fill-rule="evenodd" class="s0" d="m442.6-150.3h-85.5c-1.4 0-2.5-1.1-2.5-2.5v-12.9c0-1.4 1.1-2.5 2.5-2.5h85.5c1.4 0 2.5 1.1 2.5 2.5v12.9c0 1.4-1.1 2.5-2.5 2.5zm-83-5h80.5v-7.9h-80.5z"/>
						<g id="&lt;Group&gt;">
							<path id="&lt;Path&gt;" class="s0" d="m399.9-152.8h4.2 19.3 19.2c0 2.4-0.8 4.7-2.2 6.8-1.5 2-3.6 3.7-6.1 4.9l-7 4-7 4q-0.9 0.5-1.8 0.9-0.9 0.4-1.9 0.7-0.5 0.1-1.1 0.3-0.5 0.1-1.1 0.2-0.8 0.1-1.6 0.2-0.8 0.1-1.6 0.1h-1.9-1.8-7.2-7.2-1.9-1.8q-1 0-1.9-0.1-1-0.1-1.9-0.3-0.9-0.2-1.7-0.5-0.9-0.2-1.7-0.5-0.4-0.2-0.7-0.4-0.4-0.2-0.8-0.4l-7.6-4.1-7.6-4.1c-2.6-1.2-4.7-2.9-6.1-4.9-1.5-2.1-2.3-4.4-2.3-6.8h19.3 19.2z"/>
							<path id="&lt;Compound Path&gt;" fill-rule="evenodd" class="s0" d="m411.2-128.2h-21.8q-1.1 0-2.2-0.2-1.1-0.1-2.1-0.3-1-0.2-2-0.5-0.9-0.3-1.9-0.6-0.4-0.2-0.9-0.4-0.4-0.2-0.7-0.5l-15.3-8.2c-2.8-1.3-5.3-3.3-7-5.7-1.7-2.5-2.7-5.3-2.7-8.2 0-1.4 1.1-2.5 2.5-2.5h85.5c1.4 0 2.5 1.1 2.5 2.5 0 2.9-0.9 5.7-2.7 8.2-1.7 2.4-4.1 4.4-7 5.7l-13.9 7.9q-1 0.6-2 1.1-1.1 0.5-2.2 0.8-0.6 0.2-1.2 0.3-0.7 0.1-1.3 0.2-0.9 0.2-1.8 0.3-0.9 0.1-1.8 0.1zm-51.2-22.1q0.4 1.5 1.4 2.8c1.2 1.7 3 3.1 5.1 4.1q0.1 0.1 0.2 0.1l15.2 8.3q0.3 0.1 0.7 0.3 0.2 0.1 0.5 0.2 0.7 0.3 1.5 0.5 0.7 0.3 1.5 0.4 0.8 0.2 1.6 0.3 0.9 0.1 1.7 0.1h21.8q0.7 0 1.4-0.1 0.7-0.1 1.4-0.2 0.5-0.1 1-0.2 0.4-0.1 0.9-0.2 0.8-0.3 1.6-0.6 0.7-0.3 1.6-0.8l13.9-8q0.1 0 0.2-0.1c2.1-1 3.9-2.4 5.1-4.1q1-1.3 1.4-2.8z"/>
						</g>
						<path id="&lt;Compound Path&gt;" fill-rule="evenodd" class="s0" d="m400.3-114.8c-10.4 0-18.9-8.5-18.9-18.9 0-10.5 8.5-18.9 18.9-18.9 10.4 0 18.9 8.4 18.9 18.9 0 10.4-8.5 18.9-18.9 18.9zm0-32.8c-7.7 0-13.9 6.2-13.9 13.9 0 7.6 6.2 13.9 13.9 13.9 7.7 0 13.9-6.3 13.9-13.9 0-7.7-6.2-13.9-13.9-13.9z"/>
					</g>
				</g>
				<g id="&lt;Group&gt;">
					<path id="&lt;Compound Path&gt;" fill-rule="evenodd" class="s0" d="m-892.6 302.9h-90.3q-0.5 0-0.9-0.2c-16-6.3-30.3-15.7-42.5-27.9-23.6-23.6-36.7-55.1-36.7-88.5 0-33.5 13.1-64.9 36.7-88.6 23.7-23.6 55.1-36.6 88.5-36.6 33.5 0 64.9 13 88.6 36.6 23.6 23.7 36.7 55.1 36.7 88.6 0 33.4-13.1 64.9-36.7 88.5-12.2 12.2-26.5 21.6-42.5 27.9q-0.4 0.2-0.9 0.2zm-89.8-5h89.3c15.2-6 28.7-15 40.4-26.6 22.7-22.7 35.2-52.9 35.2-85 0-32.1-12.5-62.3-35.2-85-22.8-22.7-52.9-35.2-85.1-35.2-32.1 0-62.3 12.5-85 35.2-22.7 22.7-35.2 52.9-35.2 85 0 32.1 12.5 62.3 35.2 85 11.6 11.6 25.2 20.6 40.4 26.6z"/>
					<path id="&lt;Path&gt;" class="s0" d="m-916.5 169q0.4 0.5 0.4 1.2v74.5 55.6c0 0.5-0.2 1-0.6 1.4q-0.6 0.6-1.5 0.6c-0.6 0-1.1-0.2-1.4-0.6-0.4-0.4-0.6-0.9-0.6-1.4v-52.7-71.6l-4.8 5.8-4.7 5.8q0 0 0 0.1-0.1 0-0.1 0 0 0.1-0.1 0.1 0 0-0.1 0.1-0.1 0.1-0.1 0.1-0.1 0-0.1 0 0 0.1-0.1 0.1 0 0-0.1 0 0 0.1-0.1 0.1 0 0-0.1 0 0 0-0.1 0.1 0 0-0.1 0 0 0-0.1 0-0.1 0-0.2 0 0 0-0.1 0 0 0-0.1 0-0.1 0-0.2 0 0 0-0.1 0 0 0-0.1 0 0 0-0.1 0 0 0-0.1 0 0-0.1-0.1-0.1 0 0-0.1 0 0 0 0-0.1-0.1 0-0.1 0-0.1 0-0.1 0-0.1-0.1-0.1-0.1-0.1 0-0.1-0.1-0.1 0-0.1 0 0-0.1 0-0.1-0.1 0-0.1-0.1-0.1 0-0.1 0 0-0.1-0.1-0.1 0-0.1 0-0.1-0.1 0-0.1-0.1 0 0 0-0.1-0.1 0-0.1 0 0-0.1 0-0.1 0-0.1-0.1-0.1 0-0.1 0-0.1 0-0.1 0-0.1-0.1-0.1-0.1-0.1 0-0.1 0-0.1 0-0.1 0-0.1 0-0.1 0-0.1 0-0.1 0-0.1 0 0 0-0.1v-5.2-5.1l-4.7 5.8-4.7 5.8q-0.1 0-0.1 0-0.1 0.1-0.1 0.1-0.1 0.1-0.1 0.1 0 0.1-0.1 0.1 0 0 0 0.1-0.1 0-0.2 0 0 0.1-0.1 0.1-0.1 0.1-0.1 0.1-0.1 0-0.2 0 0 0-0.1 0.1 0 0-0.1 0-0.1 0-0.2 0-0.1 0-0.2 0h-0.1q0 0-0.1 0-0.1 0-0.2 0-0.1 0-0.1 0 0 0-0.1 0 0 0-0.1-0.1 0 0-0.1 0 0 0-0.1 0 0 0 0-0.1-0.1 0-0.1 0-0.1 0-0.1-0.1-0.1 0-0.1 0 0 0-0.1-0.1 0 0-0.1 0 0-0.1 0-0.1-0.1 0-0.1-0.1 0 0-0.1 0 0-0.1 0-0.1-0.1-0.1-0.1-0.1 0 0-0.1-0.1 0 0 0-0.1 0 0-0.1 0 0-0.1 0-0.1 0-0.1-0.1-0.1 0-0.1 0-0.1 0-0.1 0-0.1 0-0.1 0-0.1-0.1-0.1-0.1-0.1 0-0.1 0-0.1 0-0.1 0-0.1 0-0.1 0-0.1 0 0 0-0.1v-5-5l-4.4 5.7-4.5 5.8v65.7 46.8c0 0.5-0.2 1-0.6 1.4-0.3 0.4-0.9 0.6-1.4 0.6q-0.9 0-1.5-0.6c-0.4-0.4-0.6-0.9-0.6-1.4v-47.1-66.1q0-0.3 0.1-0.7 0.1-0.3 0.3-0.6l6.5-8.4 6.5-8.5q0.4-0.5 1-0.7 0.7-0.2 1.3 0 0.7 0.3 1 0.8 0.4 0.5 0.4 1.2v5.1 5.2l4.7-5.8 4.7-5.8q0.5-0.5 1.1-0.7 0.6-0.2 1.2 0 0.7 0.3 1 0.8 0.4 0.5 0.4 1.2v5.1 5.2l4.7-5.8 4.7-5.8q0.4-0.5 1.1-0.7 0.6-0.2 1.2 0 0.6 0.3 1 0.8z"/>
					<g id="&lt;Group&gt;">
						<path id="&lt;Compound Path&gt;" fill-rule="evenodd" class="s0" d="m-893.2 316.4h-88.9c-1.4 0-2.5-1.2-2.5-2.5v-13.5c0-1.4 1.1-2.5 2.5-2.5h88.9c1.4 0 2.5 1.1 2.5 2.5v13.5c0 1.3-1.1 2.5-2.5 2.5zm-86.4-5h83.9v-8.5h-83.9z"/>
						<path id="&lt;Compound Path&gt;" fill-rule="evenodd" class="s0" d="m-893.2 329.8h-88.9c-1.4 0-2.5-1.1-2.5-2.5v-13.4c0-1.4 1.1-2.5 2.5-2.5h88.9c1.4 0 2.5 1.1 2.5 2.5v13.4c0 1.4-1.1 2.5-2.5 2.5zm-86.4-5h83.9v-8.4h-83.9z"/>
						<path id="&lt;Compound Path&gt;" fill-rule="evenodd" class="s0" d="m-893.2 343.3h-88.9c-1.4 0-2.5-1.2-2.5-2.5v-13.5c0-1.4 1.1-2.5 2.5-2.5h88.9c1.4 0 2.5 1.1 2.5 2.5v13.5c0 1.3-1.1 2.5-2.5 2.5zm-86.4-5h83.9v-8.5h-83.9z"/>
						<path id="&lt;Compound Path&gt;" fill-rule="evenodd" class="s0" d="m-893.2 356.7h-88.9c-1.4 0-2.5-1.1-2.5-2.5v-13.4c0-1.4 1.1-2.5 2.5-2.5h88.9c1.4 0 2.5 1.1 2.5 2.5v13.4c0 1.4-1.1 2.5-2.5 2.5zm-86.4-5h83.9v-8.4h-83.9z"/>
						<g id="&lt;Group&gt;">
							<path id="&lt;Path&gt;" class="s0" d="m-937.6 354.2h4.4 20 20c0 2.5-0.8 4.9-2.3 7-1.5 2.1-3.7 3.9-6.4 5.2l-7.2 4.1-7.3 4.2q-0.9 0.5-1.8 0.9-1 0.4-2 0.7-0.6 0.2-1.2 0.3-0.5 0.2-1.1 0.3-0.9 0.1-1.7 0.2-0.8 0-1.7 0h-1.9-1.9-7.5-7.5-1.9-1.9q-1 0-2-0.1-1-0.1-2-0.2-0.9-0.2-1.8-0.5-0.9-0.3-1.7-0.6-0.4-0.2-0.8-0.4-0.4-0.1-0.7-0.3l-8-4.3-7.9-4.3c-2.7-1.3-4.9-3.1-6.4-5.2-1.5-2.1-2.3-4.5-2.3-7h20 20z"/>
							<path id="&lt;Compound Path&gt;" fill-rule="evenodd" class="s0" d="m-925.9 379.6h-22.6q-1.2 0-2.3-0.1-1.1-0.1-2.2-0.3-1-0.2-2-0.5-1-0.3-2-0.7-0.4-0.2-0.9-0.4-0.4-0.2-0.8-0.4l-15.8-8.6c-3-1.4-5.5-3.4-7.3-5.9-1.8-2.6-2.8-5.5-2.8-8.5 0-1.4 1.1-2.5 2.5-2.5h88.9c1.4 0 2.5 1.1 2.5 2.5 0 3-0.9 5.9-2.8 8.5-1.7 2.4-4.2 4.5-7.2 5.9l-14.5 8.2q-1 0.6-2 1.1-1.2 0.5-2.3 0.8-0.7 0.2-1.3 0.4-0.7 0.1-1.3 0.2-1 0.2-1.9 0.3-0.9 0-1.9 0zm-53.3-22.9q0.4 1.6 1.5 3.1c1.2 1.8 3.1 3.3 5.3 4.3q0.1 0 0.2 0.1l15.9 8.6q0.3 0.1 0.6 0.3 0.3 0.2 0.6 0.3 0.7 0.3 1.5 0.5 0.8 0.2 1.6 0.4 0.8 0.2 1.7 0.3 0.9 0 1.8 0c0.5 0 23.6 0 24.1 0q0.7-0.1 1.5-0.2 0.5-0.1 1-0.2 0.5-0.1 1-0.3 0.8-0.2 1.6-0.6 0.8-0.3 1.7-0.8l14.5-8.3q0.1 0 0.2-0.1c2.2-1 4.1-2.5 5.4-4.3q1-1.5 1.5-3.1z"/>
						</g>
						<path id="&lt;Compound Path&gt;" fill-rule="evenodd" class="s0" d="m-937.2 393.6c-10.8 0-19.6-8.8-19.6-19.6 0-10.7 8.8-19.5 19.6-19.5 10.8 0 19.6 8.8 19.6 19.5 0 10.8-8.8 19.6-19.6 19.6zm0-34.1c-8 0-14.6 6.5-14.6 14.5 0 8.1 6.6 14.6 14.6 14.6 8 0 14.6-6.5 14.6-14.6 0-8-6.6-14.5-14.6-14.5z"/>
					</g>
					<g id="&lt;Group&gt;">
						<path id="&lt;Path&gt;" class="s0" d="m-838.1 213.1c0 0 0.1 0.4 0.1 1.2q0.2 1.1 0.3 3c0.1 2.5-0.1 5.8-0.6 9q-0.2 1.2-0.5 2.4-0.2 1.2-0.5 2.4c-0.5 1.5-0.9 2.9-1.5 4-0.5 1.2-1 2.2-1.4 2.8-0.3 0.7-0.6 1-0.6 1-0.5 0.7-1.5 0.9-2.2 0.4-0.3-0.3-0.6-0.6-0.6-1v-0.1c0 0-0.1-0.4-0.2-1.1 0-0.8-0.1-1.8-0.1-3 0-2.5 0.2-5.7 0.7-8.9 0.5-3.2 1.3-6.4 2.1-8.7 0.4-1.2 0.8-2.2 1.1-2.8 0.3-0.7 0.5-1.1 0.5-1.1 0.5-0.9 1.6-1.2 2.5-0.7 0.5 0.3 0.7 0.7 0.9 1.2z"/>
						<path id="&lt;Path&gt;" class="s0" d="m-926.9 85.6c0 0 0.6-0.1 1.8-0.1q0.8-0.1 2.1-0.1 1.3 0 3 0c2.2 0 4.9 0.2 8 0.6 3 0.5 6.5 1.1 10.1 2.3 3.7 1.1 7.6 2.5 11.5 4.5 4 2 8 4.3 11.9 7.1 3.9 2.8 7.7 5.9 11.2 9.5 3.6 3.5 6.9 7.4 10 11.4 3 4.1 5.7 8.4 8.1 12.8 2.4 4.4 4.4 8.9 6 13.3 0.4 1.2 0.8 2.3 1.2 3.4q0.5 1.6 1 3.3 0.5 1.6 0.9 3.3c0.3 1.1 0.5 2 0.8 3.1 0.4 2.2 0.8 4.2 1.2 6.2q0.4 3 0.8 5.8c0.4 3.7 0.6 7.2 0.7 10.2 0.1 3 0.1 5.7 0 7.8 0 2.2-0.2 3.9-0.2 5.1-0.1 1.1-0.2 1.7-0.2 1.7-0.1 1.1-1 1.8-2 1.8-0.9-0.1-1.6-0.9-1.7-1.8 0 0-0.2-2.4-0.6-6.6-0.3-2.1-0.6-4.6-1-7.5-0.4-2.9-1-6.1-1.7-9.6q-0.5-2.6-1.2-5.4-0.8-2.9-1.5-5.7c-0.6-2-1.3-4-2-6q-0.5-1.5-1-3c-0.4-1-0.9-2-1.3-3-1.6-4.1-3.7-8.1-5.9-12.1-2.3-4.1-4.9-8-7.6-11.7-2.8-3.8-5.8-7.3-9-10.6-3.2-3.2-6.6-6.3-10.1-8.9-3.4-2.6-6.9-5-10.4-7-3.5-1.9-6.9-3.5-10.1-4.8-3.3-1.2-6.4-2.1-9.1-2.9-2.8-0.6-5.2-1.1-7.2-1.4q-1.5-0.2-2.7-0.4-1.3-0.1-2.1-0.2c-1.2-0.1-1.8-0.1-1.8-0.1-1.2-0.1-2-1.2-1.9-2.4 0.1-1 0.9-1.9 2-1.9z"/>
					</g>
				</g>
				<g id="&lt;Group&gt;">
					<path id="&lt;Compound Path&gt;" fill-rule="evenodd" class="s0" d="m-625.7 302.9h-89c-7.6 0-14.8-2.9-20.2-8.3-5.4-5.4-8.3-12.6-8.3-20.2v-169.4c0-19.4 7.6-37.8 21.3-51.6 13.8-13.8 32.2-21.4 51.7-21.4 19.5 0 37.8 7.6 51.6 21.4 13.8 13.8 21.4 32.1 21.4 51.6v169.4c0 7.6-3 14.8-8.4 20.2-5.4 5.4-12.5 8.3-20.1 8.3zm-44.5-265.9c-18.2 0-35.3 7.1-48.1 20-12.9 12.8-19.9 29.9-19.9 48v169.4c0 6.3 2.4 12.2 6.9 16.6 4.4 4.5 10.3 6.9 16.6 6.9h89c6.2 0 12.1-2.4 16.6-6.9 4.4-4.4 6.9-10.3 6.9-16.6v-169.4c0-18.1-7.1-35.2-20-48-12.8-12.9-29.9-20-48-20z"/>
					<path id="&lt;Path&gt;" class="s0" d="m-649.7 155.1q0.4 0.5 0.4 1.2v72.1 72c0 0.6-0.2 1.1-0.6 1.4-0.4 0.4-0.9 0.6-1.4 0.6-0.6 0-1.1-0.2-1.4-0.6-0.4-0.3-0.6-0.8-0.6-1.4v-69.2-69.3l-4.6 5.6-4.5 5.6q0 0 0 0.1-0.1 0-0.1 0 0 0-0.1 0.1-0.1 0.1-0.1 0.1 0 0-0.1 0.1 0 0-0.1 0 0 0 0 0.1-0.1 0-0.1 0-0.1 0-0.1 0.1-0.1 0-0.1 0 0 0-0.1 0 0 0-0.1 0.1 0 0-0.1 0 0 0-0.1 0-0.1 0-0.2 0 0 0-0.1 0 0 0 0 0.1 0 0-0.1 0 0-0.1 0-0.1-0.1 0-0.2 0 0 0-0.1 0 0 0-0.1 0-0.1 0-0.1 0-0.1-0.1-0.1-0.1-0.1 0-0.1 0-0.1 0-0.1 0-0.1-0.1-0.1-0.1 0 0-0.1 0 0-0.1-0.1-0.1 0 0-0.1 0 0-0.1 0-0.1 0 0-0.1 0 0 0 0-0.1 0 0-0.1 0 0-0.1 0-0.1-0.1 0-0.1-0.1 0 0-0.1-0.1 0-0.1-0.1-0.1 0-0.1 0-0.1 0 0-0.1-0.1 0 0 0-0.1 0 0 0-0.1-0.1 0-0.1-0.1 0 0 0-0.1 0-0.1 0-0.1 0-0.1 0-0.1-0.1-0.1-0.1-0.1 0-0.1 0-0.1v-5-5l-4.5 5.6-4.6 5.6q0 0.1 0 0.1-0.1 0-0.1 0.1-0.1 0-0.1 0.1 0 0-0.1 0 0 0 0 0.1-0.1 0-0.2 0 0 0.1-0.1 0.1-0.1 0.1-0.1 0.1-0.1 0-0.1 0-0.1 0.1-0.2 0.1-0.1 0-0.1 0-0.1 0-0.2 0-0.1 0.1-0.2 0.1-0.1 0-0.2-0.1-0.1 0-0.2 0-0.1 0-0.1 0-0.1 0-0.1 0-0.1-0.1-0.1-0.1-0.1 0-0.1 0 0 0-0.1 0 0-0.1-0.1-0.1 0 0-0.1 0 0-0.1 0-0.1-0.1 0-0.1 0 0-0.1 0-0.1-0.1 0-0.1 0 0 0 0-0.1-0.1 0-0.1 0-0.1-0.1-0.1-0.1 0 0-0.1-0.1 0 0 0-0.1 0 0-0.1 0 0-0.1 0-0.1 0-0.1-0.1-0.1 0 0 0-0.1 0 0-0.1-0.1 0 0 0-0.1 0 0 0-0.1 0 0 0-0.1-0.1 0-0.1 0 0-0.1 0-0.1 0-0.1 0-0.1 0-0.1 0-0.1 0-0.1 0-0.1v-4.9-4.8l-4.3 5.6-4.3 5.5v63.6 63.5c0 0.6-0.2 1.1-0.5 1.4q-0.6 0.6-1.5 0.6c-0.5 0-1-0.2-1.4-0.6-0.3-0.3-0.6-0.8-0.6-1.4v-63.9-63.8q0-0.4 0.1-0.7 0.2-0.3 0.4-0.6l6.2-8.1 6.3-8.2q0.4-0.5 1-0.7 0.6-0.2 1.2 0 0.6 0.2 1 0.7 0.4 0.5 0.4 1.2v5 4.9l4.5-5.6 4.6-5.6q0.4-0.5 1-0.6 0.6-0.2 1.2 0 0.6 0.2 1 0.7 0.3 0.5 0.3 1.2v5 4.9l4.6-5.6 4.5-5.6q0.5-0.5 1-0.6 0.6-0.2 1.3 0 0.6 0.2 0.9 0.7z"/>
					<g id="&lt;Group&gt;">
						<path id="&lt;Compound Path&gt;" fill-rule="evenodd" class="s0" d="m-625.8 316.4h-88.9c-1.4 0-2.5-1.2-2.5-2.5v-13.5c0-1.4 1.1-2.5 2.5-2.5h88.9c1.4 0 2.5 1.1 2.5 2.5v13.5c0 1.3-1.1 2.5-2.5 2.5zm-86.4-5h83.9v-8.5h-83.9z"/>
						<path id="&lt;Compound Path&gt;" fill-rule="evenodd" class="s0" d="m-625.8 329.8h-88.9c-1.4 0-2.5-1.1-2.5-2.5v-13.4c0-1.4 1.1-2.5 2.5-2.5h88.9c1.4 0 2.5 1.1 2.5 2.5v13.4c0 1.4-1.1 2.5-2.5 2.5zm-86.4-5h83.9v-8.4h-83.9z"/>
						<path id="&lt;Compound Path&gt;" fill-rule="evenodd" class="s0" d="m-625.8 343.3h-88.9c-1.4 0-2.5-1.2-2.5-2.5v-13.5c0-1.4 1.1-2.5 2.5-2.5h88.9c1.4 0 2.5 1.1 2.5 2.5v13.5c0 1.3-1.1 2.5-2.5 2.5zm-86.4-5h83.9v-8.5h-83.9z"/>
						<path id="&lt;Compound Path&gt;" fill-rule="evenodd" class="s0" d="m-625.8 356.7h-88.9c-1.4 0-2.5-1.1-2.5-2.5v-13.4c0-1.4 1.1-2.5 2.5-2.5h88.9c1.4 0 2.5 1.1 2.5 2.5v13.4c0 1.4-1.1 2.5-2.5 2.5zm-86.4-5h83.9v-8.4h-83.9z"/>
						<g id="&lt;Group&gt;">
							<path id="&lt;Path&gt;" class="s0" d="m-670.2 354.2h4.4 20 20c0 2.5-0.8 4.9-2.3 7-1.5 2.1-3.7 3.9-6.4 5.2l-7.2 4.1-7.3 4.2q-0.9 0.5-1.8 0.9-1 0.4-2 0.7-0.6 0.2-1.2 0.3-0.5 0.2-1.1 0.3-0.9 0.1-1.7 0.2-0.8 0-1.7 0h-1.9-1.9-7.5-7.5-1.9-1.9q-1 0-2-0.1-1-0.1-2-0.2-0.9-0.2-1.8-0.5-0.9-0.3-1.7-0.6-0.4-0.2-0.8-0.4-0.4-0.1-0.7-0.3l-8-4.3-7.9-4.3c-2.7-1.3-4.9-3.1-6.4-5.2-1.5-2.1-2.3-4.5-2.3-7h20 20z"/>
							<path id="&lt;Compound Path&gt;" fill-rule="evenodd" class="s0" d="m-658.5 379.6h-22.6q-1.2 0-2.3-0.1-1.1-0.1-2.2-0.3-1-0.2-2-0.5-1-0.3-2-0.7-0.4-0.2-0.9-0.4-0.4-0.2-0.8-0.4l-15.8-8.6c-3-1.4-5.5-3.4-7.3-5.9-1.8-2.6-2.8-5.5-2.8-8.5 0-1.4 1.1-2.5 2.5-2.5h88.9c1.4 0 2.5 1.1 2.5 2.5 0 3-0.9 5.9-2.8 8.5-1.7 2.4-4.2 4.5-7.2 5.9l-14.4 8.2q-1.1 0.6-2.1 1.1-1.2 0.5-2.3 0.8-0.7 0.2-1.3 0.4-0.7 0.1-1.3 0.2-1 0.2-1.9 0.3-0.9 0-1.9 0zm-53.3-22.9q0.4 1.6 1.5 3.1c1.2 1.8 3.1 3.3 5.3 4.3q0.1 0 0.2 0.1l15.9 8.6q0.3 0.1 0.6 0.3 0.3 0.2 0.6 0.3 0.7 0.3 1.5 0.5 0.8 0.2 1.6 0.4 0.8 0.2 1.7 0.3 0.9 0 1.8 0c0.5 0 23.6 0 24.1 0q0.7-0.1 1.5-0.2 0.5-0.1 1-0.2 0.5-0.1 1-0.3 0.8-0.2 1.6-0.6 0.8-0.3 1.7-0.8l14.5-8.3q0.1 0 0.2-0.1c2.2-1 4.1-2.5 5.4-4.3q1-1.5 1.5-3.1z"/>
						</g>
						<path id="&lt;Compound Path&gt;" fill-rule="evenodd" class="s0" d="m-669.8 393.6c-10.8 0-19.6-8.8-19.6-19.6 0-10.7 8.8-19.5 19.6-19.5 10.8 0 19.6 8.8 19.6 19.5 0 10.8-8.8 19.6-19.6 19.6zm0-34.1c-8 0-14.6 6.5-14.6 14.5 0 8.1 6.6 14.6 14.6 14.6 8 0 14.6-6.5 14.6-14.6 0-8-6.6-14.5-14.6-14.5z"/>
					</g>
					<g id="&lt;Group&gt;">
						<path id="&lt;Path&gt;" class="s0" d="m-617.8 135.3c0 0 0.2 0.3 0.3 0.8 0.1 0.5 0.3 1.2 0.4 2 0.2 1.7 0.2 4-0.2 6.1q-0.1 0.9-0.3 1.7-0.2 0.8-0.4 1.5c-0.4 1-0.8 2-1.2 2.8-0.8 1.5-1.8 2.4-1.8 2.4-0.6 0.7-1.7 0.7-2.4 0q-0.2-0.2-0.4-0.6v-0.1c0 0-0.1-0.3-0.2-0.8-0.1-0.5-0.3-1.2-0.4-2-0.2-1.7-0.1-3.8 0.2-6 0.3-2.1 1-4.2 1.7-5.8 0.3-0.7 0.7-1.4 1-1.8 0.2-0.5 0.4-0.7 0.4-0.7 0.7-0.9 1.9-1 2.8-0.3q0.4 0.3 0.5 0.8z"/>
						<path id="&lt;Path&gt;" class="s0" d="m-677.8 49q0.1 0 1.2-0.1c0.8-0.1 1.9-0.2 3.3-0.2q0.3 0 0.6 0 0.3 0 0.6 0 0.7 0 1.4 0.1 1.4 0.1 3 0.2c1.1 0.1 2.2 0.4 3.4 0.6q0.8 0.1 1.8 0.3c0.6 0.1 1.2 0.4 1.8 0.5 1.3 0.4 2.6 0.8 3.9 1.3 1.3 0.5 2.7 1.1 4.1 1.7 1.3 0.6 2.7 1.4 4.1 2.2 1.4 0.7 2.7 1.7 4 2.6 2.7 1.8 5.4 4 7.8 6.4 2.4 2.4 4.7 5.1 6.8 7.8 1.1 1.4 2 2.9 2.9 4.3 1 1.5 1.8 3 2.6 4.5 0.9 1.5 1.6 3 2.3 4.5 0.7 1.6 1.2 3.1 1.8 4.6 0.3 0.8 0.6 1.5 0.8 2.3q0.3 1.2 0.6 2.3 0.3 1.1 0.6 2.2c0.2 0.8 0.4 1.4 0.5 2.2 0.3 1.5 0.6 2.9 0.8 4.2q0.3 2.1 0.4 4c0.3 2.5 0.4 4.8 0.4 6.9 0 2-0.1 3.8-0.2 5.3 0 1.5-0.2 2.6-0.3 3.4q-0.1 1.2-0.1 1.2c-0.1 1-1.1 1.8-2.1 1.6-0.9-0.1-1.5-0.8-1.6-1.6 0 0-0.3-1.6-0.6-4.4q-0.3-2.1-0.8-5-0.5-2.9-1.3-6.4-0.4-1.7-0.9-3.5c-0.3-1.3-0.7-2.5-1.1-3.8-0.2-0.6-0.4-1.3-0.6-1.9q-0.4-1-0.8-2-0.3-0.9-0.7-1.9c-0.2-0.7-0.5-1.3-0.8-2-0.6-1.3-1.2-2.7-1.9-4-0.7-1.3-1.3-2.7-2.1-3.9-0.8-1.3-1.5-2.7-2.4-3.9-0.8-1.3-1.6-2.6-2.6-3.8-0.9-1.2-1.8-2.5-2.9-3.6-1-1.1-1.9-2.3-3-3.3-2.1-2.2-4.3-4.1-6.5-5.9q-0.9-0.7-1.7-1.3c-0.6-0.4-1.1-0.9-1.7-1.2-1.1-0.7-2.2-1.5-3.3-2.2-1.2-0.6-2.3-1.2-3.4-1.8-1.1-0.5-2.2-0.9-3.2-1.4-0.6-0.2-1.1-0.5-1.6-0.7q-0.8-0.2-1.5-0.5c-1-0.3-1.9-0.7-2.8-0.9q-1.3-0.3-2.5-0.6-0.6-0.1-1.1-0.3-0.3 0-0.5-0.1-0.3 0-0.6-0.1c-1.4-0.2-2.5-0.3-3.3-0.5q-1.1-0.1-1.1-0.1c-1.2-0.2-2-1.3-1.8-2.5 0.1-1 1-1.8 1.9-1.8z"/>
					</g>
				</g>
				<g id="&lt;Group&gt;">
					<path id="&lt;Compound Path&gt;" fill-rule="evenodd" class="s0" d="m-361.4 308.8h-82.6c-0.8 0-1.6-0.4-2.1-1.1-0.2-0.3-18.5-29.2-36-65-23.7-48.2-34.6-85.5-32.6-110.7 2.3-27.8 15.1-45.9 39-55.4 20.4-8.1 46.1-8.9 72.9-9.1q0 0 0.1 0h0.1c26.8 0.2 52.5 1 72.9 9.1 23.9 9.5 36.7 27.6 38.9 55.4 2.1 25.2-8.8 62.5-32.5 110.7-17.5 35.8-35.8 64.7-36 65-0.5 0.7-1.3 1.1-2.1 1.1zm-81.2-5h79.8c3.6-5.7 19.6-31.8 35-63.3 22.9-46.7 34-84.1 32.1-108.1-2.1-25.7-13.9-42.4-35.9-51.1-19.5-7.8-44.8-8.6-71.1-8.8-26.4 0.2-51.6 1-71.2 8.8-22 8.7-33.7 25.4-35.8 51.1-1.9 24 9.1 61.4 32.1 108.1 15.4 31.5 31.4 57.6 35 63.3z"/>
					<path id="&lt;Path&gt;" class="s0" d="m-383.6 171.4q0.3 0.5 0.3 1.1v66.9 66.9c0 0.5-0.2 1-0.5 1.3-0.4 0.4-0.8 0.6-1.3 0.6-0.6 0-1-0.2-1.4-0.6-0.3-0.3-0.5-0.8-0.5-1.3v-64.3-64.3l-4.2 5.2-4.2 5.2q-0.1 0-0.1 0 0 0 0 0.1 0 0-0.1 0 0 0.1 0 0.1-0.1 0-0.1 0.1 0 0-0.1 0 0 0-0.1 0.1-0.1 0-0.1 0.1-0.1 0-0.1 0 0 0-0.1 0 0 0 0 0.1-0.1 0-0.1 0-0.1 0-0.1 0-0.1 0-0.1 0-0.1 0-0.1 0.1 0 0-0.1 0 0 0-0.1 0-0.1 0-0.1 0 0 0-0.1 0 0 0-0.1 0 0 0-0.1 0 0-0.1 0-0.1-0.1 0-0.1 0-0.1 0-0.1 0-0.1 0-0.1 0 0 0-0.1-0.1 0 0-0.1 0 0 0-0.1 0 0-0.1 0-0.1-0.1 0-0.1 0-0.1-0.1-0.1-0.1 0 0-0.1 0 0-0.1 0-0.1-0.1 0-0.1-0.1 0 0-0.1 0 0-0.1 0-0.1 0 0-0.1-0.1 0-0.1-0.1-0.1 0-0.1 0-0.1 0 0-0.1-0.1 0 0 0-0.1 0-0.1-0.1-0.1 0-0.1 0-0.1 0-0.1 0-0.1 0 0 0-0.1 0 0 0-0.1 0 0 0-0.1 0-0.1 0-0.1v-4.6-4.6l-4.3 5.2-4.2 5.2q0 0 0 0.1-0.1 0-0.1 0-0.1 0.1-0.1 0.1-0.1 0.1-0.1 0.1-0.1 0.1-0.1 0.1-0.1 0-0.2 0.1 0 0-0.1 0 0 0-0.1 0.1-0.1 0-0.2 0-0.1 0.1-0.2 0.1-0.1 0-0.2 0-0.1 0-0.2 0-0.1 0-0.2-0.1-0.1 0-0.1 0 0 0-0.1 0-0.1 0-0.1 0 0-0.1-0.1-0.1-0.1 0-0.1-0.1-0.1 0-0.1 0 0 0-0.1 0 0-0.1 0-0.1 0 0-0.1 0 0-0.1 0-0.1-0.1 0-0.1 0 0 0 0-0.1-0.1 0-0.1 0 0-0.1-0.1-0.1 0 0 0-0.1 0 0-0.1 0 0-0.1 0-0.1 0-0.1-0.1-0.1 0 0 0-0.1 0 0 0-0.1-0.1 0-0.1 0 0-0.1 0-0.1 0-0.1 0-0.1 0-0.1 0-0.1-0.1 0-0.1-0.1 0 0 0-0.1 0 0 0-0.1 0-0.1 0-0.1v-4.5-4.5l-4 5.2-3.9 5.2v59 59c0 0.5-0.2 1-0.6 1.3-0.3 0.4-0.8 0.6-1.3 0.6-0.5 0-1-0.2-1.3-0.6-0.3-0.3-0.5-0.8-0.5-1.3v-59.3-59.3q0-0.3 0.1-0.6 0.1-0.3 0.2-0.6l5.9-7.6 5.8-7.6q0.4-0.4 0.9-0.6 0.6-0.2 1.2 0 0.5 0.2 0.9 0.7 0.3 0.5 0.3 1.1v4.6 4.6l4.2-5.2 4.3-5.2q0.4-0.5 0.9-0.6 0.6-0.2 1.1 0 0.6 0.2 0.9 0.7 0.4 0.5 0.4 1.1v4.6 4.6l4.2-5.2 4.2-5.2q0.4-0.5 1-0.6 0.5-0.2 1.1 0 0.5 0.2 0.9 0.7z"/>
					<g id="&lt;Group&gt;">
						<path id="&lt;Compound Path&gt;" fill-rule="evenodd" class="s0" d="m-361.1 321.4h-83.2c-1.4 0-2.5-1.1-2.5-2.5v-12.6c0-1.4 1.1-2.5 2.5-2.5h83.2c1.3 0 2.5 1.1 2.5 2.5v12.6c0 1.4-1.2 2.5-2.5 2.5zm-80.7-5h78.2v-7.6h-78.2z"/>
						<path id="&lt;Compound Path&gt;" fill-rule="evenodd" class="s0" d="m-361.1 334h-83.2c-1.4 0-2.5-1.2-2.5-2.5v-12.6c0-1.4 1.1-2.5 2.5-2.5h83.2c1.3 0 2.5 1.1 2.5 2.5v12.6c0 1.3-1.2 2.5-2.5 2.5zm-80.7-5h78.2v-7.6h-78.2z"/>
						<path id="&lt;Compound Path&gt;" fill-rule="evenodd" class="s0" d="m-361.1 346.5h-83.2c-1.4 0-2.5-1.1-2.5-2.5v-12.5c0-1.4 1.1-2.5 2.5-2.5h83.2c1.3 0 2.5 1.1 2.5 2.5v12.5c0 1.4-1.2 2.5-2.5 2.5zm-80.7-5h78.2v-7.5h-78.2z"/>
						<path id="&lt;Compound Path&gt;" fill-rule="evenodd" class="s0" d="m-361.1 359.1h-83.2c-1.4 0-2.5-1.1-2.5-2.5v-12.6c0-1.3 1.1-2.5 2.5-2.5h83.2c1.3 0 2.5 1.2 2.5 2.5v12.6c0 1.4-1.2 2.5-2.5 2.5zm-80.7-5h78.2v-7.6h-78.2z"/>
						<g id="&lt;Group&gt;">
							<path id="&lt;Path&gt;" class="s0" d="m-402.7 356.6h4.1 18.7 18.8c0 2.4-0.8 4.6-2.2 6.6-1.4 1.9-3.4 3.6-6 4.8l-6.8 3.9-6.7 3.8q-0.9 0.5-1.8 0.9-0.9 0.4-1.8 0.7-0.6 0.2-1.1 0.3-0.5 0.1-1.1 0.2-0.8 0.1-1.5 0.2-0.8 0.1-1.6 0.1h-1.8-1.8-7-7-1.8-1.8q-0.9 0-1.9-0.1-0.9-0.1-1.8-0.3-0.9-0.2-1.7-0.4-0.8-0.3-1.6-0.6-0.4-0.2-0.7-0.3-0.4-0.2-0.7-0.4l-7.4-4-7.5-4c-2.5-1.2-4.5-2.9-5.9-4.8-1.4-2-2.2-4.2-2.2-6.6h18.7 18.8z"/>
							<path id="&lt;Compound Path&gt;" fill-rule="evenodd" class="s0" d="m-391.7 380.6h-21.2q-1 0-2.1-0.1-1.1-0.2-2.1-0.4-1-0.2-1.9-0.4-1-0.3-1.9-0.7-0.4-0.2-0.8-0.4-0.4-0.2-0.8-0.4l-14.8-8c-2.8-1.3-5.2-3.2-6.8-5.6-1.8-2.4-2.7-5.2-2.7-8 0-1.4 1.1-2.5 2.5-2.5h83.2c1.3 0 2.5 1.1 2.5 2.5 0 2.8-1 5.6-2.7 8-1.6 2.3-4 4.3-6.8 5.6l-13.5 7.7q-1 0.6-2 1-1.1 0.5-2.1 0.8-0.6 0.2-1.3 0.3-0.6 0.2-1.2 0.3-0.9 0.1-1.7 0.2-0.9 0.1-1.8 0.1zm-49.7-21.5q0.4 1.4 1.3 2.6c1.2 1.7 2.9 3.1 5 4q0.1 0 0.1 0.1l14.9 8q0.3 0.2 0.6 0.3 0.3 0.2 0.6 0.3 0.6 0.3 1.3 0.5 0.7 0.2 1.5 0.3 0.8 0.2 1.6 0.3 0.8 0.1 1.6 0.1h21.2q0.7 0 1.3-0.1 0.7-0.1 1.4-0.2 0.5-0.1 1-0.2 0.4-0.1 0.9-0.2 0.7-0.2 1.5-0.6 0.7-0.3 1.5-0.7l13.6-7.8q0.1 0 0.2-0.1c2.1-0.9 3.8-2.3 4.9-4q0.9-1.2 1.4-2.6z"/>
						</g>
						<g id="&lt;Group&gt;">
							<path id="&lt;Path&gt;" class="s0" d="m-386.3 375.2c0 8.8-7.2 15.9-16 15.9-8.8 0-16-7.1-16-15.9 0-8.9 7.2-16 16-16 8.8 0 16 7.1 16 16z"/>
							<path id="&lt;Compound Path&gt;" fill-rule="evenodd" class="s0" d="m-402.3 393.6c-10.2 0-18.5-8.3-18.5-18.4 0-10.2 8.3-18.5 18.5-18.5 10.2 0 18.5 8.3 18.5 18.5 0 10.1-8.3 18.4-18.5 18.4zm0-31.9c-7.4 0-13.5 6-13.5 13.5 0 7.4 6.1 13.4 13.5 13.4 7.4 0 13.5-6 13.5-13.4 0-7.5-6.1-13.5-13.5-13.5z"/>
						</g>
					</g>
					<g id="&lt;Group&gt;">
						<path id="&lt;Path&gt;" class="s0" d="m-309.5 164.9c0 0 0.1 0.3 0.2 0.8 0.2 0.4 0.3 1.1 0.4 1.9 0.2 1.5 0.2 3.6-0.3 5.6q-0.1 0.8-0.3 1.5-0.2 0.7-0.5 1.4c-0.3 0.9-0.8 1.8-1.2 2.5-0.8 1.4-1.8 2.2-1.8 2.2-0.7 0.6-1.8 0.5-2.5-0.2q-0.2-0.2-0.3-0.5v-0.1c0 0-0.1-0.3-0.2-0.8-0.1-0.4-0.2-1.1-0.3-1.9-0.2-1.5-0.1-3.5 0.3-5.4 0.3-2 1-3.9 1.7-5.3 0.4-0.7 0.7-1.3 1-1.7 0.3-0.4 0.5-0.6 0.5-0.6 0.8-0.8 2-0.8 2.8-0.1q0.3 0.3 0.5 0.7z"/>
						<path id="&lt;Path&gt;" class="s0" d="m-375.3 85.8q0.1 0 1.2-0.1c0.8-0.1 1.9-0.2 3.3-0.2q0.6-0.1 1.2-0.1 0.6 0 1.3 0.1 1.3 0 2.9 0.1c0.6 0 1.1 0 1.7 0.1q0.8 0.1 1.7 0.2 1.7 0.3 3.6 0.6c2.5 0.6 5.3 1.1 8 2.2q1.1 0.4 2.2 0.8c0.7 0.2 1.4 0.6 2.1 0.9 1.4 0.6 2.9 1.2 4.3 2 1.4 0.8 2.9 1.5 4.3 2.5 1.4 0.9 2.8 1.8 4.2 2.8 1.3 1.1 2.7 2.1 4 3.3 1.2 1.1 2.5 2.3 3.7 3.5 1.2 1.3 2.4 2.6 3.5 3.9 1.1 1.3 2.2 2.7 3.2 4.1 0.9 1.4 1.9 2.8 2.7 4.2 0.8 1.5 1.6 2.9 2.4 4.4 0.6 1.5 1.3 2.9 1.9 4.4q0.7 2.2 1.4 4.4c0.2 0.7 0.4 1.3 0.6 2q0.3 1.1 0.5 2.1 0.4 2.1 0.7 4 0.5 3.7 0.6 6.9c0.1 2.1 0 3.8-0.1 5.3 0 1.5-0.1 2.6-0.2 3.4q-0.2 1.2-0.2 1.2c-0.1 1-1 1.8-2.1 1.6-0.8-0.1-1.5-0.7-1.6-1.6q0 0-0.2-1.2-0.1-1.1-0.4-3.2-0.4-2-0.9-4.8c-0.4-1.9-0.9-4-1.5-6.2q-0.5-1.7-1.1-3.5-0.3-0.9-0.6-1.7c-0.2-0.6-0.5-1.3-0.7-1.9q-0.8-1.8-1.6-3.6-1-1.9-2-3.7c-0.7-1.3-1.5-2.5-2.2-3.7-0.9-1.2-1.7-2.4-2.6-3.6-0.9-1.2-1.9-2.4-2.8-3.5-1-1.2-2.1-2.3-3.1-3.4-1.1-1.1-2.2-2.1-3.3-3.1-1.1-1-2.3-2-3.4-2.9-1.2-0.9-2.4-1.8-3.6-2.6-0.6-0.5-1.2-0.8-1.8-1.2q-0.9-0.6-1.8-1.2l-0.9-0.6-1-0.4q-0.9-0.6-1.8-1c-0.6-0.4-1.2-0.7-1.8-1q-0.9-0.4-1.8-0.8c-2.4-1.1-4.8-1.9-6.9-2.7-1.1-0.3-2.2-0.6-3.2-0.9q-0.8-0.2-1.5-0.4c-0.5-0.2-0.9-0.2-1.4-0.3q-1.3-0.3-2.5-0.6-0.6-0.1-1.1-0.2-0.6-0.1-1.2-0.2c-1.4-0.2-2.5-0.3-3.2-0.4q-1.2-0.2-1.2-0.2c-1.2-0.2-2-1.3-1.8-2.5 0.1-1 1-1.7 1.9-1.8z"/>
					</g>
				</g>
				<g id="&lt;Group&gt;">
					<g id="&lt;Group&gt;">
						<path id="&lt;Compound Path&gt;" fill-rule="evenodd" class="s0" d="m198.4 249.9h-132.1c-1.1 0-2-0.7-2.4-1.7 0-0.2-5.6-17.5-12.1-40-6-20.8-14.1-50.4-18.5-73.2-4.1-20.9 2.9-40 20.2-55.3 13.9-12.4 34.2-21.7 55.7-25.6 0.5-0.4 1.6-1.2 3-2.5 1.8-1.8 4.4-4.8 6.1-9.3 0.9-2.3 2.1-4.4 3.5-6.1q1.8-2.1 4.2-3.7c1.8-1.2 4.1-1.9 6.3-1.9 2.3 0 4.5 0.7 6.4 1.9q2.3 1.6 4.1 3.7c1.5 1.7 2.7 3.8 3.5 6.1 1.8 4.5 4.3 7.5 6.2 9.3 1.3 1.3 2.5 2.1 3 2.5 21.5 3.9 41.7 13.2 55.7 25.6 17.2 15.3 24.2 34.4 20.2 55.3-4.4 22.8-12.5 52.4-18.5 73.2-6.5 22.5-12.1 39.8-12.2 40-0.3 1-1.2 1.7-2.3 1.7zm-130.3-5h128.4c1.6-4.9 6.3-19.8 11.6-38.1 6-20.7 14-50.1 18.4-72.8 4.6-24-7.6-40.8-18.6-50.6-13.4-11.9-33-20.8-53.7-24.5q-0.4-0.1-0.7-0.3c-0.3-0.1-2.1-1.1-4.5-3.4-3.1-3-5.7-6.9-7.3-11.1q-1.1-2.7-2.7-4.7-1.3-1.6-3-2.7c-2.2-1.4-5.1-1.4-7.3 0q-1.7 1.1-3 2.7-1.7 2-2.7 4.7c-1.7 4.2-4.2 8.1-7.3 11.1-2.4 2.3-4.3 3.3-4.5 3.4q-0.3 0.2-0.7 0.3c-20.7 3.7-40.3 12.6-53.7 24.5-11 9.8-23.3 26.6-18.6 50.6 4.3 22.7 12.4 52.1 18.4 72.8 5.3 18.3 10 33.2 11.5 38.1z"/>
					</g>
					<g id="&lt;Group&gt;">
						<path id="&lt;Path&gt;" class="s0" d="m123.6 249.1q0 0-0.1 0c-0.6 0-1.1-0.3-1.5-0.7-0.4-0.4-0.6-0.9-0.5-1.5 0.8-16.9 0.6-33.7-0.5-50.5-1-16.8-3.1-33.4-6-49.9-0.3-1.7-0.7-3.3-1.1-4.8-0.4-1.4-0.8-2.8-1.5-4-0.6-1.1-1.4-2-2.2-2.6-0.9-0.6-1.7-0.8-2.4-0.7-0.9 0.2-1.7 0.9-2.4 2-0.7 1-1.3 2.4-1.6 3.9-0.2 1.7-0.3 3.4-0.1 5.2 0.1 1.7 0.3 3.4 0.6 5.2l7 47.6 7 47.7c0.1 0.6 0 1.1-0.4 1.5-0.3 0.5-0.8 0.8-1.3 0.9-0.6 0.1-1.2-0.1-1.6-0.4-0.5-0.3-0.8-0.8-0.9-1.4l-7-47.7-7-47.6c-0.3-1.8-0.5-3.7-0.7-5.7-0.1-2-0.1-4 0.3-6 0.3-2 1.1-4.2 2.3-5.9 1.3-1.7 2.9-3.1 4.9-3.5 1.7-0.3 3.5 0.1 5 1 1.6 0.9 3.1 2.4 4.2 4.4 0.8 1.5 1.4 3.1 1.9 4.8 0.5 1.8 0.8 3.6 1.1 5.4 3 16.6 5.1 33.4 6.2 50.3 1.1 17 1.2 34 0.4 51 0 0.5-0.3 1.1-0.7 1.4-0.3 0.4-0.9 0.6-1.4 0.6z"/>
						<path id="&lt;Path&gt;" class="s0" d="m140.8 249.1q-0.9 0-1.5-0.6c-0.3-0.3-0.6-0.9-0.6-1.4-0.8-17-0.7-34 0.4-51 1.1-16.9 3.2-33.7 6.2-50.3 0.3-1.8 0.6-3.6 1.1-5.4 0.5-1.7 1.1-3.3 1.9-4.8 1.1-2 2.6-3.5 4.1-4.4 1.6-0.9 3.4-1.3 5-1 2.1 0.4 3.7 1.8 4.9 3.5 1.3 1.7 2.1 3.9 2.4 5.9 0.4 2 0.4 4 0.3 6-0.2 2-0.4 3.9-0.7 5.7l-7 47.6-7 47.7c-0.1 0.6-0.4 1.1-0.9 1.4-0.4 0.3-1 0.5-1.6 0.4-0.5-0.1-1-0.4-1.4-0.9-0.3-0.4-0.4-0.9-0.4-1.5l7.1-47.7 7-47.6c0.2-1.8 0.5-3.5 0.6-5.2 0.1-1.8 0.1-3.5-0.2-5.2-0.2-1.5-0.8-2.9-1.5-3.9-0.7-1.1-1.5-1.8-2.4-2-0.7-0.1-1.6 0.1-2.4 0.7-0.8 0.6-1.6 1.5-2.2 2.6-0.7 1.2-1.2 2.6-1.6 4-0.4 1.5-0.7 3.1-1 4.8-2.9 16.5-5 33.1-6 49.9-1.1 16.8-1.3 33.6-0.5 50.5 0.1 0.6-0.2 1.1-0.5 1.5-0.4 0.4-0.9 0.7-1.5 0.7q-0.1 0-0.1 0z"/>
						<path id="&lt;Path&gt;" class="s0" d="m141.6 193.5q0 0-0.1 0c-0.6 0-1.1-0.3-1.5-0.7-0.4-0.4-0.6-1-0.5-1.6 0 0 0.2-3.9 0.4-9.7 0.2-5.8 0.3-13.5 0.2-21.3-0.3-14.7-1.5-22.5-2.7-26.6-1.2-4.1-2.3-4.5-2.4-4.5q-1-0.3-1.9-0.2-0.8 0.1-1.5 0.7c-3.5 2.7-5.2 12.1-6.1 23.9-0.9 11.8-0.8 25.9-0.6 37.8 0 0.6-0.2 1.2-0.6 1.5-0.3 0.4-0.9 0.7-1.5 0.7q-0.9 0-1.5-0.6-0.6-0.6-0.6-1.5c-0.4-20.5 0-35.5 1.3-46 1.4-10.6 3.6-16.6 7-19.1q1.5-1.2 3.3-1.5 1.8-0.4 3.8 0.2c1.8 0.5 3.7 1.9 5.3 7 1.5 5 2.7 13.5 2.9 28.2 0.2 7.8 0 15.6-0.2 21.4-0.2 5.9-0.4 9.8-0.4 9.9 0 0.6-0.3 1.1-0.7 1.4-0.3 0.4-0.9 0.6-1.4 0.6z"/>
					</g>
					<path id="&lt;Compound Path&gt;" fill-rule="evenodd" class="s0" d="m177.6 303.6h-90.5c-0.9 0-1.8-0.6-2.2-1.4 0-0.1-1.5-3-4.1-7.2-2.4-4-6.3-9.8-11.3-15.2-1.8-1.9-3.3-4.2-4.2-6.7-1-2.6-1.5-5.2-1.5-7.9v-17.8c0-1.4 1.1-2.5 2.5-2.5h132.1c1.3 0 2.5 1.1 2.5 2.5v17.8c0 2.7-0.5 5.3-1.5 7.9-1 2.5-2.4 4.8-4.2 6.7-5 5.4-8.9 11.2-11.3 15.2-2.6 4.2-4.1 7.1-4.1 7.2-0.4 0.8-1.3 1.4-2.2 1.4zm-88.9-5h87.3c0.7-1.4 1.9-3.6 3.6-6.3 2.5-4.1 6.7-10.2 11.9-15.9q2.1-2.2 3.2-5.2 1.2-2.9 1.2-6v-15.3h-127.1v15.3q0 3.1 1.1 6 1.2 3 3.3 5.2c5.2 5.7 9.3 11.8 11.9 15.9 1.6 2.7 2.9 4.9 3.6 6.3z"/>
					<g id="&lt;Group&gt;">
						<path id="&lt;Compound Path&gt;" fill-rule="evenodd" class="s0" d="m176.5 316.9h-88.3c-1.4 0-2.5-1.1-2.5-2.5v-13.3c0-1.4 1.1-2.5 2.5-2.5h88.3c1.4 0 2.5 1.1 2.5 2.5v13.3c0 1.4-1.1 2.5-2.5 2.5zm-85.8-5h83.3v-8.3h-83.3z"/>
						<path id="&lt;Compound Path&gt;" fill-rule="evenodd" class="s0" d="m176.5 330.3h-88.3c-1.4 0-2.5-1.1-2.5-2.5v-13.4c0-1.4 1.1-2.5 2.5-2.5h88.3c1.4 0 2.5 1.1 2.5 2.5v13.4c0 1.4-1.1 2.5-2.5 2.5zm-85.8-5h83.3v-8.4h-83.3z"/>
						<path id="&lt;Compound Path&gt;" fill-rule="evenodd" class="s0" d="m176.5 343.6h-88.3c-1.4 0-2.5-1.1-2.5-2.5v-13.3c0-1.4 1.1-2.5 2.5-2.5h88.3c1.4 0 2.5 1.1 2.5 2.5v13.3c0 1.4-1.1 2.5-2.5 2.5zm-85.8-5h83.3v-8.3h-83.3z"/>
						<path id="&lt;Compound Path&gt;" fill-rule="evenodd" class="s0" d="m176.5 357h-88.3c-1.4 0-2.5-1.1-2.5-2.5v-13.4c0-1.4 1.1-2.5 2.5-2.5h88.3c1.4 0 2.5 1.1 2.5 2.5v13.4c0 1.4-1.1 2.5-2.5 2.5zm-85.8-5h83.3v-8.4h-83.3z"/>
						<g id="&lt;Group&gt;">
							<path id="&lt;Path&gt;" class="s0" d="m132.3 354.5h4.4 19.9 19.9c0 2.5-0.8 4.9-2.3 7-1.5 2-3.7 3.8-6.3 5.1l-7.3 4.1-7.2 4.1q-0.9 0.5-1.8 0.9-0.9 0.4-2 0.7-0.5 0.2-1.1 0.3-0.6 0.2-1.2 0.3-0.8 0.1-1.6 0.2-0.8 0-1.7 0h-1.9-1.9-7.4-7.5-1.9-1.9q-1 0-2-0.1-0.9 0-1.9-0.2-0.9-0.2-1.8-0.5-0.9-0.3-1.7-0.6-0.4-0.2-0.8-0.3-0.3-0.2-0.7-0.4l-7.9-4.3-7.9-4.2c-2.6-1.3-4.8-3.1-6.3-5.1-1.5-2.1-2.3-4.5-2.3-7h19.9 19.9z"/>
							<path id="&lt;Compound Path&gt;" fill-rule="evenodd" class="s0" d="m144 379.7h-22.5q-1.1 0-2.2-0.1-1.1-0.1-2.2-0.3-1-0.2-2-0.5-1-0.3-2-0.7-0.4-0.2-0.9-0.4-0.4-0.2-0.8-0.4l-15.7-8.5c-3-1.4-5.5-3.4-7.2-5.9-1.8-2.5-2.8-5.5-2.8-8.4 0-1.4 1.1-2.5 2.5-2.5h88.3c1.4 0 2.5 1.1 2.5 2.5 0 2.9-1 5.9-2.8 8.4-1.7 2.4-4.2 4.5-7.2 5.9l-14.3 8.2q-1.1 0.6-2.1 1-1.1 0.5-2.3 0.8-0.6 0.2-1.3 0.4-0.6 0.1-1.2 0.2-1 0.2-1.9 0.3-1 0-1.9 0zm-52.9-22.7q0.4 1.6 1.4 3c1.3 1.8 3.2 3.3 5.4 4.3q0 0 0.1 0.1l15.8 8.5q0.3 0.2 0.6 0.3 0.3 0.2 0.6 0.3 0.8 0.3 1.5 0.5 0.8 0.2 1.6 0.4 0.8 0.2 1.7 0.3 0.9 0 1.7 0c0.5 0 23.5 0 24 0q0.7-0.1 1.4-0.2 0.5-0.1 1.1-0.2 0.4-0.1 0.9-0.2 0.8-0.3 1.7-0.7 0.8-0.3 1.6-0.8l14.4-8.2q0.1-0.1 0.2-0.1c2.2-1 4.1-2.5 5.3-4.3q1.1-1.4 1.5-3z"/>
						</g>
						<path id="&lt;Compound Path&gt;" fill-rule="evenodd" class="s0" d="m132.8 393.6c-10.7 0-19.5-8.7-19.5-19.4 0-10.8 8.8-19.5 19.5-19.5 10.7 0 19.4 8.7 19.4 19.5 0 10.7-8.7 19.4-19.4 19.4zm0-33.9c-8 0-14.5 6.5-14.5 14.5 0 7.9 6.5 14.4 14.5 14.4 7.9 0 14.4-6.5 14.4-14.4 0-8-6.5-14.5-14.4-14.5z"/>
					</g>
					<g id="&lt;Group&gt;">
						<path id="&lt;Path&gt;" class="s0" d="m208.7 144.4c0 0 0.4 1.2 0.5 2.9 0.1 1.7 0 3.9-0.5 6q-0.2 0.8-0.5 1.6-0.2 0.8-0.5 1.5c-0.4 1-0.9 1.9-1.3 2.6-0.5 0.8-0.9 1.4-1.3 1.8q-0.6 0.6-0.6 0.6c-0.8 0.6-1.8 0.5-2.4-0.2q-0.3-0.3-0.4-0.6v-0.1c0 0-0.1-0.3-0.2-0.8-0.1-0.5-0.2-1.2-0.2-2-0.1-1.7 0.1-3.9 0.5-6 0.5-2.1 1.3-4.1 2.1-5.6 0.4-0.7 0.7-1.3 1.1-1.8 0.3-0.4 0.5-0.6 0.5-0.6 0.7-0.8 1.9-0.9 2.7-0.2q0.4 0.4 0.5 0.9z"/>
						<path id="&lt;Path&gt;" class="s0" d="m148.9 78.2q0 0 1-0.1c0.7 0 1.6-0.2 2.9-0.2 1.1-0.2 2.8-0.1 4.6-0.1 1.8 0 3.8 0.3 6 0.5 1.1 0.1 2.2 0.4 3.4 0.6 1.1 0.3 2.3 0.5 3.6 0.9 1.2 0.4 2.4 0.7 3.7 1.1q1.9 0.8 3.8 1.5c2.5 1.2 5.1 2.5 7.6 4 2.5 1.5 4.9 3.3 7.2 5.2 1.2 1 2.2 2 3.3 3.1 1.1 1 2 2.1 3 3.3 1 1 1.8 2.2 2.7 3.4 0.9 1.2 1.6 2.4 2.3 3.6 1.5 2.5 2.6 5 3.5 7.4q0.2 0.5 0.3 1l0.1 0.2 0.1 0.1v0.1l0.1 0.5c0.2 0.5 0.4 1.1 0.5 1.7q0.5 1.8 0.8 3.4c0.4 2.2 0.6 4.3 0.6 6 0.1 1.8 0.1 3.4 0 4.7 0 1.2-0.2 2.2-0.3 2.9q-0.1 1-0.1 1c-0.1 1.1-1.1 1.8-2.1 1.6-0.9-0.1-1.5-0.7-1.6-1.5v-0.1q0 0-0.2-1c-0.1-0.6-0.3-1.5-0.5-2.7-0.4-2.3-1.1-5.5-2.4-9.2q-0.4-1.4-1.1-2.8-0.3-0.7-0.6-1.5l-0.2-0.4v-0.1l-0.1-0.2q-0.2-0.3-0.4-0.7c-0.5-1-0.9-2-1.6-2.9-0.6-1-1.1-2-1.9-3-0.7-0.9-1.3-2-2.1-2.9-0.8-0.9-1.5-1.9-2.4-2.8-0.9-0.9-1.7-1.9-2.7-2.7-0.9-0.9-1.8-1.8-2.8-2.6-1-0.8-2-1.7-3-2.4-1.1-0.7-2.1-1.6-3.2-2.2-1-0.7-2-1.4-3.2-2-1.1-0.6-2.1-1.2-3.2-1.8q-1.6-0.8-3.2-1.5c-1.1-0.5-2.2-0.9-3.2-1.3-1-0.5-2.1-0.8-3.1-1.2-1-0.3-1.9-0.7-2.9-0.9-1.9-0.5-3.6-1.1-5.2-1.3-1.5-0.3-2.8-0.7-4.1-0.8-1.2-0.2-2.2-0.3-2.8-0.4q-1-0.2-1-0.2c-1.2-0.2-2-1.3-1.8-2.5 0.2-1 1-1.7 1.9-1.8z"/>
					</g>
				</g>
				<g id="&lt;Group&gt;">
					<path id="&lt;Compound Path&gt;" fill-rule="evenodd" class="s0" d="m442.4 308.8h-85.1c-1 0-1.8-0.5-2.3-1.4 0 0-1.3-2.8-3.8-6.8-2.3-3.7-6-9.1-10.6-14.2-1.8-1.9-3.1-4-4-6.4-1-2.4-1.4-4.9-1.4-7.5v-16.7c0-1.4 1.1-2.5 2.5-2.5h124.3c1.4 0 2.5 1.1 2.5 2.5v16.7c0 2.6-0.4 5.1-1.3 7.5-1 2.4-2.3 4.5-4 6.4-4.7 5.1-8.4 10.5-10.7 14.2-2.4 4-3.8 6.8-3.8 6.8-0.4 0.9-1.3 1.4-2.3 1.4zm-83.6-5h82.1c0.7-1.2 1.8-3.3 3.4-5.8 3.4-5.6 7.2-10.7 11.2-15q1.9-2.1 3-4.8 1-2.7 1-5.7v-14.2h-119.3v14.2q0 3 1 5.7 1.1 2.7 3 4.8c4 4.3 7.8 9.4 11.3 15 1.5 2.5 2.6 4.6 3.3 5.8z"/>
					<path id="&lt;Compound Path&gt;" fill-rule="evenodd" class="s0" d="m462 258.3h-124.3c-1.4 0-2.5-1.1-2.5-2.5v-23.3c0-3.3-1.5-7.2-4.8-13.2q-0.7-1.2-1.5-2.6c-1.3-2-2.7-4.3-4.7-7.5q-2-3-4.2-6.6c-3-4.6-6.5-9.9-10.3-16-0.3-0.6-0.7-1.2-1.1-1.9l-0.2-0.5q-0.5-0.9-1-2l-0.1-0.1c-0.2-0.6-0.5-1.3-0.8-2l-0.2-0.6q-0.4-1.1-0.8-2.2v-0.1q-0.4-1.1-0.7-2.3l-0.1-0.5q-0.3-1.2-0.6-2.5v-0.1q-0.3-1.3-0.5-2.5l-0.1-0.5q-0.2-1.4-0.3-2.7v-0.1q-0.2-1.4-0.3-2.7v-0.5q-0.1-1.4-0.1-2.9v-0.1q-0.1-1.4 0-2.9v-0.3q0.1-3.1 0.4-6.3l0.1-0.2c0.2-2.1 0.6-4.3 1-6.5v-0.1c0.6-2.8 1.4-5.5 2.3-8.3v-0.1c1.4-4.2 3.2-8.3 5.3-12.1 15.1-27.3 46.3-42.3 88-42.3 41.6 0 72.8 15 87.9 42.3 3.3 6 5.8 12.4 7.3 19.2v0.1q0.4 1.7 0.7 3.4v0.1q0.6 3.3 0.9 6.6v0.2q0.3 3.2 0.3 6.3v0.4q-0.1 3-0.4 5.9v0.4q-0.1 1.4-0.3 2.8c0 0-0.1 0.1-0.1 0.2q-0.2 1.3-0.4 2.6l-0.1 0.4q-0.3 1.3-0.6 2.5l-0.1 0.4q-0.3 1.2-0.6 2.3l-0.1 0.3q-0.4 1.2-0.8 2.3l-0.2 0.4c-0.3 0.8-0.5 1.5-0.8 2.1l-0.1 0.3q-0.5 0.9-1 2-0.2 0.2-0.3 0.5c-0.4 0.7-0.8 1.3-1.1 1.9-3.8 6.1-7.2 11.4-10.2 16q-2.3 3.6-4.3 6.6c-2 3.2-3.4 5.5-4.6 7.5q-0.8 1.4-1.5 2.6c-3.4 6-4.9 9.9-4.9 13.2v23.3c0 1.4-1.1 2.5-2.5 2.5zm-121.8-5h119.3v-20.8c0-4.2 1.7-8.9 5.5-15.6q0.7-1.3 1.6-2.7c1.2-2.1 2.7-4.5 4.7-7.7q2-3 4.3-6.6c3-4.6 6.4-9.9 10.2-16q0.5-0.8 0.9-1.6l0.2-0.4q0.5-0.9 0.9-1.8l0.1-0.2q0.4-0.9 0.7-1.8l0.2-0.4q0.4-1 0.7-2.1l0.1-0.3q0.3-1 0.6-2l0.1-0.4q0.3-1.1 0.5-2.3l0.1-0.4q0.2-1.2 0.4-2.4v-0.1q0.2-1.3 0.3-2.6c0 0 0.1-0.1 0.1-0.2v-0.2q0.2-2.7 0.3-5.5v-0.3q0-2.9-0.3-5.9v-0.2c-0.2-2-0.4-4.1-0.8-6.1v-0.2c-0.2-1-0.4-2-0.6-3.1l-0.1-0.1c-1.4-6.3-3.7-12.3-6.8-17.9-10-18.1-32.6-39.7-83.5-39.7-50.9 0-73.6 21.6-83.6 39.7-2 3.6-3.6 7.4-4.9 11.3l-2.4-0.7 2.3 0.8q-1.2 3.9-2.1 7.8v0.1c-0.4 1.9-0.7 4-1 6v0.1q-0.3 3-0.4 5.9v0.3q-0.1 1.4 0 2.8c0 0 0 0 0 0.1q0 1.3 0.1 2.6v0.4q0.1 1.3 0.2 2.5v0.2q0.2 1.2 0.4 2.4v0.5q0.2 1.1 0.5 2.2c0 0.1 0 0.1 0 0.2q0.2 1.1 0.5 2.2l0.1 0.5q0.3 1.1 0.6 2.1c0 0 0.1 0 0.1 0.1q0.3 1 0.7 2l0.2 0.4q0.3 1 0.7 1.9l0.1 0.1q0.4 0.9 0.8 1.7l0.2 0.4q0.5 0.9 1 1.6c3.8 6.1 7.2 11.4 10.2 16q2.2 3.6 4.2 6.6c2.1 3.2 3.5 5.6 4.8 7.7q0.8 1.4 1.5 2.7c3.9 6.7 5.5 11.4 5.5 15.6z"/>
					<g id="&lt;Group&gt;">
						<path id="&lt;Path&gt;" class="s0" d="m398.3 159.2c32.3 0 65.1 3.2 95.4 9.5-0.5 3.2-1.3 6.3-2.3 9-0.9 2.8-2.1 5.4-3.5 7.6-8.3 13.3-14.8 22.8-19.2 30.2-4.4 7.3-6.7 12.5-6.7 17 0 4.6 0 10.4 0 15.1 0 4.6 0 8.2 0 8.2h-31-31.1-31.1-31.1c0 0 0-3.6 0-8.2 0-4.7 0-10.5 0-15.1 0-4.5-2.3-9.7-6.7-17-4.4-7.4-10.8-16.9-19.2-30.2-1.3-2.2-2.5-4.7-3.4-7.4-1-2.7-1.8-5.7-2.3-8.8 28.2-6.6 60-9.8 92.2-9.9z"/>
						<path id="&lt;Compound Path&gt;" fill-rule="evenodd" class="s0" d="m462 258.3h-124.3c-1.4 0-2.5-1.1-2.5-2.5v-23.3c0-3.7-1.8-8.2-6.3-15.8-2.4-3.9-5.4-8.6-8.9-14.1-3.1-4.6-6.5-9.9-10.3-16-1.4-2.3-2.7-4.9-3.7-7.8q-1.5-4.3-2.4-9.3c-0.2-1.3 0.7-2.6 1.9-2.9 27.7-6.4 59.8-9.8 92.8-9.9q0.3 0 0.6 0c32.5 0 65.4 3.3 95.3 9.5 1.3 0.3 2.2 1.5 2 2.8q-0.9 5.1-2.4 9.6c-1.1 2.9-2.3 5.6-3.8 8-3.8 6.1-7.2 11.4-10.2 16-3.5 5.5-6.6 10.2-8.9 14.1-4.5 7.6-6.4 12.1-6.4 15.8v23.3c0 1.4-1.1 2.5-2.5 2.5zm-121.8-5h119.3v-20.8c0-5.4 2.9-11.2 7.1-18.3 2.4-4.1 5.4-8.8 9-14.3 3-4.6 6.4-9.9 10.2-16 1.2-2 2.4-4.4 3.3-7q1-3 1.7-6.3c-29.1-5.8-61-8.9-92.5-8.9-31.7 0.1-62.5 3.3-89.3 9.3q0.7 3.2 1.7 6.1c0.9 2.5 2 4.8 3.3 6.8 3.8 6.1 7.2 11.4 10.2 16 3.5 5.5 6.6 10.2 9 14.3 4.2 7.1 7 12.9 7 18.3z"/>
					</g>
					<g id="&lt;Group&gt;">
						<path id="&lt;Compound Path&gt;" fill-rule="evenodd" class="s0" d="m441.4 321.4h-83.1c-1.4 0-2.5-1.1-2.5-2.5v-12.6c0-1.4 1.1-2.5 2.5-2.5h83.1c1.4 0 2.5 1.1 2.5 2.5v12.6c0 1.4-1.1 2.5-2.5 2.5zm-80.6-5h78.1v-7.6h-78.1z"/>
						<path id="&lt;Compound Path&gt;" fill-rule="evenodd" class="s0" d="m441.4 334h-83.1c-1.4 0-2.5-1.2-2.5-2.5v-12.6c0-1.4 1.1-2.5 2.5-2.5h83.1c1.4 0 2.5 1.1 2.5 2.5v12.6c0 1.3-1.1 2.5-2.5 2.5zm-80.6-5h78.1v-7.6h-78.1z"/>
						<path id="&lt;Compound Path&gt;" fill-rule="evenodd" class="s0" d="m441.4 346.5h-83.1c-1.4 0-2.5-1.1-2.5-2.5v-12.5c0-1.4 1.1-2.5 2.5-2.5h83.1c1.4 0 2.5 1.1 2.5 2.5v12.5c0 1.4-1.1 2.5-2.5 2.5zm-80.6-5h78.1v-7.5h-78.1z"/>
						<path id="&lt;Compound Path&gt;" fill-rule="evenodd" class="s0" d="m441.4 359.1h-83.1c-1.4 0-2.5-1.1-2.5-2.5v-12.6c0-1.3 1.1-2.5 2.5-2.5h83.1c1.4 0 2.5 1.2 2.5 2.5v12.6c0 1.4-1.1 2.5-2.5 2.5zm-80.6-5h78.1v-7.6h-78.1z"/>
						<g id="&lt;Group&gt;">
							<path id="&lt;Path&gt;" class="s0" d="m399.9 356.6h4.1 18.7 18.7q0 3.6-2.1 6.6c-1.4 1.9-3.5 3.6-6 4.8l-6.8 3.9-6.8 3.8q-0.8 0.5-1.7 0.9-0.9 0.4-1.8 0.7-0.6 0.2-1.1 0.3-0.6 0.1-1.1 0.2-0.8 0.1-1.6 0.2-0.7 0.1-1.5 0.1h-1.8-1.8-7-7-1.8-1.8q-0.9 0-1.9-0.1-0.9-0.1-1.8-0.3-0.9-0.2-1.7-0.4-0.8-0.3-1.6-0.6-0.4-0.2-0.7-0.3-0.4-0.2-0.7-0.4l-7.5-4-7.4-4c-2.5-1.2-4.5-2.9-5.9-4.8-1.4-2-2.2-4.2-2.2-6.6h18.7 18.7z"/>
							<path id="&lt;Compound Path&gt;" fill-rule="evenodd" class="s0" d="m410.9 380.6h-21.2q-1.1 0-2.1-0.1-1.1-0.2-2.1-0.4-1-0.2-1.9-0.4-1-0.3-1.9-0.7-0.4-0.2-0.9-0.4-0.3-0.2-0.7-0.4l-14.8-8c-2.8-1.3-5.2-3.2-6.9-5.6-1.7-2.4-2.6-5.2-2.6-8 0-1.4 1.1-2.5 2.5-2.5h83.1c1.4 0 2.5 1.1 2.5 2.5 0 2.8-0.9 5.6-2.6 8-1.7 2.3-4 4.3-6.8 5.6l-13.5 7.7q-1 0.6-2 1-1.1 0.5-2.1 0.8-0.6 0.2-1.3 0.3-0.6 0.2-1.2 0.3-0.9 0.1-1.7 0.2-1 0.1-1.8 0.1zm-49.7-21.5q0.4 1.4 1.3 2.6c1.2 1.7 2.9 3.1 5 4q0 0 0.1 0.1l14.9 8q0.3 0.2 0.6 0.3 0.2 0.2 0.5 0.3 0.7 0.3 1.4 0.5 0.7 0.2 1.5 0.3 0.8 0.2 1.6 0.3 0.8 0.1 1.6 0.1h21.2q0.6 0 1.3-0.1 0.7-0.1 1.4-0.2 0.5-0.1 0.9-0.2 0.5-0.1 0.9-0.2 0.8-0.2 1.6-0.6 0.7-0.3 1.5-0.7l13.6-7.8q0.1 0 0.2-0.1c2-0.9 3.7-2.3 4.9-4q0.9-1.2 1.3-2.6z"/>
						</g>
						<path id="&lt;Compound Path&gt;" fill-rule="evenodd" class="s0" d="m400.3 393.6c-10.2 0-18.5-8.3-18.5-18.4 0-10.2 8.3-18.5 18.5-18.5 10.2 0 18.4 8.3 18.4 18.5 0 10.1-8.2 18.4-18.4 18.4zm0-31.9c-7.4 0-13.5 6-13.5 13.5 0 7.4 6.1 13.4 13.5 13.4 7.4 0 13.4-6 13.4-13.4 0-7.5-6-13.5-13.4-13.5z"/>
					</g>
					<g id="&lt;Group&gt;">
						<path id="&lt;Path&gt;" class="s0" d="m471.5 134.3c0 0 0.9 0.8 1.8 2.2 0.9 1.4 1.8 3.3 2.4 5.3q0.2 0.8 0.4 1.6 0.1 0.7 0.2 1.5c0.1 1 0.1 2 0.1 2.8-0.1 0.9-0.2 1.6-0.4 2.2-0.1 0.5-0.2 0.8-0.2 0.8-0.4 0.9-1.4 1.3-2.3 0.9q-0.3-0.1-0.5-0.4l-0.1-0.1c0 0-0.2-0.2-0.5-0.6-0.3-0.3-0.7-0.9-1.2-1.5-0.8-1.4-1.7-3.3-2.2-5.2-0.6-2-0.9-4.1-0.9-5.7-0.1-0.8 0-1.5 0.1-2 0-0.5 0.1-0.8 0.1-0.8 0.3-1.1 1.3-1.7 2.4-1.4q0.4 0.1 0.8 0.4z"/>
						<path id="&lt;Path&gt;" class="s0" d="m375.4 103.2c-0.1 0 0.3-0.2 1-0.5 0.7-0.4 1.7-0.9 3-1.4 1.3-0.5 2.9-1.1 4.7-1.7 1.8-0.6 3.9-1.2 6.3-1.7 2.3-0.5 4.9-1 7.6-1.3 2.7-0.3 5.6-0.5 8.6-0.5 3-0.1 6.1 0 9.2 0.4 3.2 0.3 6.3 0.8 9.5 1.5q2.3 0.5 4.6 1.2c0.8 0.2 1.5 0.4 2.3 0.7q1.1 0.3 2.2 0.7c1.5 0.5 3 1.1 4.4 1.7q2.1 0.9 4.2 1.8 1.9 1.1 3.9 2.1 1.8 1 3.6 2.1 1.7 1.1 3.4 2.1c0.6 0.5 0.9 0.7 1.5 1.2q0.8 0.6 1.5 1.2c3.9 3.1 6.4 6.4 8 8.8 0.7 1.1 1.3 2.1 1.6 2.8q0.5 1 0.5 1.1c0.5 0.9 0.1 2-0.8 2.5-0.8 0.3-1.7 0.1-2.3-0.5q0 0-0.7-0.8c-0.5-0.5-1.2-1.3-2.1-2.2q-1.3-1.3-3.3-3-2.1-1.6-4.8-3.3c-1.7-1-3.9-2.1-6.2-3.2q-1.7-0.8-3.5-1.6-1.8-0.8-3.7-1.6-1.9-0.7-3.9-1.5c-1.3-0.4-2.7-0.9-4-1.3q-4.1-1.3-8.4-2.2c-2.8-0.6-5.7-1.2-8.5-1.5-1.4-0.2-2.8-0.3-4.2-0.5q-2.1-0.1-4.2-0.3c-2.7-0.1-5.3-0.1-7.8-0.1-2.6 0.1-4.9 0.2-7.1 0.5-2.2 0.2-4.2 0.4-6 0.7-1.8 0.2-3.3 0.5-4.6 0.7-1.3 0.3-2.2 0.5-2.9 0.6q-1 0.3-1 0.3c-1.1 0.4-2.3-0.1-2.8-1.2-0.5-1.1 0.1-2.3 1.2-2.8z"/>
					</g>
				</g>
				<g id="&lt;Group&gt;">
					<g id="&lt;Group&gt;">
						<path id="&lt;Path&gt;" class="s0" d="m-101.8 252.5h28.8v8.9 8.9c0 2.4-0.4 4.8-1.2 7-0.8 2.2-2 4.2-3.5 6-4.7 5.4-8.4 11.1-11 15.6-2.5 4.4-3.9 7.4-3.9 7.4h-21.3-21.3-21.3-21.3c0 0-1.4-3-3.9-7.4-2.6-4.5-6.3-10.2-10.9-15.6q-2.4-2.7-3.6-6c-0.8-2.2-1.2-4.6-1.2-7v-8.9-8.9h31.2 31.1 2.3 2.2z"/>
						<path id="&lt;Compound Path&gt;" fill-rule="evenodd" class="s0" d="m-92.6 308.8h-85.2c-0.9 0-1.8-0.6-2.2-1.4-0.1-0.1-1.4-3.1-3.9-7.3-2.3-3.9-6-9.7-10.6-15.2-1.8-2-3.1-4.2-4-6.8-0.9-2.5-1.4-5.1-1.4-7.8v-17.8c0-1.4 1.2-2.5 2.5-2.5h124.4c1.4 0 2.5 1.1 2.5 2.5v17.8c0 2.7-0.5 5.3-1.4 7.8-0.9 2.6-2.2 4.8-3.9 6.8-4.7 5.5-8.4 11.3-10.7 15.2-2.4 4.2-3.8 7.2-3.8 7.3-0.4 0.8-1.3 1.4-2.3 1.4zm-83.6-5h82c0.7-1.3 1.8-3.5 3.4-6.2 2.4-4.1 6.2-10.2 11.2-15.9q2-2.3 3-5.3 1.1-2.9 1.1-6.1v-15.3h-119.4v15.3q0 3.2 1.1 6.1 1.1 3 3 5.3c5 5.7 8.9 11.8 11.3 15.9 1.5 2.7 2.6 4.9 3.3 6.2z"/>
					</g>
					<path id="&lt;Compound Path&gt;" fill-rule="evenodd" class="s0" d="m-73 255h-124.4c-0.9 0-1.8-0.6-2.2-1.4l-36.6-73.6c-0.4-0.7-0.4-1.4-0.2-2 0.3-0.7 0.8-1.2 1.4-1.5 0.4-0.1 9.1-3.8 25.8-7.6 15.3-3.4 40.6-7.5 74-7.5 33.4 0 58.7 4.1 74 7.5 16.8 3.8 25.5 7.5 25.8 7.6 0.7 0.3 1.2 0.8 1.4 1.5 0.2 0.6 0.2 1.3-0.1 2l-36.7 73.6c-0.4 0.8-1.3 1.4-2.2 1.4zm-122.8-5h121.2l34.8-69.8c-3.7-1.3-11.2-3.9-22.5-6.4-15.1-3.4-40-7.4-72.9-7.4-32.9 0-57.8 4-72.9 7.4-11.2 2.5-18.8 5.1-22.4 6.4z"/>
					<path id="&lt;Compound Path&gt;" fill-rule="evenodd" class="s0" d="m-36.4 181.3q-0.5 0-1-0.2c-0.3-0.1-8.8-3.7-24.9-7.3-15.1-3.4-40-7.4-72.9-7.4-32.9 0-57.8 4-72.9 7.4-16 3.6-24.5 7.2-24.9 7.3-1.2 0.5-2.7 0-3.2-1.3-0.2-0.4-4.5-10.2-3.3-23.3 1.1-12.1 7.2-29.4 30.3-43.2 18.1-10.8 45.1-17.1 74-17.1 28.9 0 55.9 6.3 74.1 17.1 23 13.8 29.1 31.1 30.2 43.2 1.2 13-3 22.9-3.2 23.3-0.4 1-1.3 1.5-2.3 1.5zm-98.8-19.9c33.4 0 58.7 4.1 74 7.5 11.8 2.7 19.6 5.3 23.3 6.7 1.1-3.4 2.8-10.2 2.1-18.6-1.5-15.9-10.9-29.2-27.9-39.4-17.4-10.4-43.5-16.4-71.5-16.4-28 0-54.1 6-71.5 16.4-17 10.2-26.4 23.5-27.8 39.4-0.8 8.3 0.9 15.2 2 18.6 3.7-1.4 11.5-4 23.3-6.7 15.3-3.4 40.6-7.5 74-7.5z"/>
					<g id="&lt;Group&gt;">
						<path id="&lt;Compound Path&gt;" fill-rule="evenodd" class="s0" d="m-93.6 321.4h-83.2c-1.3 0-2.5-1.1-2.5-2.5v-12.6c0-1.4 1.2-2.5 2.5-2.5h83.2c1.4 0 2.5 1.1 2.5 2.5v12.6c0 1.4-1.1 2.5-2.5 2.5zm-80.7-5h78.2v-7.6h-78.2z"/>
						<path id="&lt;Compound Path&gt;" fill-rule="evenodd" class="s0" d="m-93.6 334h-83.2c-1.3 0-2.5-1.2-2.5-2.5v-12.6c0-1.4 1.2-2.5 2.5-2.5h83.2c1.4 0 2.5 1.1 2.5 2.5v12.6c0 1.3-1.1 2.5-2.5 2.5zm-80.7-5h78.2v-7.6h-78.2z"/>
						<path id="&lt;Compound Path&gt;" fill-rule="evenodd" class="s0" d="m-93.6 346.5h-83.2c-1.3 0-2.5-1.1-2.5-2.5v-12.5c0-1.4 1.2-2.5 2.5-2.5h83.2c1.4 0 2.5 1.1 2.5 2.5v12.5c0 1.4-1.1 2.5-2.5 2.5zm-80.7-5h78.2v-7.5h-78.2z"/>
						<path id="&lt;Compound Path&gt;" fill-rule="evenodd" class="s0" d="m-93.6 359.1h-83.2c-1.3 0-2.5-1.1-2.5-2.5v-12.6c0-1.3 1.2-2.5 2.5-2.5h83.2c1.4 0 2.5 1.2 2.5 2.5v12.6c0 1.4-1.1 2.5-2.5 2.5zm-80.7-5h78.2v-7.6h-78.2z"/>
						<g id="&lt;Group&gt;">
							<path id="&lt;Path&gt;" class="s0" d="m-135.2 356.6h4.1 18.8 18.7c0 2.4-0.8 4.6-2.2 6.6-1.4 1.9-3.4 3.6-5.9 4.8l-6.8 3.9-6.8 3.8q-0.9 0.5-1.7 0.9-0.9 0.4-1.9 0.7-0.5 0.2-1.1 0.3-0.5 0.1-1.1 0.2-0.7 0.1-1.5 0.2-0.8 0.1-1.6 0.1h-1.8-1.8-7-7-1.8-1.8q-0.9 0-1.8-0.1-1-0.1-1.9-0.3-0.8-0.2-1.7-0.4-0.8-0.3-1.6-0.6-0.3-0.2-0.7-0.3-0.3-0.2-0.7-0.4l-7.4-4-7.4-4c-2.5-1.2-4.6-2.9-6-4.8-1.4-2-2.2-4.2-2.2-6.6h18.8 18.7z"/>
							<path id="&lt;Compound Path&gt;" fill-rule="evenodd" class="s0" d="m-124.2 380.6h-21.2q-1 0-2.1-0.1-1-0.2-2.1-0.4-0.9-0.2-1.9-0.4-0.9-0.3-1.8-0.7-0.5-0.2-0.9-0.4-0.4-0.2-0.8-0.4l-14.8-8c-2.8-1.3-5.2-3.2-6.8-5.6-1.7-2.4-2.7-5.2-2.7-8 0-1.4 1.2-2.5 2.5-2.5h83.2c1.4 0 2.5 1.1 2.5 2.5 0 2.8-0.9 5.6-2.7 8-1.6 2.3-4 4.3-6.8 5.6l-13.5 7.7q-1 0.6-1.9 1-1.1 0.5-2.2 0.8-0.6 0.2-1.2 0.3-0.6 0.2-1.2 0.3-0.9 0.1-1.8 0.2-0.9 0.1-1.8 0.1zm-49.7-21.5q0.5 1.4 1.4 2.6c1.1 1.7 2.8 3.1 4.9 4q0.1 0 0.2 0.1l14.8 8q0.3 0.2 0.6 0.3 0.3 0.2 0.6 0.3 0.6 0.3 1.4 0.5 0.7 0.2 1.4 0.3 0.8 0.2 1.6 0.3 0.8 0.1 1.6 0.1h21.2q0.7 0 1.4-0.1 0.7-0.1 1.3-0.2 0.5-0.1 1-0.2 0.4-0.1 0.9-0.2 0.7-0.2 1.5-0.6 0.8-0.3 1.5-0.7l13.6-7.8q0.1 0 0.2-0.1c2.1-0.9 3.8-2.3 5-4q0.9-1.2 1.3-2.6z"/>
						</g>
						<path id="&lt;Compound Path&gt;" fill-rule="evenodd" class="s0" d="m-134.8 393.6c-10.2 0-18.4-8.3-18.4-18.4 0-10.2 8.2-18.5 18.4-18.5 10.2 0 18.5 8.3 18.5 18.5 0 10.1-8.3 18.4-18.5 18.4zm0-31.9c-7.4 0-13.4 6-13.4 13.5 0 7.4 6 13.4 13.4 13.4 7.5 0 13.5-6 13.5-13.4 0-7.5-6-13.5-13.5-13.5z"/>
					</g>
					<g id="&lt;Group&gt;">
						<path id="&lt;Path&gt;" class="s0" d="m-72.9 131.4c0 0 0.3 0 0.9 0.1 0.6 0.2 1.5 0.4 2.4 0.7 2 0.7 4.4 1.9 6.6 3.3q0.9 0.6 1.7 1.2 0.8 0.6 1.5 1.2c1 0.8 1.8 1.7 2.5 2.5 1.4 1.6 2.1 2.9 2.1 2.9 0.4 0.9 0 1.8-0.8 2.2q-0.5 0.2-0.9 0.2h-0.1c0 0-0.4-0.1-1-0.3-0.6-0.1-1.4-0.4-2.3-0.7-1.9-0.7-4.3-1.9-6.5-3.3-2.2-1.4-4.3-3.1-5.7-4.5-0.7-0.8-1.3-1.4-1.7-1.9-0.3-0.5-0.5-0.8-0.5-0.8-0.6-0.9-0.3-2 0.6-2.6 0.3-0.2 0.8-0.3 1.2-0.2z"/>
						<path id="&lt;Path&gt;" class="s0" d="m-176.6 126.8q0 0 0.8-0.6c0.5-0.5 1.3-1.2 2.3-1.9q0.9-0.6 1.9-1.4 1-0.7 2.2-1.4 1.2-0.7 2.6-1.5c1-0.5 1.9-1 3-1.5 2.1-1 4.4-2 6.9-2.9 2.5-0.9 5.2-1.7 8-2.3 2.8-0.7 5.8-1.1 8.8-1.5q2.3-0.2 4.6-0.4c1.5 0 3.1-0.1 4.6-0.1 3.1 0 6.2 0.2 9.2 0.5 1.5 0.2 3 0.4 4.5 0.7 1.5 0.2 2.9 0.5 4.3 0.8 2.8 0.7 5.5 1.4 8 2.2 2.4 0.8 4.8 1.7 6.9 2.6q3.1 1.3 5.6 2.5c1.6 0.8 3 1.6 4.2 2.3 2.3 1.3 3.5 2.1 3.5 2.1h0.1c0.8 0.6 1.1 1.8 0.5 2.6-0.5 0.7-1.3 1-2.1 0.8 0 0-1.4-0.4-3.9-1.1q-1.8-0.6-4.4-1.3-2.5-0.7-5.7-1.5-3.1-0.8-6.7-1.6c-2.4-0.5-5-0.9-7.5-1.3q-1-0.2-2.1-0.3-1-0.1-2-0.3-2-0.2-4-0.4-4.2-0.3-8.4-0.3c-1.4 0-2.8 0.1-4.2 0.1-1.4 0.1-2.7 0.1-4.1 0.2-1.4 0.2-2.7 0.3-4.1 0.5-1.3 0.2-2.6 0.3-3.9 0.5-5.2 0.9-10 2.1-14 3.4-1 0.3-1.9 0.7-2.8 1q-1.4 0.5-2.6 1c-0.8 0.3-1.5 0.6-2.2 0.9q-1 0.4-1.8 0.8c-2.4 1.1-3.7 1.7-3.7 1.7-1.1 0.6-2.4 0.1-2.9-0.9-0.4-1-0.2-2 0.6-2.6z"/>
					</g>
				</g>
			</g>
		</g>
	</g>
</svg>