<svg version="1.2" xmlns="http://www.w3.org/2000/svg" viewBox="0 0 393 486" width="393" height="486">
	<title>bulb-set-svg</title>
	<style>
		.s0 { fill: #e6e6e6 } 
	</style>
	<g id="background">
		<g id="&lt;Group&gt;">
			<g id="&lt;Group&gt;">
				<g id="&lt;Group&gt;">
					<g id="&lt;Group&gt;">
						<path id="&lt;Compound Path&gt;" fill-rule="evenodd" class="s0" d="m239.7 343.5h-88.9c-0.7 0-1.3-0.3-1.8-0.8-0.5-0.4-0.7-1.1-0.7-1.8 0.1-6.1-0.5-12.1-1.7-18-1.3-5.9-3.4-11.7-6-17-2.6-5.1-5.9-10.1-10.3-15.2-3.7-4.4-7.9-8.5-13-13.4-5.4-5.2-9.6-9.7-13.2-14.3-4.4-5.4-7.8-10.9-10.6-16.6q-4.4-9-7.5-18.6c-2.1-6.4-3.8-12.9-5-19.5-2.5-12.8-3.2-25.5-2.2-37.7 1.1-13 4.2-25.3 9.2-36.7 4.7-10.5 11-20 18.7-28.3 8-8.6 17.2-15.3 27.3-20 6.4-3 13.4-5.4 21.4-7.3 8-1.9 16-3.2 22-4l1.1-0.2c5.7-0.7 11.4-1.1 17.2-1.1 5.7 0 11.5 0.4 17.2 1.3h0.2c6 0.8 14 2.1 22 4 8 1.9 15 4.3 21.4 7.3 10.1 4.7 19.3 11.4 27.3 20 7.7 8.3 14 17.8 18.7 28.3 5 11.3 8.1 23.7 9.2 36.7 1 12.2 0.3 24.9-2.2 37.7-1.2 6.6-2.9 13.1-5 19.5q-3.2 9.6-7.5 18.6c-2.8 5.7-6.2 11.2-10.6 16.6-3.6 4.6-7.8 9.1-13.3 14.3-5 4.9-9.2 9-12.9 13.4-4.4 5.1-7.7 10.1-10.3 15.2-2.6 5.3-4.7 11.1-6 17-1.2 5.9-1.8 11.9-1.7 18 0 0.7-0.3 1.4-0.7 1.8-0.5 0.5-1.1 0.8-1.8 0.8zm-86.4-5h83.9c0-5.6 0.7-11.2 1.9-16.6 1.3-6.4 3.5-12.5 6.3-18.3 2.8-5.4 6.3-10.7 10.9-16.1 4-4.6 8.2-8.8 13.4-13.8 5.2-5 9.3-9.4 12.8-13.8 4.1-5.2 7.4-10.3 10-15.7 2.8-5.7 5.2-11.8 7.2-18 2.1-6.1 3.7-12.5 4.9-18.8 2.4-12.4 3.1-24.6 2.1-36.4-1-12.4-4-24.2-8.8-35-4.5-10.1-10.4-19.1-17.7-26.9-7.7-8.2-16.3-14.6-25.8-19-6.1-2.8-12.8-5.1-20.5-6.9-7.7-1.9-15.6-3.1-21.5-4l0.1-2.5-0.3 2.5q-8.2-1.2-16.5-1.2-8.4 0-16.5 1.1l-1.1 0.1c-5.9 0.9-13.8 2.1-21.5 4-7.7 1.8-14.4 4.1-20.5 6.9-9.5 4.4-18.2 10.8-25.8 19-7.3 7.8-13.2 16.8-17.7 26.9-4.8 10.8-7.8 22.6-8.8 35-1 11.8-0.3 24 2.1 36.4 1.2 6.3 2.8 12.7 4.8 18.8 2.1 6.2 4.5 12.3 7.3 18 2.6 5.4 5.9 10.6 10 15.7 3.5 4.4 7.5 8.8 12.8 13.8 5.2 5 9.4 9.2 13.3 13.8 4.7 5.4 8.2 10.7 10.9 16.1 2.9 5.8 5.1 11.9 6.4 18.3 1.2 5.4 1.9 11 1.9 16.6z"/>
						<path id="&lt;Path&gt;" class="s0" d="m215.8 195.7q0.4 0.5 0.4 1.2v72 72.1c0 0.5-0.3 1-0.6 1.4-0.4 0.4-0.9 0.6-1.4 0.6-0.6 0-1.1-0.2-1.4-0.6-0.4-0.4-0.6-0.9-0.6-1.4v-69.3-69.2l-4.6 5.6-4.5 5.6q0 0-0.1 0 0 0 0 0.1 0 0-0.1 0 0 0.1 0 0.1-0.1 0-0.1 0.1-0.1 0-0.1 0 0 0.1-0.1 0.1-0.1 0-0.1 0.1-0.1 0-0.1 0-0.1 0-0.1 0.1-0.1 0-0.1 0 0 0-0.1 0 0 0-0.1 0.1 0 0-0.1 0 0 0-0.1 0 0 0-0.1 0 0 0-0.1 0-0.1 0-0.1 0 0 0-0.1 0 0 0-0.1 0 0 0-0.1 0 0 0-0.1 0 0 0-0.1 0 0-0.1-0.1-0.1-0.1 0-0.1 0-0.1-0.1-0.1-0.1-0.1 0-0.1 0-0.1 0-0.1-0.1 0 0-0.1 0 0-0.1-0.1-0.1-0.1 0-0.1-0.1-0.1 0-0.1-0.1 0 0-0.1 0 0-0.1 0-0.1-0.1-0.1-0.1-0.1 0 0 0-0.1-0.1 0-0.1-0.1-0.1-0.1-0.1-0.1 0-0.1 0-0.1 0-0.1-0.1-0.1 0 0 0-0.1 0 0 0-0.1 0 0 0-0.1 0 0 0-0.1-0.1 0-0.1-0.1 0 0 0-0.1 0-0.1 0-0.1v-4.9-5l-4.5 5.6-4.6 5.6q-0.1 0.1-0.1 0.1-0.1 0.1-0.1 0.1-0.1 0.1-0.1 0.1 0 0-0.1 0 0 0.1-0.1 0.1 0 0-0.1 0.1 0 0-0.1 0-0.1 0.1-0.2 0.1 0 0-0.1 0 0 0-0.1 0.1-0.1 0-0.2 0-0.1 0-0.2 0-0.1 0-0.2 0-0.1 0-0.2 0 0 0-0.1 0-0.1-0.1-0.1-0.1-0.1 0-0.2 0 0 0 0-0.1-0.1 0-0.1 0 0 0-0.1 0 0-0.1-0.1-0.1-0.1-0.1-0.1-0.1 0 0-0.1 0 0 0 0-0.1 0 0-0.1 0 0 0 0-0.1-0.1 0-0.1 0 0-0.1-0.1-0.1 0-0.1 0-0.1-0.1 0-0.1-0.1 0 0 0-0.1-0.1 0-0.1 0 0-0.1 0-0.1-0.1-0.1-0.1-0.1 0-0.1 0-0.1 0 0 0-0.1-0.1 0-0.1-0.1 0 0 0-0.1 0 0 0-0.1 0 0 0-0.1 0 0 0-0.1 0-0.1 0-0.1v-4.8-4.8l-4.3 5.5-4.3 5.6v63.5 63.6c0 0.5-0.2 1-0.6 1.4-0.3 0.4-0.8 0.6-1.4 0.6-0.5 0-1-0.2-1.4-0.6-0.4-0.4-0.6-0.9-0.6-1.4v-63.9-63.9q0-0.3 0.1-0.6 0.1-0.3 0.3-0.6l6.3-8.2 6.3-8.2q0.4-0.5 1-0.7 0.6-0.1 1.2 0.1 0.6 0.2 1 0.7 0.4 0.5 0.4 1.2v4.9 5l4.5-5.6 4.6-5.6q0.4-0.5 1-0.7 0.6-0.1 1.2 0.1 0.6 0.2 1 0.7 0.3 0.5 0.3 1.2v4.9 5l4.6-5.6 4.5-5.6q0.4-0.5 1-0.7 0.6-0.1 1.2 0.1 0.6 0.2 1 0.7z"/>
						<g id="&lt;Group&gt;">
							<path id="&lt;Compound Path&gt;" fill-rule="evenodd" class="s0" d="m239.7 356.9h-88.9c-1.4 0-2.5-1.1-2.5-2.5v-13.4c0-1.4 1.1-2.5 2.5-2.5h88.9c1.4 0 2.5 1.1 2.5 2.5v13.4c0 1.4-1.1 2.5-2.5 2.5zm-86.4-5h83.9v-8.4h-83.9z"/>
							<path id="&lt;Compound Path&gt;" fill-rule="evenodd" class="s0" d="m239.7 370.4h-88.9c-1.4 0-2.5-1.1-2.5-2.5v-13.5c0-1.3 1.1-2.5 2.5-2.5h88.9c1.4 0 2.5 1.2 2.5 2.5v13.5c0 1.4-1.1 2.5-2.5 2.5zm-86.4-5h83.9v-8.5h-83.9z"/>
							<path id="&lt;Compound Path&gt;" fill-rule="evenodd" class="s0" d="m239.7 383.8h-88.9c-1.4 0-2.5-1.1-2.5-2.5v-13.4c0-1.4 1.1-2.5 2.5-2.5h88.9c1.4 0 2.5 1.1 2.5 2.5v13.4c0 1.4-1.1 2.5-2.5 2.5zm-86.4-5h83.9v-8.4h-83.9z"/>
							<path id="&lt;Compound Path&gt;" fill-rule="evenodd" class="s0" d="m239.7 397.3h-88.9c-1.4 0-2.5-1.2-2.5-2.5v-13.5c0-1.4 1.1-2.5 2.5-2.5h88.9c1.4 0 2.5 1.1 2.5 2.5v13.5c0 1.3-1.1 2.5-2.5 2.5zm-86.4-5h83.9v-8.5h-83.9z"/>
							<g id="&lt;Group&gt;">
								<path id="&lt;Path&gt;" class="s0" d="m195.2 394.8h4.4 20.1 20c0 2.5-0.8 4.9-2.3 7-1.5 2.1-3.7 3.9-6.4 5.1l-7.3 4.2-7.2 4.1q-0.9 0.5-1.9 1-0.9 0.4-1.9 0.7-0.6 0.2-1.2 0.3-0.6 0.1-1.2 0.2-0.8 0.2-1.6 0.2-0.9 0.1-1.7 0.1h-1.9-1.9-7.5-7.5-1.9-1.9q-1.1 0-2.1-0.1-1-0.1-1.9-0.3-0.9-0.2-1.8-0.4-0.9-0.3-1.8-0.6-0.3-0.2-0.7-0.4-0.4-0.2-0.8-0.4l-7.9-4.3-7.9-4.3c-2.7-1.2-4.9-3-6.4-5.1-1.5-2.1-2.3-4.5-2.3-7h20 20z"/>
								<path id="&lt;Compound Path&gt;" fill-rule="evenodd" class="s0" d="m207 420.2h-22.6q-1.2 0-2.3-0.1-1.1-0.1-2.2-0.3-1-0.2-2-0.5-1-0.3-2-0.7-0.5-0.2-0.9-0.5-0.4-0.2-0.8-0.4l-15.9-8.5c-3-1.4-5.5-3.5-7.2-5.9-1.9-2.6-2.8-5.5-2.8-8.5 0-1.4 1.1-2.5 2.5-2.5h88.9c1.4 0 2.5 1.1 2.5 2.5 0 3-1 5.9-2.8 8.5-1.8 2.4-4.3 4.5-7.2 5.9l-14.5 8.2q-1 0.6-2.1 1.1-1.1 0.5-2.2 0.8-0.7 0.2-1.4 0.3-0.6 0.2-1.2 0.3-1 0.1-1.9 0.2-1 0.1-1.9 0.1zm-53.4-22.9q0.5 1.6 1.5 3c1.3 1.8 3.2 3.3 5.4 4.4q0.1 0 0.1 0l15.9 8.6q0.4 0.2 0.7 0.4 0.3 0.1 0.6 0.2 0.7 0.3 1.5 0.6 0.8 0.2 1.6 0.4 0.8 0.1 1.7 0.2 0.9 0.1 1.8 0.1h22.6q0.7 0 1.5-0.1 0.7 0 1.4-0.1 0.6-0.1 1.1-0.2 0.5-0.2 0.9-0.3 0.9-0.2 1.7-0.6 0.8-0.4 1.6-0.8l14.6-8.3q0.1-0.1 0.2-0.1c2.2-1.1 4.1-2.6 5.3-4.4q1.1-1.4 1.5-3z"/>
							</g>
							<path id="&lt;Compound Path&gt;" fill-rule="evenodd" class="s0" d="m195.7 434.2c-10.8 0-19.6-8.8-19.6-19.6 0-10.8 8.8-19.6 19.6-19.6 10.8 0 19.6 8.8 19.6 19.6 0 10.8-8.8 19.6-19.6 19.6zm0-34.2c-8.1 0-14.6 6.6-14.6 14.6 0 8.1 6.5 14.6 14.6 14.6 8 0 14.6-6.5 14.6-14.6 0-8-6.6-14.6-14.6-14.6z"/>
						</g>
					</g>
					<g id="&lt;Group&gt;">
						<path id="&lt;Path&gt;" class="s0" d="m288.9 199.4c0 0 0.1 0.3 0.2 0.9 0.1 0.6 0.3 1.4 0.4 2.3 0.2 1.9 0.1 4.4-0.3 6.9q-0.1 0.9-0.4 1.8-0.2 0.9-0.4 1.8c-0.4 1.1-0.8 2.2-1.3 3.1-0.8 1.7-1.8 2.8-1.8 2.8-0.6 0.7-1.7 0.7-2.3 0.1q-0.4-0.3-0.5-0.7v-0.1c0 0-0.1-0.3-0.2-0.9-0.1-0.6-0.3-1.3-0.3-2.3-0.2-1.9-0.1-4.3 0.3-6.7 0.4-2.4 1-4.8 1.8-6.6 0.3-0.9 0.7-1.6 1-2.1 0.3-0.5 0.5-0.8 0.5-0.8 0.6-0.8 1.8-1 2.6-0.4q0.5 0.4 0.7 0.9z"/>
						<path id="&lt;Path&gt;" class="s0" d="m221.2 102.2q0-0.1 1.3-0.2 0.7 0 1.6-0.1 1 0 2.3 0c1.8 0 3.8 0.1 6.2 0.4 2.4 0.3 5 0.8 7.8 1.6 2.9 0.9 5.9 1.9 8.9 3.4 3.1 1.5 6.2 3.2 9.2 5.4q4.5 3.1 8.7 7.2c2.7 2.7 5.3 5.7 7.6 8.8 2.3 3.2 4.4 6.5 6.2 9.8 1.9 3.4 3.4 6.9 4.6 10.3q0.9 2.6 1.7 5.1c0.4 1.7 0.8 3.4 1.2 5 0.3 1.6 0.6 3.2 0.9 4.7q0.3 2.3 0.5 4.5c0.3 2.8 0.4 5.4 0.5 7.8 0 2.3-0.1 4.3-0.1 5.9-0.1 1.7-0.3 3-0.3 3.9q-0.2 1.3-0.2 1.3c-0.1 1-1 1.8-2.1 1.7-0.8-0.1-1.5-0.8-1.6-1.7 0 0-0.2-1.8-0.6-5-0.2-1.6-0.5-3.5-0.9-5.6-0.3-2.2-0.8-4.6-1.3-7.3q-0.5-1.9-1-4c-0.4-1.4-0.8-2.9-1.2-4.3-0.9-3-2-5.9-3.3-8.9-1.3-3.1-2.8-6.1-4.5-9.1q-2.6-4.5-5.7-8.7c-2.1-2.8-4.3-5.4-6.7-7.9-2.4-2.5-4.9-4.7-7.5-6.7-2.5-2-5.1-3.8-7.7-5.3-2.6-1.4-5.1-2.7-7.5-3.6-2.4-1-4.7-1.7-6.8-2.3-2-0.5-3.9-0.9-5.4-1.2q-1.1-0.2-1.9-0.3-1-0.1-1.6-0.2-1.3-0.2-1.4-0.2c-1.1-0.1-2-1.2-1.9-2.4 0.2-1 1-1.8 2-1.8z"/>
					</g>
				</g>
			</g>
		</g>
	</g>
</svg>