<svg xmlns="http://www.w3.org/2000/svg" xmlns:xlink="http://www.w3.org/1999/xlink" version="1.1" id="Layer_1" x="0px" y="0px" viewBox="0 0 136.1 52.3" style="enable-background:new 0 0 136.1 52.3;" xml:space="preserve">
<style type="text/css">
	.st0{fill-rule:evenodd;clip-rule:evenodd;fill:rgb(156 163 175);}
	.st1{fill:rgb(156 163 175);}
</style>
<g id="a">
	<g>
		<path class="st0" d="M16.5,22.7v-7.3h7c0,0,4.7-0.4,4.8,3.7c0.1,3.5-4.8,3.7-4.8,3.7S16.5,22.7,16.5,22.7z M16.5,36.7v-9h7    c0,0,5.4-0.3,5.5,4.5c0.1,4.8-5.5,4.5-5.5,4.5L16.5,36.7L16.5,36.7z M10.2,42V10.1h16.2c0,0,8.9,0.1,7.9,9    c-0.4,3.7-4.3,5.6-4.3,5.6s5.4,2,5.5,7.6C35.8,42.4,25.5,42,25.5,42L10.2,42L10.2,42z"></path>
		<polygon class="st1" points="40.1,42 40.1,10.1 63.7,10.1 63.7,15.4 46.8,15.4 46.8,22 61.7,22 61.7,27.4 46.8,27.4 46.8,36.7     63.7,36.7 63.7,42 40.1,42   "></polygon>
		<path class="st1" d="M81,29.9v-5.2h13.5V42h-5.2L89,37.8c-1.9,2.9-5,5-8.8,5c-8.4,0-15.2-6.4-15.2-16.9c0-9.3,5.7-17,15.2-16.9    c6.6,0,12.3,3.2,14.2,11.2H88c-1.5-4.4-4.1-5.7-7.4-5.7c-5.6,0-8.8,5.1-8.8,11.5s3.1,11.5,8.8,11.5c3.8,0,7.2-2.7,8-7.3L81,29.9    L81,29.9z"></path>
		<path class="st0" d="M110.9,16.7c0.1,0.1-4,13.3-4,13.3h8C114.9,30,110.8,16.6,110.9,16.7L110.9,16.7L110.9,16.7z M95.9,42    l11.3-31.9h7.3L125.9,42h-7l-2.5-7h-11.1l-2.3,7H95.9L95.9,42z"></path>
	</g>
</g>
<g id="b">
</g>
</svg>
