<svg xmlns="http://www.w3.org/2000/svg" xmlns:xlink="http://www.w3.org/1999/xlink" width="169px" height="22px" viewBox="0 0 169 22" version="1.1"><g id="Symbols" stroke="none" stroke-width="1" fill="none" fill-rule="evenodd"><g id="Logo" fill="rgb(156 163 175)" fill-rule="nonzero"><g id="fagerhult_logo"><path d="M117.380645,15.4567742 L117.338065,15.4567742 C116.074839,17.2309677 114.215484,18.0967742 111.916129,18.0967742 C107.033548,18.0967742 103.740645,14.3780645 103.740645,9.11225806 C103.740645,3.84645161 106.650323,0 112.100645,0 C116.145806,0 118.615484,2.2 119.169032,5.60645161 L116.898065,5.60645161 C116.40129,3.29290323 114.797419,1.88774194 112.043871,1.88774194 C107.870968,1.88774194 105.969032,5.03870968 105.969032,9.09806452 C105.969032,13.1574194 108.43871,16.1948387 111.972903,16.1948387 C115.492903,16.1948387 117.224516,13.7677419 117.224516,10.843871 L117.224516,10.4464516 L112.00129,10.4464516 L112.00129,8.54451613 L119.396129,8.54451613 L119.396129,17.7419355 L117.990968,17.7419355 L117.380645,15.4567742 Z" id="Path"></path><path d="M124.363871,7.26709677 L124.406452,7.26709677 C125.15871,6.04645161 126.464516,5.05290323 128.139355,5.05290323 C128.409032,5.03870968 128.67871,5.09548387 128.934194,5.19483871 L128.934194,7.08258065 L128.877419,7.08258065 C128.593548,6.99741935 128.309677,6.95483871 128.011613,6.96903226 C126.067097,6.96903226 124.363871,8.41677419 124.363871,10.7729032 L124.363871,17.7419355 L122.376774,17.7419355 L122.376774,5.18064516 L124.363871,5.18064516 L124.363871,7.26709677 Z" id="Path"></path><path d="M129.686452,11.4683871 C129.686452,7.82064516 132.014194,4.85419355 135.76129,4.85419355 C139.508387,4.85419355 141.807742,7.82064516 141.807742,11.4683871 C141.807742,15.116129 139.522581,18.0825806 135.76129,18.0825806 C132,18.0825806 129.686452,15.1019355 129.686452,11.4683871 Z M139.792258,11.4683871 C139.792258,8.71483871 138.415484,6.50064516 135.747097,6.50064516 C133.07871,6.50064516 131.687742,8.71483871 131.687742,11.4683871 C131.687742,14.2219355 133.064516,16.436129 135.747097,16.436129 C138.429677,16.436129 139.792258,14.236129 139.792258,11.4683871 L139.792258,11.4683871 Z" id="Shape"></path><path d="M152.169032,17.7419355 L152.169032,16.0103226 L152.126452,16.0103226 C151.232258,17.2309677 150.167742,18.0116129 148.350968,18.0116129 C145.781935,18.0116129 144.12129,16.4645161 144.12129,13.8529032 L144.12129,5.18064516 L146.08,5.18064516 L146.08,13.8245161 C146.08,15.4567742 147.130323,16.4219355 148.904516,16.4219355 C150.67871,16.4219355 152.169032,14.9032258 152.169032,12.916129 L152.169032,5.18064516 L154.156129,5.18064516 L154.156129,17.7419355 L152.169032,17.7419355 Z" id="Path"></path><path d="M157.122581,5.18064516 L159.08129,5.18064516 L159.08129,6.95483871 L159.123871,6.95483871 C160.074839,5.67741935 161.338065,4.88258065 163.169032,4.88258065 C166.348387,4.88258065 168.562581,7.30967742 168.562581,11.4967742 C168.562581,15.683871 166.490323,18.1109677 163.098065,18.1109677 C161.394839,18.1109677 160.174194,17.6141935 159.123871,16.2658065 L159.08129,16.2658065 L159.08129,21.7729032 L157.122581,21.7729032 L157.122581,5.18064516 Z M166.532903,11.5109677 C166.532903,8.71483871 165.340645,6.55741935 162.956129,6.55741935 C160.230968,6.55741935 158.967742,8.8 158.967742,11.5109677 C158.967742,14.2219355 160.060645,16.4645161 162.941935,16.4645161 C165.340645,16.4645161 166.532903,14.363871 166.532903,11.5109677 L166.532903,11.5109677 Z" id="Shape"></path><polygon id="Path" points="0.0851612903 0.369032258 11.8516129 0.369032258 11.8516129 2.28516129 2.25677419 2.28516129 2.25677419 7.70709677 10.2619355 7.70709677 10.2619355 9.55225806 2.25677419 9.55225806 2.25677419 17.7419355 0.0851612903 17.7419355"></polygon><path d="M25.0941935,18.4516129 L26.9109677,18.4516129 C27.123871,19.8283871 28.4296774,20.3677419 30.36,20.3677419 C32.6735484,20.3677419 33.9509677,19.3174194 33.9509677,17.1458065 L33.9509677,15.3716129 L33.9225806,15.3716129 C32.9858065,16.563871 32.0064516,17.316129 30.203871,17.316129 C26.9393548,17.316129 24.6967742,14.7187097 24.6967742,11.0993548 C24.6967742,7.48 27.1664516,4.88258065 30.0619355,4.88258065 C31.8787097,4.88258065 33.0567742,5.60645161 33.9083871,6.77032258 L33.9509677,6.77032258 L33.9509677,5.18064516 L35.9096774,5.18064516 L35.9096774,17.0606452 C35.9096774,20.3535484 33.7380645,21.9148387 30.4025806,21.9148387 C27.0670968,21.9148387 25.3212903,20.6090323 25.0941935,18.4516129 Z M34.1070968,10.9716129 C34.1070968,8.24645161 32.9432258,6.52903226 30.2748387,6.52903226 C27.6064516,6.52903226 26.7264516,8.37419355 26.7264516,11.0993548 C26.7264516,13.8245161 27.9612903,15.6271718 30.3032258,15.6271718 C33.1987097,15.6412903 34.1070968,13.64 34.1070968,10.9716129 Z" id="Shape"></path><path d="M38.2374194,11.4683871 C38.2374194,7.82064516 40.6219355,4.85419355 44.1845161,4.85419355 C47.7612903,4.85419355 49.9754839,7.77806452 49.9754839,11.9225806 L40.2670968,11.9225806 C40.4090323,14.4632258 41.7858065,16.4219355 44.3122581,16.4219355 C46.1290323,16.4219355 47.3496774,15.5277419 47.7896774,13.8245161 L49.7058065,13.8245161 C49.123871,16.5354839 47.1651613,18.0542443 44.3122581,18.0542443 C40.48,18.0683871 38.2374194,15.1019355 38.2374194,11.4683871 Z M40.3096774,10.4606452 L47.8464516,10.4606452 C47.7329032,7.93419355 46.4412903,6.41548387 44.1845161,6.41548387 C41.9277419,6.41548387 40.5935484,8.17548387 40.3096774,10.4606452 L40.3096774,10.4606452 Z" id="Shape"></path><path d="M54.2477419,7.26709677 L54.2903226,7.26709677 C55.0425806,6.04645161 56.3483871,5.05290323 58.0232258,5.05290323 C58.3070968,5.03870968 58.5767742,5.09548387 58.8464516,5.19483871 L58.8464516,7.08258065 L58.7612903,7.08258065 C58.4774194,6.98322581 58.1935484,6.95483871 57.8954839,6.96903226 C55.9509677,6.96903226 54.2477419,8.41677419 54.2477419,10.7729032 L54.2477419,17.7419355 L52.2890323,17.7419355 L52.2890323,5.18064516 L54.2477419,5.18064516 L54.2477419,7.26709677 Z" id="Path"></path><path d="M63.1187097,6.84129032 L63.1612903,6.84129032 C64.0554839,5.64903226 65.3045161,4.88258065 67.1496774,4.88258065 C69.7612903,4.88258065 71.3793548,6.33032258 71.3793548,8.92774194 L71.3793548,17.7419355 L69.3922581,17.7419355 L69.3922581,9.08387097 C69.3922581,7.46580645 68.3419355,6.54322581 66.5677419,6.54322581 C64.7935484,6.54322581 63.1187097,7.9483871 63.1187097,10.0206452 L63.1187097,17.7419355 L61.16,17.7419355 L61.16,0.369032258 L63.1187097,0.369032258 L63.1187097,6.84129032 L63.1187097,6.84129032 Z" id="Path"></path><path d="M82.1806452,17.7419355 L82.1806452,16.0103226 L82.1380645,16.0103226 C81.243871,17.2309677 80.1793548,18.0116129 78.3625806,18.0116129 C75.7935484,18.0116129 74.1329032,16.4645161 74.1329032,13.8529032 L74.1329032,5.18064516 L76.0774194,5.18064516 L76.0774194,13.8245161 C76.0774194,15.4567742 77.1277419,16.4219355 78.9019355,16.4219355 C80.676129,16.4219355 82.1664516,14.9032258 82.1664516,12.916129 L82.1664516,5.18064516 L84.1251613,5.18064516 L84.1251613,17.7419355 L82.1806452,17.7419355 Z" id="Path"></path><polygon id="Path" points="87.12 0.369032258 89.0787097 0.369032258 89.0787097 17.7419355 87.12 17.7419355"></polygon><path d="M90.8670968,5.18064516 L92.683871,5.18064516 L92.683871,1.20645161 L94.6425806,1.20645161 L94.6425806,5.18064516 L97.0696774,5.18064516 L97.0696774,6.77032258 L94.6425806,6.77032258 L94.6425806,14.9458065 C94.6425806,15.84 95.1109677,16.1096774 95.9058065,16.1096774 C96.2606452,16.1096774 96.6154839,16.0529032 96.956129,15.9393548 L97.0270968,15.9393548 L97.0270968,17.6425806 C96.516129,17.756129 95.9909677,17.7987097 95.4658065,17.8129032 C93.8477419,17.8129032 92.683871,17.16 92.683871,15.3858065 L92.683871,6.77032258 L90.8670968,6.77032258 L90.8670968,5.18064516 L90.8670968,5.18064516 Z" id="Path"></path><path d="M20.6516129,13.0722581 C20.6516129,14.5483871 19.4593548,16.4645161 16.8193548,16.4645161 C15.5419355,16.4645161 14.2077419,16.1096774 14.2077419,14.4348387 C14.2077419,12.76 15.7974194,12.2348387 17.7845161,11.8658065 C18.8632258,11.6812903 19.9987097,11.3548387 20.6516129,10.9290323 L20.6516129,13.0722581 Z M22.4258065,17.7419355 L22.4258065,17.7419355 L22.4258065,14.5625806 L22.4258065,14.5625806 L22.4258065,8.88516129 C22.4258065,5.87612903 20.4670968,4.8683871 17.7845161,4.8683871 C14.4490323,4.8683871 12.8309677,6.71354839 12.76,9.14064516 L14.6477419,9.14064516 C14.7187097,7.25290323 15.7406452,6.35870968 17.7987097,6.35870968 C19.8567742,6.35870968 20.6232258,7.15354839 20.6232258,8.57290323 C20.6232258,9.99225806 19.3883871,10.12 17.5858065,10.3754839 C14.4632258,10.8722581 12.0929032,11.4683871 12.0929032,14.4632258 C12.0929032,16.8477419 13.9806452,17.9690323 16.3651613,17.9690323 C18.0116129,18.0116129 19.5729032,17.2735484 20.5664516,15.9677419 L20.5948387,15.9677419 L20.5948387,17.7419355 L22.4258065,17.7419355 Z" id="Shape"></path></g></g></g></svg> 