<svg width="100%" height="100%" viewBox="0 0 2221 263" version="1.1" xmlns="http://www.w3.org/2000/svg" xmlns:xlink="http://www.w3.org/1999/xlink" xml:space="preserve" xmlns:serif="http://www.serif.com/" style="fill-rule:evenodd;clip-rule:evenodd;stroke-linejoin:round;stroke-miterlimit:1.41421;">
    <g transform="matrix(3.94231,0,0,3.94231,-255.139,1516.27)">
        <path d="M366.321,-365.281L364.975,-365.281C364.526,-365.281 364.301,-365.012 364.301,-364.609L364.301,-332.31C364.301,-331.906 364.573,-331.636 364.975,-331.636L366.321,-331.636C366.77,-331.636 366.993,-331.906 366.993,-332.31L366.993,-364.609C366.993,-365.012 366.725,-365.281 366.321,-365.281Z" style="fill:rgb(156 163 175);fill-rule:nonzero;"/>
        <path d="M378.7,-352.407L377.356,-352.407C376.906,-352.407 376.684,-352.137 376.684,-351.734L376.684,-332.31C376.684,-331.906 376.952,-331.636 377.356,-331.636L378.7,-331.636C379.15,-331.636 379.375,-331.906 379.375,-332.31L379.375,-351.734C379.375,-352.137 379.107,-352.407 378.7,-352.407Z" style="fill:rgb(156 163 175);fill-rule:nonzero;"/>
        <path d="M378.028,-359.808C376.906,-359.808 376.098,-358.911 376.098,-357.879C376.098,-356.759 376.906,-355.905 378.028,-355.905C379.107,-355.905 380.002,-356.759 380.002,-357.879C380.002,-358.911 379.107,-359.808 378.028,-359.808Z" style="fill:rgb(156 163 175);fill-rule:nonzero;"/>
        <path d="M399.697,-339.354C399.697,-336.168 398.215,-334.012 395.031,-334.012C392.295,-334.012 390.678,-336.168 390.678,-339.354L390.678,-344.736C390.678,-347.922 392.295,-350.028 395.031,-350.028C398.215,-350.028 399.697,-347.922 399.697,-344.736L399.697,-339.354ZM401.714,-352.407L400.594,-352.407C400.145,-352.407 399.92,-352.137 399.92,-351.733L399.92,-350.882C399.92,-350.702 399.786,-350.656 399.697,-350.656C399.156,-350.656 398.35,-352.63 394.851,-352.63C390.678,-352.63 387.988,-349.939 387.988,-345.59L387.988,-338.457C387.988,-334.147 390.501,-331.41 394.671,-331.41C398.171,-331.41 398.935,-333.384 399.47,-333.384C399.56,-333.384 399.697,-333.342 399.697,-333.161L399.697,-327.911C399.697,-324.728 397.992,-323.022 395.164,-323.022C392.518,-323.022 390.678,-325.085 390.678,-327.375C390.678,-327.777 390.409,-328.046 390.005,-328.046L388.661,-328.046C388.257,-328.046 387.988,-327.777 387.988,-327.375L387.988,-326.567C387.988,-323.472 390.767,-320.42 395.164,-320.42C399.742,-320.42 402.388,-323.069 402.388,-327.017L402.388,-351.733C402.388,-352.137 402.118,-352.407 401.714,-352.407Z" style="fill:rgb(156 163 175);fill-rule:nonzero;"/>
        <path d="M419.521,-352.63C415.979,-352.63 415.261,-350.656 414.724,-350.656C414.636,-350.656 414.498,-350.702 414.498,-350.882L414.498,-364.609C414.498,-365.012 414.228,-365.281 413.827,-365.281L412.48,-365.281C412.03,-365.281 411.807,-365.012 411.807,-364.609L411.807,-332.31C411.807,-331.906 412.076,-331.636 412.48,-331.636L413.827,-331.636C414.274,-331.636 414.498,-331.906 414.498,-332.31L414.498,-344.736C414.498,-347.922 415.979,-350.028 419.166,-350.028C421.903,-350.028 423.516,-347.922 423.516,-344.736L423.516,-332.31C423.516,-331.906 423.785,-331.636 424.189,-331.636L425.533,-331.636C425.983,-331.636 426.209,-331.906 426.209,-332.31L426.209,-345.586C426.209,-349.939 423.695,-352.63 419.521,-352.63Z" style="fill:rgb(156 163 175);fill-rule:nonzero;"/>
        <path d="M444.194,-352.407L440.156,-352.407C439.754,-352.407 439.484,-352.676 439.484,-353.08L439.484,-356.936C439.484,-357.342 439.215,-357.612 438.813,-357.612L437.465,-357.612C437.016,-357.612 436.792,-357.342 436.792,-356.936L436.792,-353.08C436.792,-352.676 436.523,-352.407 436.12,-352.407L434.011,-352.407C433.607,-352.407 433.337,-352.137 433.337,-351.734L433.337,-350.613C433.337,-350.163 433.607,-349.939 434.011,-349.939L436.12,-349.939C436.523,-349.939 436.792,-349.716 436.792,-349.266L436.792,-338.681C436.792,-334.508 439.44,-331.636 443.971,-331.636C444.509,-331.636 444.869,-331.86 444.869,-332.31L444.869,-333.565C444.869,-334.015 444.509,-334.239 443.971,-334.239C441.145,-334.239 439.484,-336.167 439.484,-339.578L439.484,-349.266C439.484,-349.716 439.754,-349.939 440.156,-349.939L444.194,-349.939C444.598,-349.939 444.869,-350.209 444.869,-350.613L444.869,-351.734C444.869,-352.184 444.598,-352.407 444.194,-352.407Z" style="fill:rgb(156 163 175);fill-rule:nonzero;"/>
        <path d="M474.071,-352.407L470.033,-352.407C469.629,-352.407 469.36,-352.676 469.36,-353.08L469.36,-356.936C469.36,-357.342 469.091,-357.612 468.687,-357.612L467.342,-357.612C466.893,-357.612 466.668,-357.342 466.668,-356.936L466.668,-353.08C466.668,-352.676 466.4,-352.407 465.996,-352.407L463.886,-352.407C463.483,-352.407 463.214,-352.137 463.214,-351.734L463.214,-350.613C463.214,-350.163 463.483,-349.939 463.886,-349.939L465.996,-349.939C466.4,-349.939 466.668,-349.716 466.668,-349.266L466.668,-338.681C466.668,-334.508 469.314,-331.636 473.847,-331.636C474.385,-331.636 474.743,-331.86 474.743,-332.31L474.743,-333.565C474.743,-334.015 474.385,-334.239 473.847,-334.239C471.021,-334.239 469.36,-336.167 469.36,-339.578L469.36,-349.266C469.36,-349.716 469.629,-349.939 470.033,-349.939L474.071,-349.939C474.474,-349.939 474.743,-350.209 474.743,-350.613L474.743,-351.734C474.743,-352.184 474.474,-352.407 474.071,-352.407Z" style="fill:rgb(156 163 175);fill-rule:nonzero;"/>
        <path d="M490.713,-352.63C487.171,-352.63 486.451,-350.656 485.911,-350.656C485.823,-350.656 485.688,-350.702 485.688,-350.882L485.688,-364.609C485.688,-365.012 485.419,-365.281 485.015,-365.281L483.668,-365.281C483.219,-365.281 482.996,-365.012 482.996,-364.609L482.996,-332.31C482.996,-331.906 483.267,-331.636 483.668,-331.636L485.015,-331.636C485.464,-331.636 485.688,-331.906 485.688,-332.31L485.688,-344.736C485.688,-347.922 487.171,-350.028 490.354,-350.028C493.09,-350.028 494.705,-347.922 494.705,-344.736L494.705,-332.31C494.705,-331.906 494.975,-331.636 495.38,-331.636L496.724,-331.636C497.174,-331.636 497.397,-331.906 497.397,-332.31L497.397,-345.586C497.397,-349.939 494.884,-352.63 490.713,-352.63Z" style="fill:rgb(156 163 175);fill-rule:nonzero;"/>
        <path d="M508.522,-352.407L507.175,-352.407C506.727,-352.407 506.503,-352.137 506.503,-351.734L506.503,-332.31C506.503,-331.906 506.771,-331.636 507.175,-331.636L508.522,-331.636C508.971,-331.636 509.193,-331.906 509.193,-332.31L509.193,-351.734C509.193,-352.137 508.926,-352.407 508.522,-352.407Z" style="fill:rgb(156 163 175);fill-rule:nonzero;"/>
        <path d="M507.847,-359.808C506.727,-359.808 505.92,-358.911 505.92,-357.879C505.92,-356.759 506.727,-355.905 507.847,-355.905C508.926,-355.905 509.823,-356.759 509.823,-357.879C509.823,-358.911 508.926,-359.808 507.847,-359.808Z" style="fill:rgb(156 163 175);fill-rule:nonzero;"/>
        <path d="M525.88,-352.633C522.384,-352.633 521.484,-350.567 520.947,-350.567C520.855,-350.567 520.722,-350.613 520.722,-350.79L520.722,-351.734C520.722,-352.137 520.455,-352.407 520.05,-352.407L518.927,-352.407C518.478,-352.407 518.256,-352.137 518.256,-351.734L518.256,-332.31C518.256,-331.906 518.524,-331.636 518.927,-331.636L520.274,-331.636C520.722,-331.636 520.947,-331.906 520.947,-332.31L520.947,-344.736C520.947,-347.919 522.426,-350.028 525.655,-350.028C528.349,-350.028 530.008,-347.919 530.008,-344.736L530.008,-332.31C530.008,-331.906 530.278,-331.636 530.682,-331.636L532.029,-331.636C532.476,-331.636 532.701,-331.906 532.701,-332.31L532.701,-345.586C532.701,-350.075 530.054,-352.633 525.88,-352.633Z" style="fill:rgb(156 163 175);fill-rule:nonzero;"/>
        <path d="M549.701,-344.466C549.566,-344.736 549.478,-344.959 549.747,-345.228L555.444,-351.418C556.16,-352.183 555.668,-352.407 555.132,-352.407L554.052,-352.407C553.423,-352.407 553.246,-352.272 552.753,-351.733L545.573,-343.973C545.08,-343.434 544.812,-343.793 544.812,-344.154L544.812,-364.61C544.812,-365.012 544.541,-365.281 544.139,-365.281L542.792,-365.281C542.343,-365.281 542.118,-365.012 542.118,-364.61L542.118,-332.31C542.118,-331.906 542.391,-331.636 542.792,-331.636L544.139,-331.636C544.587,-331.636 544.812,-331.906 544.812,-332.31L544.812,-338.904C544.812,-339.755 544.946,-340.07 545.216,-340.34L547.189,-342.357C547.503,-342.672 547.772,-342.538 547.905,-342.268L553.289,-332.31C553.648,-331.679 553.829,-331.636 554.59,-331.636L555.263,-331.636C555.758,-331.636 556.341,-331.86 555.937,-332.58L549.701,-344.466Z" style="fill:rgb(156 163 175);fill-rule:nonzero;"/>
        <path d="M565.132,-352.407L563.786,-352.407C563.337,-352.407 563.112,-352.137 563.112,-351.734L563.112,-332.31C563.112,-331.906 563.383,-331.636 563.786,-331.636L565.132,-331.636C565.579,-331.636 565.806,-331.906 565.806,-332.31L565.806,-351.734C565.806,-352.137 565.533,-352.407 565.132,-352.407Z" style="fill:rgb(156 163 175);fill-rule:nonzero;"/>
        <path d="M564.457,-359.808C563.337,-359.808 562.531,-358.911 562.531,-357.879C562.531,-356.759 563.337,-355.905 564.457,-355.905C565.533,-355.905 566.433,-356.759 566.433,-357.879C566.433,-358.911 565.533,-359.808 564.457,-359.808Z" style="fill:rgb(156 163 175);fill-rule:nonzero;"/>
        <path d="M582.492,-352.633C578.993,-352.633 578.097,-350.567 577.558,-350.567C577.469,-350.567 577.335,-350.613 577.335,-350.79L577.335,-351.734C577.335,-352.137 577.065,-352.407 576.661,-352.407L575.539,-352.407C575.09,-352.407 574.867,-352.137 574.867,-351.734L574.867,-332.31C574.867,-331.906 575.134,-331.636 575.539,-331.636L576.885,-331.636C577.335,-331.636 577.558,-331.906 577.558,-332.31L577.558,-344.736C577.558,-347.919 579.036,-350.028 582.268,-350.028C584.96,-350.028 586.619,-347.919 586.619,-344.736L586.619,-332.31C586.619,-331.906 586.89,-331.636 587.292,-331.636L588.639,-331.636C589.086,-331.636 589.313,-331.906 589.313,-332.31L589.313,-345.586C589.313,-350.075 586.665,-352.633 582.492,-352.633Z" style="fill:rgb(156 163 175);fill-rule:nonzero;"/>
        <path d="M609.317,-339.354C609.317,-336.168 607.838,-334.012 604.653,-334.012C601.916,-334.012 600.299,-336.168 600.299,-339.354L600.299,-344.736C600.299,-347.922 601.916,-350.028 604.653,-350.028C607.838,-350.028 609.317,-347.922 609.317,-344.736L609.317,-339.354ZM611.337,-352.407L610.214,-352.407C609.768,-352.407 609.54,-352.137 609.54,-351.733L609.54,-350.882C609.54,-350.702 609.406,-350.656 609.317,-350.656C608.779,-350.656 607.972,-352.63 604.473,-352.63C600.299,-352.63 597.608,-349.939 597.608,-345.59L597.608,-338.457C597.608,-334.147 600.121,-331.41 604.294,-331.41C607.793,-331.41 608.555,-333.384 609.092,-333.384C609.183,-333.384 609.317,-333.342 609.317,-333.161L609.317,-327.911C609.317,-324.728 607.614,-323.022 604.787,-323.022C602.141,-323.022 600.299,-325.085 600.299,-327.375C600.299,-327.777 600.033,-328.046 599.627,-328.046L598.282,-328.046C597.878,-328.046 597.608,-327.777 597.608,-327.375L597.608,-326.567C597.608,-323.472 600.391,-320.42 604.787,-320.42C609.362,-320.42 612.008,-323.069 612.008,-327.017L612.008,-351.733C612.008,-352.137 611.741,-352.407 611.337,-352.407Z" style="fill:rgb(156 163 175);fill-rule:nonzero;"/>
        <path d="M107.942,-341.059L93.67,-341.059C92.925,-341.059 92.425,-341.558 92.425,-342.307L92.425,-380.977C92.425,-381.725 91.927,-382.222 91.182,-382.222L82.006,-382.222C81.175,-382.222 80.761,-381.725 80.761,-380.977L80.761,-332.185C80.761,-331.436 81.259,-330.937 82.006,-330.937L107.942,-330.937C108.689,-330.937 109.187,-331.436 109.186,-332.185L109.187,-339.817C109.187,-340.563 108.689,-341.059 107.942,-341.059Z" style="fill:rgb(156 163 175);fill-rule:nonzero;"/>
        <path d="M261.738,-364.863C261.738,-361.063 258.498,-357.809 254.233,-357.809L246.126,-357.809C245.427,-357.809 244.965,-358.272 244.965,-358.97L244.965,-371.928C244.965,-372.623 245.427,-373.089 246.126,-373.089L254.233,-373.092C258.498,-373.092 261.738,-369.195 261.738,-365.397L261.738,-364.863ZM254.233,-382.221L235.823,-382.221C235.047,-382.221 234.66,-381.754 234.66,-381.058L234.66,-332.1C234.66,-331.403 235.124,-330.937 235.823,-330.937L243.801,-330.937C244.574,-330.937 244.965,-331.403 244.965,-332.1L244.965,-347.436C244.965,-348.133 245.427,-348.599 246.126,-348.599L253.366,-348.599C254.294,-348.599 254.758,-348.133 254.915,-347.436L258.926,-332.1C259.236,-330.937 259.779,-330.937 260.943,-330.937L267.679,-330.937C268.531,-330.937 269.227,-331.324 268.918,-332.563L264.21,-350.537C264.054,-351.234 264.441,-351.697 264.984,-352.088C269.171,-355.186 271.032,-358.408 271.032,-362.594L271.032,-367.101C271.032,-375.785 264.547,-382.221 254.233,-382.221Z" style="fill:rgb(156 163 175);fill-rule:nonzero;"/>
        <path d="M207.231,-345.586C207.231,-341.785 204.518,-339.929 200.175,-339.929L192.344,-339.929L192.344,-339.932C191.645,-339.932 191.177,-340.392 191.177,-341.096L191.177,-350.964C191.177,-351.658 191.645,-352.121 192.344,-352.121L192.344,-352.127L200.175,-352.127C204.518,-352.127 207.231,-349.709 207.231,-345.912L207.231,-345.586ZM191.177,-371.933C191.177,-372.629 191.645,-373.09 192.344,-373.09L198.16,-373.09C202.5,-373.09 205.215,-370.768 205.215,-367.126L205.215,-366.996C205.215,-363.818 202.966,-361.029 198.16,-361.029L192.344,-361.029L192.344,-361.035C191.645,-361.035 191.177,-361.5 191.177,-362.198L191.177,-371.933ZM210.945,-356.917C210.557,-357.15 210.557,-357.382 210.87,-357.615C213.116,-359.785 214.357,-362.096 214.357,-365.196L214.357,-368.21C214.357,-376.895 209.035,-382.223 198.721,-382.223L191.783,-382.223L189.644,-382.223L182.323,-382.223C181.547,-382.223 181.159,-381.754 181.159,-381.06L181.159,-332.1C181.159,-331.403 181.625,-330.94 182.323,-330.94L189.45,-330.94L189.45,-330.937L200.736,-330.937C211.05,-330.937 216.372,-335.91 216.372,-344.594L216.372,-346.763C216.372,-350.873 214.667,-354.749 210.945,-356.917Z" style="fill:rgb(156 163 175);fill-rule:nonzero;"/>
        <path d="M146.171,-382.221L137.011,-382.221C135.93,-382.221 135.563,-381.972 135.253,-380.726L120.404,-332.35C120.101,-331.351 120.808,-330.937 121.975,-330.937L130.896,-330.937C131.974,-330.937 132.432,-331.183 132.735,-332.182L147.706,-380.391C147.962,-381.329 147.216,-382.221 146.171,-382.221Z" style="fill:rgb(156 163 175);fill-rule:nonzero;"/>
        <path d="M158.547,-364.031C158.307,-364.824 157.51,-365.383 156.626,-365.383L148.316,-365.383C147.026,-365.383 146.116,-364.286 146.441,-363.121L155.899,-332.185C156.219,-331.186 156.68,-330.937 157.76,-330.937L166.811,-330.937C167.98,-330.937 168.591,-331.351 168.273,-332.35L158.547,-364.031Z" style="fill:rgb(156 163 175);fill-rule:nonzero;"/>
        <path d="M308.815,-382.221L299.652,-382.221C298.571,-382.221 298.205,-381.972 297.895,-380.728L283.045,-332.35C282.743,-331.354 283.451,-330.937 284.619,-330.937L293.539,-330.937C294.614,-330.937 295.073,-331.186 295.377,-332.182L310.347,-380.391C310.605,-381.329 309.859,-382.221 308.815,-382.221Z" style="fill:rgb(156 163 175);fill-rule:nonzero;"/>
        <path d="M321.19,-364.031C320.946,-364.824 320.152,-365.383 319.269,-365.383L310.958,-365.383C309.668,-365.383 308.758,-364.287 309.083,-363.121L318.543,-332.185C318.861,-331.186 319.321,-330.937 320.401,-330.937L329.454,-330.937C330.625,-330.937 331.232,-331.354 330.915,-332.35L321.19,-364.031Z" style="fill:rgb(156 163 175);fill-rule:nonzero;"/>
    </g>
</svg>
