<svg
   xmlns:dc="http://purl.org/dc/elements/1.1/"
   xmlns:cc="http://creativecommons.org/ns#"
   xmlns:rdf="http://www.w3.org/1999/02/22-rdf-syntax-ns#"
   xmlns:svg="http://www.w3.org/2000/svg"
   xmlns="http://www.w3.org/2000/svg"
   xmlns:sodipodi="http://sodipodi.sourceforge.net/DTD/sodipodi-0.dtd"
   xmlns:inkscape="http://www.inkscape.org/namespaces/inkscape"
   width="1184.1633mm"
   height="344.71667mm"
   viewBox="0 0 1184.1634 344.71667"
   version="1.1"
   id="svg8"
   inkscape:version="0.92.4 (5da689c313, 2019-01-14)"
   sodipodi:docname="lutec.svg">
  <defs
     id="defs2" />
  <sodipodi:namedview
     id="base"
     pagecolor="#ffffff"
     bordercolor="#666666"
     borderopacity="1.0"
     inkscape:pageopacity="0.0"
     inkscape:pageshadow="2"
     inkscape:zoom="0.30317383"
     inkscape:cx="2074.0513"
     inkscape:cy="867.52909"
     inkscape:document-units="mm"
     inkscape:current-layer="layer1"
     showgrid="false"
     inkscape:pagecheckerboard="true"
     fit-margin-top="20"
     fit-margin-left="20"
     fit-margin-right="20"
     fit-margin-bottom="20"
     inkscape:window-width="1920"
     inkscape:window-height="1017"
     inkscape:window-x="-8"
     inkscape:window-y="-8"
     inkscape:window-maximized="1" />
  <metadata
     id="metadata5">
    <rdf:RDF>
      <cc:Work
         rdf:about="">
        <dc:format>image/svg+xml</dc:format>
        <dc:type
           rdf:resource="http://purl.org/dc/dcmitype/StillImage" />
        <dc:title></dc:title>
      </cc:Work>
    </rdf:RDF>
  </metadata>
  <g
     inkscape:label="Layer 1"
     inkscape:groupmode="layer"
     id="layer1"
     transform="translate(336.748,-18.551039)">
    <g
       id="g27"
       transform="matrix(4.2273067,0,0,4.2273067,-283.39759,-1216.0518)">
      <g
         id="g839">
        <path
           style="fill:rgb(156 163 175);stroke-width:0.26458332"
           d="m 49.478008,368.49742 c -8.049284,-1.35459 -14.315649,-6.09761 -16.954648,-12.83301 -1.636873,-4.17772 -1.778574,-6.8666 -1.781214,-33.80052 l -0.0023,-23.0849 h 4.088651 4.088651 l 0.09348,25.20157 c 0.08605,23.19767 0.130797,25.32646 0.562732,26.7724 1.084728,3.63122 2.758712,5.82934 5.850858,7.68281 4.927645,2.95369 11.135571,3.14155 15.726012,0.4759 2.716496,-1.57746 5.065347,-4.49741 6.086726,-7.56665 0.300541,-0.90313 0.662004,-2.8308 0.803251,-4.28372 0.142963,-1.47054 0.259842,-12.75865 0.263642,-25.46199 l 0.0068,-22.82032 h 4.101042 4.101041 v 22.46155 c 0,13.37341 -0.109678,23.57019 -0.271071,25.20157 -0.574892,5.81105 -1.757672,9.80929 -3.819186,12.91025 -1.48822,2.2386 -4.774245,5.36468 -7.046714,6.70372 -4.200628,2.47519 -10.211582,3.39826 -15.897819,2.44134 z m 166.366692,0.1338 c -12.30868,-1.55484 -22.82572,-8.89336 -28.28291,-19.73507 -3.76447,-7.47883 -4.78506,-16.53513 -2.78481,-24.71147 3.2844,-13.42554 14.06901,-23.81191 27.80211,-26.77549 3.6385,-0.78518 10.28257,-0.83763 13.82016,-0.1091 1.30969,0.26971 2.42329,0.52664 2.47467,0.57095 0.0514,0.0443 -1.36169,1.755 -3.14017,3.80154 l -3.23358,3.721 h -3.02255 c -3.50685,0 -6.13358,0.47552 -9.41426,1.7043 -3.81154,1.42761 -6.32434,3.09603 -9.59328,6.36965 -3.93013,3.93576 -5.88752,7.30005 -7.3295,12.5977 -0.51855,1.90508 -0.60202,2.84381 -0.59687,6.71272 0.007,5.24451 0.44288,7.35532 2.35617,11.40953 1.56114,3.30801 3.03173,5.40844 5.54927,7.92599 2.51668,2.51667 4.61131,3.98338 7.94188,5.56109 3.86764,1.83212 6.36442,2.34628 11.39364,2.34628 5.02921,0 7.52599,-0.51416 11.39363,-2.34628 3.33057,-1.57771 5.4252,-3.04442 7.94188,-5.56109 3.42544,-3.42545 5.75149,-7.37796 7.07334,-12.0193 l 0.62906,-2.20878 4.4564,-2.34955 c 2.45102,-1.29225 4.49417,-2.31176 4.54035,-2.26559 0.16413,0.16414 -0.48088,5.62121 -0.86437,7.31291 -2.72996,12.04285 -11.63256,22.07579 -23.21419,26.16164 -4.74556,1.67416 -11.36127,2.45927 -15.89607,1.88642 z M 11.822176,368.17739 c -2.5616597,-0.34767 -5.5850996,-1.29029 -8.069791,-2.51593 -2.4234047,-1.19542 -3.10349977,-1.6931 -5.3264207,-3.89778 -2.226553,-2.20829 -2.699769,-2.84475 -3.747994,-5.04094 -2.422426,-5.07533 -2.565788,-7.08154 -2.566609,-35.91718 l -6.42e-4,-22.55573 h 4.085255 4.08525591 l 0.101205,25.06927 c 0.09108,22.56203 0.14624712,25.23881 0.55156802,26.76444 1.04949097,3.95029 3.32662537,6.65052 7.14560017,8.47328 2.9410286,1.40371 5.2565526,1.87009 9.2849066,1.87009 h 3.321207 v 3.96875 3.96875 l -4.034895,-0.0396 c -2.219193,-0.0218 -4.392083,-0.0881 -4.828646,-0.14738 z m 90.090624,-31.2984 v -30.1625 h -7.672919 -7.672917 v -3.96875 -3.96875 h 19.579166 19.57917 v 3.96875 3.96875 h -7.67292 -7.67292 v 30.1625 30.1625 h -4.23333 -4.23333 z m 33.86666,-3.96875 v -34.13125 h 19.84375 19.84375 v 3.96875 3.96875 h -15.74271 -15.7427 v 10.58334 10.58333 h 14.1552 14.15521 v 3.96875 3.96875 h -14.15521 -14.1552 v 11.64167 11.64166 h 15.61041 15.61042 v 3.96875 3.96875 h -19.71146 -19.71146 z"
           id="path21"
           inkscape:connector-curvature="0"
           sodipodi:nodetypes="csccccssssccccccssscccccssccccsssscscssscscsccccccccscccsscscccccccccccccccccccccccccccccccccccccccccccccccc" />
        <path
           inkscape:connector-curvature="0"
           id="path23"
           d="m 229.48507,329.76039 c -3.50381,-0.4333 -5.29885,-2.16844 -5.47538,-5.29269 -0.55153,-9.76068 15.71803,-24.02503 29.56474,-25.9209 4.8936,-0.67003 8.10166,0.9346 9.05264,4.528 0.87506,3.3065 -2.32329,9.63385 -7.45539,14.74915 -7.67758,7.65245 -18.74408,12.79499 -25.68661,11.93644 z"
           style="fill:rgb(156 163 175);fill-opacity:1;stroke-width:0.26458332"
           sodipodi:nodetypes="scccss" />
      </g>
    </g>
  </g>
</svg>
