
<svg version="1.1" id="Calque_1" xmlns="http://www.w3.org/2000/svg" xmlns:xlink="http://www.w3.org/1999/xlink" x="0px" y="0px"
	 viewBox="0 0 1931 361.3" style="enable-background:new 0 0 1931 361.3;" xml:space="preserve">
<style type="text/css">
	.st0{fill:rgb(156 163 175);}
</style>
<g>
	<path class="st0" d="M1636.3,134.6c-20.4-15.7-47.2-24.6-75.3-24.6c-65,0-122.6,50.2-122.6,125c0,77.3,57.6,125.5,122.6,125.5
		c30.8,0,59.5-9.6,80.3-27.2c-19.6,14.8-43.8,23.5-70,23.5c-65.3,0-118.2-54.2-118.2-121.2c0-66.9,52.9-121.2,118.2-121.2
		C1595.3,114.6,1617.7,122,1636.3,134.6"/>
	<path class="st0" d="M258,355.2h16.7V25.3h-18.2v299.8L16.2,25.3H0v329.8h17.7V55.4L258,355.2z M565.6,234.6
		c0-71.9-53.7-124.5-125.5-124.5c-15.5,0-30.2,2.5-43.8,7.2c10.5-3.1,21.6-4.8,33.1-4.8c54,0,99.5,36.7,114.2,87.1
		c0.5,1.5,0.8,3,1.2,4.5c0,0.1,0,0.1,0.1,0.2c2.5,9.5,4,19.6,4,30.3c0,10.1-1.3,19.7-3.6,28.8c-0.2,0.9-0.4,1.8-0.7,2.8
		c-0.3,1.1-0.6,2.2-0.9,3.2C529.1,320,483.4,357,429.3,357c-16,0-31.2-3.2-45.1-9.1c16.6,7.9,35.5,12.2,55.8,12.2
		C512,360.1,565.6,306.9,565.6,234.6 M691.6,355.2L802.9,115h-19.2L682.3,336L580.4,115h-19.7l111.7,240.2H691.6z M1022.9,235
		c0,67.4-51.7,109.8-105.8,109.8c-58.1,0-106.3-42.3-106.3-109.8c0-66.9,48.2-109.3,106.3-109.3
		C971.2,125.8,1022.9,168.1,1022.9,235 M1022.9,355.2h17.2V114.9h-17.2V174c-20.2-40.4-61-64-107.3-64c-66.5,0-122.1,48.7-122.1,125
		s55.6,125.5,122.1,125.5c46.3,0,87.1-24.1,107.3-64.5L1022.9,355.2L1022.9,355.2z M1380.8,355.2h16.7V114.9h-16.7v122.6
		c0,65-40.9,106.8-101.9,106.8c-47.8,0-80.2-35.9-80.2-89.1V114.9h-17.2v141.8c0,62,38.9,103.4,97,103.4c48.2,0,85.2-24.1,102.4-64
		v59.1H1380.8z M1909.5,220.8h-204.8c6.4-60.1,56.6-95,106.8-95C1863.2,125.8,1904.6,161.2,1909.5,220.8 M1926.7,235v-6.9
		c-2-70.4-49.2-118.1-115.2-118.1c-64.5,0-124.5,47.8-124.5,126c0,77.8,60.6,124.5,120.6,124.5c55.6,0,97-28.1,114.2-78.3l-15.3-3.9
		c-16.7,44.8-52.7,66.5-98.9,66.5c-50.7,0-103.9-40.4-103.9-108.8l0.5-1L1926.7,235L1926.7,235z"/>
</g>
<rect x="1105.1" y="0.7" class="st0" width="17.2" height="354.4"/>
</svg>
