<svg version="1.1" id="Layer_1" xmlns="http://www.w3.org/2000/svg" xmlns:xlink="http://www.w3.org/1999/xlink" x="0px" y="0px"
	 viewBox="0 0 6840.3 2007.5" style="enable-background:new 0 0 6840.3 2007.5;" xml:space="preserve">
<style type="text/css">
	.st0{fill:rgb(156 163 175);}
	.st1{fill:#bbbbbb;}
	.st2{fill:#cccccc;}
	.st3{fill:#dddddd;}
	.st4{fill:rgb(156 163 175);}
</style>
<g>
	<g>
		<path class="st0" d="M1991.1,1375.2V715.1h148.3v525.7h296.7v134.5H1991.1z"/>
		<path class="st0" d="M2502.5,1375.2V709.6h493.9v130.7h-359.9V981h334.3v117.8h-334.3V1242h347v133.3H2502.5z"/>
		<path class="st0" d="M3083.7,709.6h247c62.5,0,109.5,5.8,141.4,17.1c31.6,11.3,61,30.3,87.8,57.3c26.8,26.9,47.6,61.9,63,105
			c15.2,42.9,22.8,96.1,22.8,160.1c0,57.6-8,107.6-23.9,150.1c-16.1,42.5-36.4,76.2-60.8,100.9c-24.6,24.7-54.1,43.5-88.8,56.1
			c-34.7,12.5-79.4,18.9-134.1,18.9h-254.2V709.6z M3218.7,822.3v440.3h101.7c43.4,0,74.9-3.4,94.5-10.1
			c19.5-6.3,35.5-16.6,47.9-29.9c12.5-13.6,22.8-34.9,31.1-63.7c8.1-29.1,12.1-67.2,12.1-114.8c0-49.1-4.1-88.1-12.4-116.6
			c-8.4-28.3-21.3-50.8-39.2-67.1c-17.7-16.3-39.1-27-64.4-32c-18.9-3.9-55.5-6-109.8-6H3218.7z"/>
		<path class="st0" d="M3904.1,1375.2l-233.6-665.6h142.9l165.5,492.6l160-492.6h140.1l-234.2,665.6H3904.1z"/>
		<path class="st0" d="M4849.2,1375.2h-149.5l-60-150.8h-273.5l-56.6,150.8H4163l266.1-665.6h146L4849.2,1375.2z M4595.2,1111.7
			L4500.8,865l-92.6,246.8H4595.2z"/>
		<path class="st0" d="M4866.3,1375.2V709.6h136.9l285.1,444.4V709.6h131.1v665.6H5278l-280.6-434.1v434.1H4866.3z"/>
		<path class="st0" d="M5958.6,1130.4l123.7,41.3c-19.2,74.6-51.5,129-96.2,163.4c-45.1,34.3-100.2,51.5-165.9,51.5
			c-82.4,0-149.2-27.3-200.4-82.1c-59-63.4-88.4-148.8-88.4-256.1c0-113.5,29.7-202.3,88.9-266.5c51.7-55.7,121-83.4,208-83.4
			c70.9,0,130.2,21,178,62.6c34.1,29.7,59,73.7,74.7,132.2L5955,924.8c-8.2-35.9-24.2-63.6-48.3-82.7c-24-19.4-52.4-29-85.1-29
			c-46.7,0-84.8,17.5-114.3,52.7c-29.5,35-44.4,93-44.4,173.7c0,84,14.5,143.5,43.2,178.9c28.8,35.4,66,53.2,112,53.2
			c33.7,0,62.8-11.4,87.4-33.8C5930,1215.3,5947.7,1179.4,5958.6,1130.4z"/>
		<path class="st0" d="M6191.7,1375.2V709.6H6661v112.7h-342v147.5h317.7v112H6319v180.7h353.6v112.7H6191.7z"/>
	</g>
	<g>
		<path class="st0" d="M1712.2,1042.5c0,430.3-348.8,779.2-779.2,779.2c-430.3,0-779.2-348.8-779.2-779.2
			c0-430.3,348.9-779.2,779.2-779.2C1363.3,263.3,1712.2,612.2,1712.2,1042.5z"/>
		<path class="st1" d="M1567.9,1042.5c0,350.6-284.3,634.9-634.9,634.9c-350.6,0-634.9-284.3-634.9-634.9
			c0-350.6,284.3-634.9,634.9-634.9C1283.6,407.6,1567.9,691.9,1567.9,1042.5z"/>
		<path class="st2" d="M1433.2,1042.5c0,276.2-224,500.2-500.2,500.2c-276.2,0-500.2-224-500.2-500.2c0-276.2,224-500.2,500.2-500.2
			C1209.2,542.3,1433.2,766.3,1433.2,1042.5z"/>
		<path class="st3" d="M1279.3,1042.5c0,191.2-155.1,346.3-346.3,346.3c-191.2,0-346.3-155.1-346.3-346.3S741.8,696.2,933,696.2
			C1124.2,696.2,1279.3,851.3,1279.3,1042.5z"/>
		<path class="st4" d="M1149.4,1042.5c0,119.5-96.9,216.4-216.4,216.4c-119.5,0-216.4-96.9-216.4-216.4C716.6,923,813.5,826,933,826
			C1052.5,826,1149.4,923,1149.4,1042.5z"/>
	</g>
</g>
</svg>