
<svg id="VELOCITY_LOGO_RGB" xmlns="http://www.w3.org/2000/svg" xmlns:xlink="http://www.w3.org/1999/xlink" viewBox="0 0 283.46 69"><defs><style>.cls-1{fill:none;}.cls-2{clip-path:url(#clip-path);}.cls-3{fill:url(#linear-gradient);}</style><clipPath id="clip-path"><path class="cls-1" d="M76,50.47V46a.65.65,0,0,1,.71-.71h9.19v-23H78.47a.62.62,0,0,1-.7-.67v-4.5a.61.61,0,0,1,.7-.68H91.08a.64.64,0,0,1,.71.68V45.3h10.29a.65.65,0,0,1,.71.71v4.46c0,.45-.24.67-.71.67H76.75c-.47,0-.71-.22-.71-.67M94,5.91a4.76,4.76,0,1,0-4.75,4.76A4.75,4.75,0,0,0,94,5.91m63.8,44.84V30.27a8.54,8.54,0,0,1,17.07,0V50.75h0a.63.63,0,0,0,.71.68h4.47a.6.6,0,0,0,.67-.68V30.17h0a14.22,14.22,0,0,0-3.85-9.81,14.72,14.72,0,0,0-10.42-4.2,10.07,10.07,0,0,0-8.65,4.31V17.39a.6.6,0,0,0-.68-.67h-4.45c-.47,0-.71.22-.71.67V50.75a.62.62,0,0,0,.71.68h4.45a.6.6,0,0,0,.68-.68M244.88,4a1.41,1.41,0,0,0-.69-1.41A13.5,13.5,0,0,0,236.66.62c-7.14,0-10.33,5.91-10.33,11.4v4.42h-7.14a.88.88,0,0,0-1,1v3.65a.88.88,0,0,0,1,1h7.14V50.16a.88.88,0,0,0,1,1h3.86a.88.88,0,0,0,1-1V22.05h11.06a.88.88,0,0,0,1-1V17.42a.87.87,0,0,0-1-1H232.16V12c0-3.62,1.83-5.78,4.9-5.78a10.48,10.48,0,0,1,6.39,2.11,1,1,0,0,0,.65.19c.46,0,.78-.4.78-1V4m-55.71,46.5c0,.45.24.67.71.67h25.33c.47,0,.71-.22.71-.67V46a.65.65,0,0,0-.71-.71H204.92V17.11a.64.64,0,0,0-.71-.68H191.6a.62.62,0,0,0-.71.68v4.5a.63.63,0,0,0,.71.67h7.47v23h-9.19a.65.65,0,0,0-.71.71v4.46m18-44.56a4.76,4.76,0,1,0-4.75,4.76,4.75,4.75,0,0,0,4.75-4.76M137,47.22v4.32c0,6.65-3.48,10.32-9.8,10.32-4.79,0-7.71-2-8.69-5.8-.13-.47-.25-.9-1-.9h-3.92a.89.89,0,0,0-1,1c.65,6.76,6.5,11.31,14.56,11.31,9.38,0,15.69-6.27,15.69-15.6V17.16a.62.62,0,0,0-.71-.68h-4.45a.68.68,0,0,0-.68.68v2.9a16.59,16.59,0,0,0-8-4.21.52.52,0,0,0-.63.5V21.6a.51.51,0,0,0,.38.49,12,12,0,0,1,8.43,11.72c0,6.69-5.07,12.12-11.32,12.12s-11.32-5.43-11.32-12.12a12,12,0,0,1,8.14-11.63.53.53,0,0,0,.37-.5V16.32a.52.52,0,0,0-.61-.51c-7.88,1.61-13.83,9-13.83,17.84,0,10,7.63,18.16,17,18.16A16.4,16.4,0,0,0,137,47.24M34.67,51.8c7.93,0,13.47-4.49,13.47-10.91,0-7-6.2-8.65-12-9.62-7.28-1.2-8.28-3.31-8.28-5.4,0-3.24,3.42-4.39,6.34-4.39,4,0,6.39,1.53,7.11,4.53.13.46.25.88,1,.88H46a.88.88,0,0,0,1-.95c0-6-5.17-10-12.86-10-8.33,0-12.12,5.16-12.12,10,0,6,3.12,9,10.78,10.29l.22,0c5.24.93,9,1.6,9,5.37,0,3.2-3.71,4.66-7.16,4.66-4.28,0-6.92-2.06-7.43-5.78-.07-.46-.23-.92-1-.92H22.15a.89.89,0,0,0-1,1c0,6.66,5.54,11.31,13.48,11.31M38.41,0h-.09a1.06,1.06,0,0,0-.84.23.8.8,0,0,0-.22.62V5.32h0a.45.45,0,0,0,.4.48,28.76,28.76,0,1,1-6.12,0,.46.46,0,0,0,.4-.48h0V.86a.8.8,0,0,0-.22-.62A1.06,1.06,0,0,0,30.87,0h-.09a34.6,34.6,0,1,0,7.63,0m224.82,54.1A29.12,29.12,0,0,1,261,59a4.87,4.87,0,0,1-2.19,1.91,3.7,3.7,0,0,1-1.69.41,4.17,4.17,0,0,1-.71-.07,18.47,18.47,0,0,1-2.6-.78,4.14,4.14,0,0,0-1.35-.43.78.78,0,0,0-.82.88v3.85a1.36,1.36,0,0,0,.84,1.32,11.05,11.05,0,0,0,5.12,1.11,9.9,9.9,0,0,0,4.64-1.52,12.3,12.3,0,0,0,3.79-3.72,18.65,18.65,0,0,0,1.33-2.38c.82-1.76,13.38-34.89,16-42h0a1.62,1.62,0,0,0,.08-.56.72.72,0,0,0-.82-.75h-4.2a1,1,0,0,0-1.09.72h0l-9.87,26L257.29,17.15c-.23-.63-.51-.88-1.15-.88h-4.22a.78.78,0,0,0-.83.82,1.18,1.18,0,0,0,.11.49v0h0l13.17,33.53-1.14,3"/></clipPath><linearGradient id="linear-gradient" x1="30.42" y1="112.44" x2="253.05" y2="-43.44" gradientUnits="userSpaceOnUse"><stop offset="0.5" stop-color="rgb(156 163 175)"/><stop offset="1" stop-color="rgb(156 163 175)"/></linearGradient></defs><title>VELOCITY_LOGO_RGB</title><g class="cls-2"><rect class="cls-3" width="283.46" height="69"/></g></svg>