<svg
  xmlns="http://www.w3.org/2000/svg"
  viewBox="0 0 144.57 26.93"
  style="color: rgb(156 163 175)"
>
  <path
    fill="currentColor"
    d="M13.78,9.48a6.53,6.53,0,0,1,.33,2.12V22.42H10.19V12.69A4.94,4.94,0,0,0,10,11.2a1.81,1.81,0,0,0-.57-1.07,2.12,2.12,0,0,0-1.06-.52,5.7,5.7,0,0,0-1.26-.07,4.22,4.22,0,0,0-1.25.31,3.38,3.38,0,0,0-1.17.9,4.19,4.19,0,0,0-.81,2.39v9.27H0V0H3.93V7.82l.26-.25A5.24,5.24,0,0,1,6.57,6.24,6.32,6.32,0,0,1,8.69,6a9,9,0,0,1,.94.12,6.52,6.52,0,0,1,2.4,1,4.76,4.76,0,0,1,1.31,1.38A4.69,4.69,0,0,1,13.6,9,2.84,2.84,0,0,1,13.78,9.48Zm54.87-3A6,6,0,0,0,67,7.35,4.72,4.72,0,0,0,65.75,8.8V6.34H61.89V22.43h3.85v-9A2.83,2.83,0,0,1,66.94,11a4.33,4.33,0,0,1,2.1-.89,6.5,6.5,0,0,1,2.2.1v-4A7.12,7.12,0,0,0,68.66,6.46ZM49.41,15.25a5,5,0,0,0,1.16,3.14,4.09,4.09,0,0,0,4.65.94,3.45,3.45,0,0,0,1.92-2.63H61.2v.14a6.74,6.74,0,0,1-1.67,3.48,7.57,7.57,0,0,1-4.4,2.35,9.9,9.9,0,0,1-4-.18A7.91,7.91,0,0,1,48,20.75a7.8,7.8,0,0,1-1.74-2.6,9.78,9.78,0,0,1-.64-4,9.68,9.68,0,0,1,.89-4.32,7.09,7.09,0,0,1,3.62-3.38A8.29,8.29,0,0,1,55.32,6a7.14,7.14,0,0,1,4.83,3.53,10.46,10.46,0,0,1,1,5.7H49.41Zm.19-3h7.62a3.42,3.42,0,0,0-1.79-2.93,3.91,3.91,0,0,0-3.83-.15A3.73,3.73,0,0,0,49.61,12.24Zm-20.36,7.9a4.47,4.47,0,0,0,.88,2.29h-4.7V21a6.24,6.24,0,0,1-2.54,1.41,7.55,7.55,0,0,1-2.85.25,6.56,6.56,0,0,1-3.43-1.26,4.5,4.5,0,0,1-1.79-2.9,4.65,4.65,0,0,1,.41-2.88,5,5,0,0,1,2.35-2.09,21.4,21.4,0,0,1,3.56-.89l3.46-.7a1,1,0,0,0,.68-.36,1.74,1.74,0,0,0,.15-.93,1.35,1.35,0,0,0-.75-1.26,4.37,4.37,0,0,0-2.06-.44,4.17,4.17,0,0,0-2.91.82,2.81,2.81,0,0,0-.48,1.75H15.47a6.53,6.53,0,0,1,.79-3.18A5.17,5.17,0,0,1,19.45,6.2a16.9,16.9,0,0,1,2.94-.32,12.44,12.44,0,0,1,2.93.32,7.19,7.19,0,0,1,2.43,1l.15.12a3.46,3.46,0,0,1,1.36,3Zm-3.82-3.79V14.47a13.7,13.7,0,0,1-1.73.39,25.67,25.67,0,0,0-2.92.67,5.67,5.67,0,0,0-1.25.55,1.74,1.74,0,0,0-.83,1.57,2.06,2.06,0,0,0,1.47,1.87A4.89,4.89,0,0,0,24,19,3,3,0,0,0,25.44,16.35Zm15.87-10H45V22a4,4,0,0,1-.8,2.59,5.75,5.75,0,0,1-3.76,2.12s-5.35.9-8.11-.86a4.22,4.22,0,0,1-2-3.23v-.18h4.11c.12.94.75,2,3.95,1.84s2.92-2.21,2.92-2.21V20a7.08,7.08,0,0,1-4.59,1.62,6.7,6.7,0,0,1-5.66-3,8.66,8.66,0,0,1-1.14-6.39,6.8,6.8,0,0,1,2.79-4.69,7.14,7.14,0,0,1,4.4-1.29,6.36,6.36,0,0,1,4.2,1.7Zm0,7.19A7.08,7.08,0,0,0,41,11.74a3.37,3.37,0,0,0-1-1.44,4.11,4.11,0,0,0-4.37-.52c-.25.12-2,.86-2.15,3.7a4.93,4.93,0,0,0,1.53,4.13,4,4,0,0,0,4.9-.07c1.25-1,1.36-2.28,1.36-3.75Zm49.32-3.43h-.06V6.34H88.77V22.43h2V13.86a5.54,5.54,0,0,1,6-5.77v-2A5.91,5.91,0,0,0,90.64,10.12ZM112,14.27c0,4.61-2.71,8.51-7.6,8.51s-7.6-3.9-7.6-8.51,2.71-8.51,7.6-8.51S112,9.66,112,14.27Zm-2,0c0-3.4-1.9-6.86-5.64-6.86s-5.64,3.46-5.64,6.86,1.9,6.85,5.64,6.85S110,17.67,110,14.27Zm15.28.4c0,3.27-1.46,6.45-4.83,6.45-3.12,0-4.21-1.52-4.3-4.42V6.34h-2V16.67c0,3.77,1.56,6.11,5.64,6.11a6,6,0,0,0,5.55-3.37h.06v3h1.8V6.34h-2Zm19.26-.4c0,4.58-2.34,8.51-7.23,8.51a5.72,5.72,0,0,1-5.58-3.52h-.06v7.62h-2V6.34h1.81V9.29h.06a6,6,0,0,1,5.74-3.52C142.23,5.76,144.57,9.69,144.57,14.27Zm-2,0c0-3.33-1.53-6.86-5.27-6.86-4.36,0-5.64,3.21-5.64,6.86,0,3.33,1.5,6.85,5.64,6.85C141.08,21.13,142.61,17.61,142.61,14.27ZM84.31,6.34h2V21.21a6.69,6.69,0,0,1-.3,2.1c-.8,2.41-3.2,3.61-6.43,3.61h-.41c-3.21,0-6.42-1.35-6.67-4.48h2c.41,2.18,2.56,2.84,4.71,2.84h.58a6.64,6.64,0,0,0,3.05-.77,3,3,0,0,0,1.42-2.23,16.73,16.73,0,0,0,.11-2V18.38h-.06a5.43,5.43,0,0,1-5.11,3c-5.14,0-7.26-3.36-7.26-7.61,0-4.08,2.62-7.47,7.26-7.47a5.67,5.67,0,0,1,5.11,3h.06Zm0,7.67c0-2.9-1.43-6.15-5.17-6.15s-5.3,3.07-5.3,6.15,1.65,5.89,5.3,5.89C82.53,19.9,84.31,17,84.31,14Z"
  />
</svg>