<svg
  xmlns:svg="http://www.w3.org/2000/svg"
  xmlns="http://www.w3.org/2000/svg"
  version="1.0"
  viewBox="0 0 250 62"
  style="color: rgb(156 163 175)"
>
  <path
    d="M 12.45,0 L 12.45,15.13 L 15.14,15.13 L 15.14,0 L 12.45,0 z M 16.65,3.59 L 16.65,15.09 L 28.77,15.09 L 28.77,45.18 L 39.8,45.18 L 39.8,3.59 L 16.65,3.59 z M 0,3.64 L 0,45.23 L 23.11,45.23 L 23.11,33.73 L 10.99,33.73 L 10.99,3.64 L 0,3.64 z M 24.62,33.68 L 24.62,48.86 L 27.3,48.86 L 27.3,33.68 L 24.62,33.68 z"
    fill="currentColor"
    style="fill-opacity: 1; fill-rule: nonzero; stroke: none"
  />
  <path
    d="M 54.19,2.41 L 54.19,47.31 L 63.94,47.31 L 63.94,2.41 L 54.19,2.41 z M 226.08,2.41 L 226.08,17.31 C 223.98,15.78 220.57,15.53 220.57,15.53 C 210.07,15.26 205.59,24.14 205.62,31.09 C 205.54,40.2 211.55,47.64 220.53,46.93 C 222.62,46.71 224.34,45.89 226.08,44.52 L 226.08,47.31 L 236.27,47.31 L 236.27,2.41 L 226.08,2.41 z M 81.49,13.26 C 73.5,13.26 65.65,19.83 65.65,30.18 C 65.66,41.83 72.95,48.58 82.58,48.29 C 89.93,48.05 95.02,43.4 96.87,36.88 L 86.82,36.88 C 86.31,37.92 84.9,39.14 81.96,39.14 C 78.2,39.14 76.21,36.35 76.21,33.58 L 97.43,33.58 C 98.64,21.49 90.85,13.26 81.49,13.26 z M 152.8,13.91 C 147.67,13.91 143.46,17.84 143.46,17.84 L 143.46,14.49 L 133,14.49 L 133,47.31 L 143.46,47.31 L 143.46,30.56 C 143.53,22.38 152.8,21.79 152.8,21.79 L 152.8,13.91 z M 155.2,13.91 L 155.2,21.56 C 155.2,21.56 156.1,21.34 159.88,21.46 C 164.68,21.64 164.12,25.56 164.12,25.56 C 164.12,25.56 161.78,24.13 158.41,24.1 C 154.73,24.01 147.34,26.26 147.34,36.04 C 147.32,44.65 154.23,47.16 158.32,47.16 C 162.26,47.16 164.54,45.23 164.54,45.23 L 164.54,47.31 L 174.06,47.31 C 174.06,47.31 174.06,29.64 174.06,24.94 C 174.06,20.6 173.26,19.42 171.28,17.22 C 168.51,14.17 161.94,13.91 161.94,13.91 L 155.2,13.91 z M 120.68,14.44 L 120.68,17.88 C 113.94,11.06 98.2,15.99 98.76,31.37 C 99.24,45.77 114.47,50.1 120.68,44.52 L 120.68,48.33 C 120.65,52.7 115.31,52.55 115.31,52.55 C 110.65,52.33 109.65,49.38 109.65,49.38 L 97.9,49.38 C 100.36,65.78 129.14,66.41 130.49,50.7 L 130.49,14.44 L 120.68,14.44 z M 176.33,14.44 L 176.33,47.31 L 186.38,47.31 L 186.38,27.92 C 186.38,23.24 193.83,22.92 193.83,27.92 L 193.83,47.31 L 203.73,47.31 L 203.73,22.74 C 203.73,17.78 197.27,10.49 186.38,17.55 L 186.38,14.44 L 176.33,14.44 z M 81.49,21.88 C 84.3,21.88 86.61,23.98 86.91,26.69 L 76.08,26.69 C 76.39,23.98 78.69,21.88 81.49,21.88 z M 114.6,24.58 C 118.1,24.58 120.97,27.42 120.97,30.93 C 120.97,34.45 118.1,37.26 114.6,37.26 C 111.09,37.26 108.28,34.45 108.28,30.93 C 108.28,27.42 111.09,24.58 114.6,24.58 z M 220.42,24.85 C 223.91,24.85 226.74,27.71 226.74,31.22 C 226.74,34.71 223.91,37.54 220.42,37.54 C 216.92,37.54 214.1,34.71 214.1,31.22 C 214.11,27.71 216.92,24.85 220.42,24.85 z M 160.43,30.98 C 162.76,30.98 164.63,32.91 164.63,35.24 C 164.63,37.58 162.76,39.43 160.43,39.43 C 158.1,39.43 156.19,37.58 156.19,35.24 C 156.19,32.91 158.1,30.98 160.43,30.98 z"
    fill="currentColor"
    style="fill-opacity: 1; fill-rule: nonzero; stroke: none"
  />
  <path
    d="M 244.28,2.46 C 241.17,2.46 238.58,5.04 238.58,8.16 C 238.58,11.32 241.17,13.87 244.28,13.87 C 247.45,13.87 250,11.32 250,8.16 C 250,5.04 247.43,2.46 244.28,2.46 z M 244.28,3.26 C 247,3.26 249.2,5.49 249.2,8.16 C 249.2,10.86 246.98,13.02 244.28,13.02 C 241.59,13.02 239.39,10.86 239.39,8.16 C 239.38,5.49 241.58,3.26 244.28,3.26 z M 242.02,5.1 L 242.02,11.09 L 242.83,11.09 L 242.83,8.49 L 244.76,8.49 C 245.71,8.49 245.85,9.08 245.85,9.58 C 245.85,9.81 245.85,10.73 245.99,11.09 L 246.98,11.09 L 246.98,10.94 C 246.72,10.79 246.66,10.68 246.65,10.34 L 246.6,9.25 C 246.57,8.42 246.23,8.25 245.89,8.12 C 246.27,7.89 246.74,7.59 246.74,6.7 C 246.74,5.43 245.71,5.1 244.76,5.1 L 242.02,5.1 z M 242.83,5.76 L 244.81,5.76 C 245.23,5.76 245.89,5.88 245.89,6.79 C 245.89,7.68 245.28,7.83 244.67,7.83 L 242.83,7.83 L 242.83,5.76 z"
    style="
      fill: #888689;
      fill-opacity: 1;
      fill-rule: nonzero;
      stroke: none;
    "
  />
</svg>