
<svg
   xmlns:dc="http://purl.org/dc/elements/1.1/"
   xmlns:cc="http://creativecommons.org/ns#"
   xmlns:rdf="http://www.w3.org/1999/02/22-rdf-syntax-ns#"
   xmlns:svg="http://www.w3.org/2000/svg"
   xmlns="http://www.w3.org/2000/svg"
   xmlns:sodipodi="http://sodipodi.sourceforge.net/DTD/sodipodi-0.dtd"
   xmlns:inkscape="http://www.inkscape.org/namespaces/inkscape"
   version="1.1"
   id="svg10"
   width="1200.1282"
   height="242.31676"
   viewBox="0 0 1200.1281 242.31675"
   sodipodi:docname="lucide.svg"
   inkscape:version="0.92.4 (5da689c313, 2019-01-14)">
  <metadata
     id="metadata16">
    <rdf:RDF>
      <cc:Work
         rdf:about="">
        <dc:format>image/svg+xml</dc:format>
        <dc:type
           rdf:resource="http://purl.org/dc/dcmitype/StillImage" />
        <dc:title></dc:title>
      </cc:Work>
    </rdf:RDF>
  </metadata>
  <defs
     id="defs14" />
  <sodipodi:namedview
     pagecolor="#ffffff"
     bordercolor="#666666"
     borderopacity="1"
     objecttolerance="10"
     gridtolerance="10"
     guidetolerance="10"
     inkscape:pageopacity="0"
     inkscape:pageshadow="2"
     inkscape:window-width="1600"
     inkscape:window-height="837"
     id="namedview12"
     showgrid="false"
     inkscape:pagecheckerboard="true"
     fit-margin-top="20"
     fit-margin-left="20"
     fit-margin-right="20"
     fit-margin-bottom="20"
     inkscape:zoom="0.15817079"
     inkscape:cx="4597.311"
     inkscape:cy="-1461.1451"
     inkscape:window-x="1912"
     inkscape:window-y="-8"
     inkscape:window-maximized="1"
     inkscape:current-layer="svg10" />
  <path
     style="fill:#000000;stroke-width:0.190155"
     d="m 22.753495,221.86655 c -1.142718,-0.54021 -1.841383,-1.25 -2.361551,-2.39912 L 20.0046,218.61173 20.0023,121.15729 20,23.702834 20.443398,22.750676 c 0.525352,-1.128159 1.479542,-2.019767 2.622914,-2.45097 0.766836,-0.289202 20.266147,-0.308503 263.368298,-0.261052 l 262.54013,0.05125 0.82455,0.578905 c 0.45351,0.318402 1.03847,0.960158 1.29992,1.426161 l 0.4754,0.847257 0.0951,21.580276 0.0951,21.580224 1.90157,0.234852 c 8.42891,1.041109 16.39983,4.282836 23.81104,9.68383 3.56578,2.598621 4.64429,3.961983 4.64429,5.871098 0,1.20881 -0.3509,1.953465 -1.28216,2.721122 -1.70591,1.406161 -4.11883,1.16721 -6.1221,-0.606255 -2.35602,-2.085767 -6.46711,-4.773338 -9.54673,-6.24105 -3.80843,-1.815065 -8.24321,-3.141226 -12.26985,-3.66903 -2.52862,-0.331503 -7.62316,-0.379254 -9.98328,-0.09355 -8.49057,1.027708 -16.01903,4.434386 -22.98542,10.401134 -0.6035,0.516905 -2.31812,1.19381 -3.02037,1.19236 -1.72692,-0.005 -3.29018,-1.15171 -3.75768,-2.759872 -0.58161,-2.000666 0.2019,-3.337628 3.48832,-5.952049 7.0035,-5.571495 15.62342,-9.278526 24.21103,-10.412086 1.29492,-0.170901 2.46173,-0.342003 2.59298,-0.380203 0.18975,-0.05525 0.22869,-3.955531 0.19015,-19.043054 l -0.0486,-18.973555 H 285.83294 28.077835 v 93.080871 93.08087 l 320.442345,0.0951 320.44233,0.0951 0.80996,0.57047 c 1.07846,0.75963 1.69482,1.94826 1.69482,3.26865 0,1.72942 -0.79876,2.97107 -2.37693,3.69505 -0.73685,0.338 -10.83244,0.34899 -323.07335,0.35123 l -322.31274,0.003 -0.950775,-0.44949 z m 675.219255,0.17018 c -2.07537,-0.45147 -3.35993,-1.35956 -3.96204,-2.80089 -0.26495,-0.63434 -0.29519,-7.16964 -0.29425,-63.60685 0,-43.30462 0.0632,-63.123647 0.20055,-63.618151 0.43386,-1.562363 2.11978,-2.787473 3.84678,-2.795422 1.63857,-0.0075 3.23388,1.207209 3.72109,2.833372 0.16064,0.536254 0.21705,16.513681 0.21705,61.504531 v 60.78007 l 235.17425,-0.0476 235.17412,-0.0476 V 121.15731 28.076469 l -298.06792,-0.0951 -298.06797,-0.09505 -0.80155,-0.543854 c -1.01051,-0.685605 -1.76727,-2.122367 -1.76137,-3.344177 0.008,-1.682964 1.25066,-3.372827 2.79542,-3.801831 0.4998,-0.138801 91.88814,-0.198502 300.49764,-0.196402 l 299.77935,0.005 0.8557,0.387354 c 1.1491,0.520154 1.8589,1.21881 2.3991,2.361569 l 0.4495,0.950758 v 97.454456 97.45444 l -0.4495,0.95077 c -0.5402,1.14271 -1.25,1.84139 -2.3991,2.36155 l -0.8557,0.38735 -238.64454,-0.0111 C 740.00299,222.2932 698.93581,222.248 697.97275,222.03848 Z M 544.5388,174.58211 c -15.18787,-0.92391 -28.83346,-8.58091 -37.93879,-21.28862 -8.85802,-12.36264 -12.33786,-28.83282 -9.30076,-44.02088 0.82229,-4.11204 1.21189,-4.87069 2.93406,-5.71327 2.36522,-1.1572 4.70824,-0.0101 5.43919,2.66298 0.17195,0.62887 0.12356,1.12412 -0.294,3.00769 -0.91865,4.14411 -1.11586,6.01841 -1.13481,10.78635 -0.0245,6.13406 0.5624,9.98122 2.34902,15.40255 5.79385,17.58083 20.73485,29.73868 38.35114,31.20725 10.57729,0.88177 22.02808,-3.31171 30.87545,-11.30709 2.57793,-2.32964 5.3667,-2.41779 6.89407,-0.21789 1.11615,1.6076 0.8822,3.81412 -0.57631,5.43638 -1.95307,2.17226 -6.79786,5.7867 -10.63219,7.93208 -5.8968,3.29938 -13.54721,5.61948 -19.83526,6.01535 -3.65258,0.22995 -4.71029,0.24437 -7.13081,0.0971 z M 121.02997,172.7593 c -1.15241,-0.41002 -2.24869,-1.67746 -2.5117,-2.90387 -0.28978,-1.35117 -0.3024,-97.697602 -0.013,-99.047113 0.81258,-3.788982 6.19753,-4.322587 7.68289,-0.761306 0.26371,0.632255 0.29487,5.711447 0.29487,48.061689 l 1e-5,47.3547 h 29.08477 c 22.21627,0 29.21036,0.054 29.61663,0.22843 1.60571,0.6896 2.36552,1.81375 2.36552,3.49985 0,1.39505 -0.59937,2.45117 -1.8187,3.20459 l -0.93582,0.57826 -31.4856,0.0337 c -27.43253,0.0293 -31.58785,-0.003 -32.27988,-0.24892 z m 213.10235,0.10943 c -12.32178,-1.08751 -23.57891,-6.29807 -31.66113,-14.65488 -6.67659,-6.90343 -10.55077,-15.09125 -11.49257,-24.28878 -0.27558,-2.69119 -0.2785,-62.589199 -0.003,-63.580807 0.44687,-1.609014 2.0049,-2.684773 3.88981,-2.685773 1.69379,0 2.83049,0.652755 3.58564,2.061867 l 0.40761,0.760607 0.10282,32.136216 0.10282,32.13619 0.42444,1.85616 c 1.91051,8.35467 6.57747,15.413 13.58192,20.54137 9.09472,6.65876 21.16252,9.49405 32.47105,7.62895 8.75872,-1.44455 16.79589,-5.45424 22.63315,-11.29151 4.4416,-4.44159 7.57183,-9.77544 9.01489,-15.36123 0.9868,-3.81973 0.93071,-1.8836 1.04633,-36.11163 l 0.10738,-31.787117 0.57221,-0.814059 c 1.68026,-2.390519 5.24806,-2.339868 6.89136,0.0978 l 0.61801,0.916759 -0.003,31.496717 c -0.003,26.62689 -0.0465,31.79964 -0.282,33.45599 -1.22499,8.61788 -5.01429,16.27605 -11.205,22.64537 -2.74298,2.82215 -4.94619,4.65352 -8.05772,6.69787 -6.30285,4.14114 -13.67979,6.85035 -21.4302,7.87035 -2.80821,0.36957 -8.63124,0.51037 -11.31423,0.27357 z m 488.69709,0.0232 c -1.45456,-0.44246 -2.50437,-1.41487 -2.84273,-2.63303 -0.27374,-0.98583 -0.27374,-98.928784 0,-99.914643 0.25531,-0.919209 0.98511,-1.772116 1.96467,-2.29612 0.78026,-0.417353 0.84286,-0.419803 12.3837,-0.479554 11.7796,-0.061 16.47579,0.088 20.53672,0.651656 16.53034,2.29447 31.09791,10.600537 40.3167,22.987637 2.20593,2.964124 3.36701,4.884956 5.05731,8.366808 2.38236,4.907626 3.80593,9.730276 4.46219,15.117316 0.38202,3.13567 0.28584,9.69936 -0.18542,12.64532 -3.4286,21.43669 -20.9604,38.88486 -44.32404,44.11261 -2.93032,0.65568 -6.53305,1.17346 -9.89048,1.42147 -3.03212,0.22398 -26.75151,0.2417 -27.47862,0.0206 z m 29.38019,-7.8795 c 10.54733,-1.37236 19.2772,-4.83043 27.09712,-10.73368 2.47907,-1.87147 6.39174,-5.6631 8.1789,-7.92593 5.48784,-6.94829 8.67254,-14.97627 9.3301,-23.51902 0.88199,-11.45942 -3.81545,-23.351842 -12.75516,-32.291479 -6.56535,-6.565353 -15.32152,-11.401042 -24.8152,-13.704361 -5.51505,-1.338061 -6.0038,-1.375061 -19.25321,-1.458061 l -12.02729,-0.0753 v 45.100331 45.10034 l 10.98144,-0.098 c 8.38091,-0.0748 11.52184,-0.16829 13.2633,-0.39487 z m 166.9822,7.77863 c -0.8349,-0.29765 -1.7183,-1.07013 -2.1823,-1.90825 -0.2921,-0.52756 -0.3158,-4.32641 -0.3158,-50.50106 V 70.451164 l 0.5721,-0.925459 c 0.4065,-0.657355 0.8457,-1.066158 1.5162,-1.411261 l 0.944,-0.485804 h 31.4758 31.4757 l 0.8483,0.475404 c 2.7121,1.519812 2.6765,5.245293 -0.064,6.711306 l -0.7842,0.419503 -28.9511,0.05165 -28.9511,0.0517 V 95.8708 116.40341 l 25.1479,8.6e-4 c 17.8342,8.7e-4 25.3691,0.0624 25.9081,0.21205 1.037,0.28792 2.2761,1.55661 2.5639,2.62522 0.4131,1.53418 -0.2411,3.28025 -1.5549,4.14965 l -0.7905,0.52314 -25.6373,0.0496 -25.6372,0.0496 v 20.72487 20.72486 h 28.9386 28.9386 l 0.8258,0.39978 c 2.3051,1.11587 2.7745,4.1181 0.9316,5.95824 -0.4453,0.44461 -1.1184,0.8811 -1.5644,1.01433 -1.2198,0.36448 -62.6269,0.32138 -63.6537,-0.0447 z M 695.99728,72.310629 c -2.62317,-0.860556 -4.44073,-3.276478 -4.45223,-5.917999 -0.009,-1.906216 0.49325,-3.110475 1.86826,-4.485487 1.37501,-1.375011 2.57927,-1.876615 4.48553,-1.868315 2.23282,0.0095 4.387,1.348011 5.4832,3.406427 0.45121,0.847157 0.5064,1.15796 0.50651,2.852324 1.4e-4,1.618613 -0.0647,2.023066 -0.4359,2.718272 -0.64001,1.198611 -1.59717,2.176769 -2.73883,2.798774 -0.8517,0.464054 -1.25986,0.557454 -2.62482,0.600705 -0.88901,0.028 -1.83026,-0.019 -2.09172,-0.104701 z"
     id="path20"
     inkscape:connector-curvature="0" />
</svg>
