
<svg version="1.1" id="Layer_1" xmlns="http://www.w3.org/2000/svg" xmlns:xlink="http://www.w3.org/1999/xlink" x="0px" y="0px"
	 viewBox="0 0 147.8 32.9" style="enable-background:new 0 0 147.8 32.9;" xml:space="preserve">
<style type="text/css">
	.st0{fill:rgb(156 163 175);}
</style>
<g>
	<g>
		<path class="st0" d="M47.1,8.1v8.7c0,1-0.8,1.6-1.7,1.6c-0.8,0-1.4-0.6-1.4-1.6V3.6c0-1.2,1-1.6,1.4-1.6c0.7,0,1.1,0.4,1.5,0.8l5.2,7l5.4-7.2
			c0.8-1,2.7-0.6,2.7,1v13.2c0,1-0.7,1.6-1.4,1.6c-0.8,0-1.5-0.6-1.5-1.6V8.1L53.2,13c-0.8,1-1.9,1-2.7,0L47.1,8.1z"/>
		<path class="st0" d="M71.6,18.6c-4.3,0.2-8.9-2.7-8.9-8.5c0-5.8,4.5-8.6,8.9-8.6c4.1,0.2,8.4,3.1,8.4,8.6C80,15.7,75.7,18.6,71.6,18.6z
			 M71.3,4.6c-2.6,0-5.5,1.9-5.5,5.6c0,3.7,2.9,5.6,5.5,5.6c2.7,0,5.6-1.9,5.6-5.6C76.9,6.5,74,4.6,71.3,4.6z"/>
		<path class="st0" d="M84.5,18.4c-0.8,0-1.6-0.4-1.6-1.5V3.6c0-0.8,0.8-1.5,1.6-1.5h5.4c10.7,0,10.5,16.3,0.2,16.3H84.5z M86,5v10.5h3.9
			c6.3,0,6.6-10.5,0-10.5H86z"/>
		<path class="st0" d="M102.1,18.4c-0.8,0-1.5-0.6-1.5-1.5V3.6c0-0.8,0.6-1.5,1.5-1.5h8.4c2.2,0,2.1,3.1,0,3.1h-6.8v3.5h5.9c2.1,0,2.1,3.1,0,3.1
			h-5.9v3.5h7.2c2.1,0,2.3,3.1,0,3.1H102.1z"/>
		<path class="st0" d="M115.1,3.8c0-0.8,0.2-1.7,1.4-1.7c0.8,0,1,0.2,1.7,0.8l7.8,9.7V3.6c0-0.8,0.7-1.6,1.5-1.6c0.8,0,1.7,0.8,1.7,1.6v13.2
			c0,1-0.6,1.4-1.2,1.6c-0.8,0-1.2-0.2-1.9-0.8l-7.8-9.9v9.1c0,1-0.6,1.6-1.5,1.6c-0.8,0-1.6-0.6-1.6-1.6V3.8z"/>
		<path class="st0" d="M132,18.4c-0.8-0.4-1.2-1.3-0.8-2.3L138,3c0.6-1.2,2.3-1.3,2.9,0l6.6,13.2c1,1.8-1.9,3.3-2.7,1.5l-1-2.1h-8.7l-1,2.1
			C133.8,18.4,132.9,18.6,132,18.4z M142.1,12.4l-2.7-5.8l-2.9,5.8H142.1z"/>
	</g>
	<g>
		<path class="st0" d="M43.7,26.5c0-0.3,0.2-0.5,0.5-0.5c0.3,0,0.5,0.2,0.5,0.5v4.1H47c0.8,0,0.8,1.1,0,1.1h-2.7c-0.3,0-0.5-0.2-0.5-0.5V26.5z"
			/>
		<path class="st0" d="M57.9,26.5c0-0.7,1.1-0.7,1.1,0v4.7c0,0.7-1.1,0.7-1.1,0V26.5z"/>
		<path class="st0" d="M74.5,31.1c-0.6,0.5-1.3,0.7-2,0.7c-1.7,0-3-1-3-3c0-1.7,1.3-3,3-3c0.7,0,1.4,0.2,1.9,0.7c0.5,0.5-0.2,1.2-0.7,0.8
			c-0.3-0.3-0.7-0.5-1.2-0.5c-1,0-2,0.8-2,2c0,1.2,0.8,2,1.9,2c0.5,0,0.9-0.1,1.2-0.4v-1h-1.2c-0.7,0-0.7-1,0-1h1.7
			c0.3,0,0.6,0.2,0.6,0.5v1.8C74.7,30.8,74.6,30.9,74.5,31.1z"/>
		<path class="st0" d="M85.3,31.2v-4.7c0-0.3,0.2-0.5,0.6-0.5c0.3,0,0.5,0.2,0.5,0.5v1.8h2.7v-1.8c0-0.3,0.3-0.5,0.6-0.5c0.3,0,0.5,0.2,0.5,0.5
			v4.7c0,0.3-0.2,0.5-0.5,0.5c-0.3,0-0.6-0.2-0.6-0.5v-1.8h-2.7v1.8c0,0.3-0.2,0.5-0.5,0.5C85.5,31.7,85.3,31.5,85.3,31.2z"/>
		<path class="st0" d="M102.3,27h-1.4c-0.7,0-0.7-1.1,0-1.1h3.9c0.7,0,0.7,1.1,0,1.1h-1.4v4.2c0,0.7-1.1,0.7-1.1,0V27z"/>
		<path class="st0" d="M115.6,26.5c0-0.7,1.1-0.7,1.1,0v4.7c0,0.7-1.1,0.7-1.1,0V26.5z"/>
		<path class="st0" d="M127.3,26.6c0-0.3,0.1-0.6,0.5-0.6c0.3,0,0.4,0.1,0.6,0.3l2.7,3.4v-3.2c0-0.3,0.2-0.6,0.5-0.6c0.3,0,0.6,0.3,0.6,0.6v4.7
			c0,0.4-0.2,0.5-0.4,0.6c-0.3,0-0.4-0.1-0.7-0.3l-2.7-3.5v3.2c0,0.4-0.2,0.6-0.5,0.6c-0.3,0-0.6-0.2-0.6-0.6V26.6z"/>
		<path class="st0" d="M147.7,31.1c-0.6,0.5-1.3,0.7-2,0.7c-1.7,0-3-1-3-3c0-1.7,1.3-3,3-3c0.7,0,1.4,0.2,1.9,0.7c0.5,0.5-0.2,1.2-0.7,0.8
			c-0.3-0.3-0.7-0.5-1.2-0.5c-1,0-2,0.8-2,2c0,1.2,0.8,2,1.9,2c0.5,0,0.9-0.1,1.2-0.4v-1h-1.2c-0.7,0-0.7-1,0-1h1.7
			c0.3,0,0.6,0.2,0.6,0.5v1.8C147.9,30.8,147.8,30.9,147.7,31.1z"/>
	</g>
	<path class="st0" d="M30.7,2.2v28.5H2.2V2.2H30.7 M30.7,0H2.2C1,0,0,1,0,2.2v28.5c0,1.2,1,2.2,2.2,2.2h28.5c1.2,0,2.2-1,2.2-2.2V2.2
		C32.9,1,31.9,0,30.7,0L30.7,0z"/>
	<path class="st0" d="M16.5,11.4c2.8,0,5.1,2.3,5.1,5.1c0,2.8-2.3,5.1-5.1,5.1c-2.8,0-5.1-2.3-5.1-5.1
		C11.4,13.6,13.7,11.4,16.5,11.4 M16.5,8.6c-4.3,0-7.8,3.5-7.8,7.8c0,4.3,3.5,7.8,7.8,7.8c4.3,0,7.8-3.5,7.8-7.8
		C24.3,12.1,20.8,8.6,16.5,8.6L16.5,8.6z"/>
</g>
</svg>
