
<svg
   xmlns:dc="http://purl.org/dc/elements/1.1/"
   xmlns:cc="http://creativecommons.org/ns#"
   xmlns:rdf="http://www.w3.org/1999/02/22-rdf-syntax-ns#"
   xmlns:svg="http://www.w3.org/2000/svg"
   xmlns="http://www.w3.org/2000/svg"
   xmlns:sodipodi="http://sodipodi.sourceforge.net/DTD/sodipodi-0.dtd"
   xmlns:inkscape="http://www.inkscape.org/namespaces/inkscape"
   version="1.1"
   id="Layer_1"
   x="0px"
   y="0px"
   viewBox="0 0 929.06918 269.1358"
   xml:space="preserve"
   sodipodi:docname="nowodvorski.svg"
   width="929.06915"
   height="269.1358"
   inkscape:version="0.92.4 (5da689c313, 2019-01-14)"><metadata
   id="metadata57"><rdf:RDF><cc:Work
       rdf:about=""><dc:format>image/svg+xml</dc:format><dc:type
         rdf:resource="http://purl.org/dc/dcmitype/StillImage" /><dc:title></dc:title></cc:Work></rdf:RDF></metadata><defs
   id="defs55" /><sodipodi:namedview
   pagecolor="#ffffff"
   bordercolor="#666666"
   borderopacity="1"
   objecttolerance="10"
   gridtolerance="10"
   guidetolerance="10"
   inkscape:pageopacity="0"
   inkscape:pageshadow="2"
   inkscape:window-width="1920"
   inkscape:window-height="1017"
   id="namedview53"
   showgrid="false"
   inkscape:pagecheckerboard="true"
   fit-margin-top="10"
   fit-margin-left="10"
   fit-margin-right="10"
   fit-margin-bottom="10"
   inkscape:zoom="3.2239309"
   inkscape:cx="563.39454"
   inkscape:cy="122.4459"
   inkscape:window-x="-8"
   inkscape:window-y="-8"
   inkscape:window-maximized="1"
   inkscape:current-layer="Layer_1" />
<style
   type="text/css"
   id="style2">
	.st0{fill:rgb(156 163 175);}
	.st1{fill:#FFFFFF;}
</style>
<g
   id="g50"
   transform="matrix(3.2725049,0,0,3.2725049,0.70608608,4.6985421)">
	<g
   id="g46">
		<g
   id="g26">
			<path
   class="st0"
   d="m 104.36,26.97 v 14.07 h -3.65 V 21.89 l -1.47,-2.3 V 19.3 h 4.35 l 11,15.45 V 19.3 h 3.65 v 21.75 h -3.65 z"
   id="path4"
   inkscape:connector-curvature="0"
   style="fill:#0a0a0a" />
			<path
   class="st0"
   d="m 129.76,24.99 c 4.61,0 8.19,3.55 8.19,8.19 0,4.61 -3.58,8.22 -8.19,8.22 -4.64,0 -8.19,-3.61 -8.19,-8.22 0,-4.64 3.55,-8.19 8.19,-8.19 z m 0,12.96 c 2.65,0 4.61,-2.14 4.61,-4.77 0,-2.62 -1.95,-4.77 -4.61,-4.77 -2.62,0 -4.64,2.14 -4.64,4.77 0,2.62 2.02,4.77 4.64,4.77 z"
   id="path6"
   inkscape:connector-curvature="0"
   style="fill:#0a0a0a" />
			<path
   class="st0"
   d="m 142.82,25.31 3.2,11.42 3.26,-9.37 -0.77,-2.05 h 3.52 l 4.32,11.42 3.17,-11.42 h 3.68 l -4.8,15.74 h -3.68 l -3.72,-9.63 -3.39,9.63 h -3.71 l -4.77,-15.74 z"
   id="path8"
   inkscape:connector-curvature="0"
   style="fill:#0a0a0a" />
			<path
   class="st0"
   d="m 172.57,24.99 c 4.61,0 8.19,3.55 8.19,8.19 0,4.61 -3.58,8.22 -8.19,8.22 -4.64,0 -8.19,-3.61 -8.19,-8.22 0,-4.64 3.55,-8.19 8.19,-8.19 z m 0,12.96 c 2.65,0 4.61,-2.14 4.61,-4.77 0,-2.62 -1.95,-4.77 -4.61,-4.77 -2.62,0 -4.64,2.14 -4.64,4.77 0,2.62 2.01,4.77 4.64,4.77 z"
   id="path10"
   inkscape:connector-curvature="0"
   style="fill:#0a0a0a" />
			<path
   class="st0"
   d="m 195.89,38.49 c -1.15,1.79 -3.07,2.91 -5.41,2.91 -4.48,0 -7.64,-3.61 -7.64,-8.22 0,-4.64 3.17,-8.19 7.68,-8.19 2.33,0 4.22,1.09 5.37,2.88 v -8.89 h 3.49 v 22.07 h -3.49 z m -4.7,-10.04 c -2.69,0 -4.7,2.11 -4.7,4.73 0,2.59 2.02,4.77 4.7,4.77 2.69,0 4.7,-2.17 4.7,-4.77 0,-2.62 -2.02,-4.73 -4.7,-4.73 z"
   id="path12"
   inkscape:connector-curvature="0"
   style="fill:#0a0a0a" />
			<path
   class="st0"
   d="m 205.36,25.31 4.22,11.39 4.29,-11.39 h 3.71 l -6.11,15.74 h -3.71 l -6.11,-15.74 z"
   id="path14"
   inkscape:connector-curvature="0"
   style="fill:#0a0a0a" />
			<path
   class="st0"
   d="m 226.6,24.99 c 4.61,0 8.19,3.55 8.19,8.19 0,4.61 -3.58,8.22 -8.19,8.22 -4.64,0 -8.19,-3.61 -8.19,-8.22 0,-4.64 3.55,-8.19 8.19,-8.19 z m 0,12.96 c 2.65,0 4.61,-2.14 4.61,-4.77 0,-2.62 -1.95,-4.77 -4.61,-4.77 -2.62,0 -4.64,2.14 -4.64,4.77 0,2.62 2.02,4.77 4.64,4.77 z"
   id="path16"
   inkscape:connector-curvature="0"
   style="fill:#0a0a0a" />
			<path
   class="st0"
   d="m 241.35,27.23 c 0.74,-1.31 2.02,-2.24 3.87,-2.24 0.42,0 0.93,0.03 1.31,0.1 v 3.74 c -0.58,-0.26 -1.31,-0.42 -2.11,-0.42 -1.92,0 -3.01,1.34 -3.07,3.36 v 9.28 h -3.52 V 25.31 h 3.52 z"
   id="path18"
   inkscape:connector-curvature="0"
   style="fill:#0a0a0a" />
			<path
   class="st0"
   d="m 257.53,29.18 c -1.02,-0.67 -2.33,-1.12 -3.55,-1.12 -1.34,0 -2.05,0.67 -2.05,1.54 0,0.67 0.42,1.02 1.18,1.5 l 2.53,1.5 c 1.95,1.18 2.62,2.62 2.62,4.16 0,2.72 -2.08,4.64 -5.63,4.64 -1.5,0 -3.04,-0.42 -4.09,-0.9 v -3.61 c 0.8,0.7 2.46,1.47 3.9,1.47 1.41,0 2.17,-0.7 2.17,-1.63 0,-0.64 -0.35,-1.15 -1.34,-1.73 l -2.69,-1.6 c -1.63,-0.96 -2.27,-2.37 -2.27,-3.9 0,-2.62 1.98,-4.51 5.57,-4.51 1.31,0 2.65,0.29 3.65,0.64 z"
   id="path20"
   inkscape:connector-curvature="0"
   style="fill:#0a0a0a" />
			<path
   class="st0"
   d="m 261.4,18.98 h 3.52 V 32 l 5.31,-6.69 h 4.13 l -4.99,6.33 5.09,9.4 h -4.09 l -3.58,-6.94 -1.86,2.33 v 4.61 h -3.52 V 18.98 Z"
   id="path22"
   inkscape:connector-curvature="0"
   style="fill:#0a0a0a" />
			<path
   class="st0"
   d="m 278.49,18.34 c 1.25,0 2.14,0.99 2.14,2.17 0,1.22 -0.89,2.18 -2.14,2.18 -1.25,0 -2.17,-0.96 -2.17,-2.18 -0.01,-1.18 0.92,-2.17 2.17,-2.17 z m 1.76,22.71 h -3.52 V 25.31 h 3.52 z"
   id="path24"
   inkscape:connector-curvature="0"
   style="fill:#0a0a0a" />
		</g>
		<g
   id="g44">
			<path
   class="st0"
   d="m 100.72,60.89 v -8.96 h 1.5 v 7.53 h 3.45 v 1.44 h -4.95 z"
   id="path28"
   inkscape:connector-curvature="0"
   style="fill:#0a0a0a" />
			<path
   class="st0"
   d="m 110.94,51.92 h 1.5 v 8.96 h -1.5 z"
   id="path30"
   inkscape:connector-curvature="0"
   style="fill:#0a0a0a" />
			<path
   class="st0"
   d="m 125.06,53.9 c -0.62,-0.36 -1.48,-0.62 -2.44,-0.62 -1.81,0 -3.12,1.33 -3.12,3.12 0,1.7 1.24,3.12 2.97,3.12 1.67,0 2.7,-1.16 2.7,-2.47 0,-0.08 0,-0.24 -0.01,-0.32 h -2.75 v -1.36 h 4.3 c 0.07,0.32 0.11,0.8 0.11,1.24 0,2.39 -1.57,4.4 -4.38,4.4 -2.6,0 -4.47,-2.03 -4.47,-4.63 0,-2.62 1.95,-4.63 4.67,-4.63 0.96,0 1.83,0.2 2.44,0.48 v 1.67 z"
   id="path32"
   inkscape:connector-curvature="0"
   style="fill:#0a0a0a" />
			<path
   class="st0"
   d="m 138.26,57.09 h -4.6 v 3.8 h -1.5 v -8.96 h 1.5 v 3.73 h 4.6 v -3.73 h 1.5 v 8.96 h -1.5 z"
   id="path34"
   inkscape:connector-curvature="0"
   style="fill:#0a0a0a" />
			<path
   class="st0"
   d="m 147.32,53.36 h -2.28 v -1.44 h 6.06 v 1.44 h -2.28 v 7.53 h -1.5 z"
   id="path36"
   inkscape:connector-curvature="0"
   style="fill:#0a0a0a" />
			<path
   class="st0"
   d="m 156.38,51.92 h 1.5 v 8.96 h -1.5 z"
   id="path38"
   inkscape:connector-curvature="0"
   style="fill:#0a0a0a" />
			<path
   class="st0"
   d="m 165.53,55.09 v 5.8 h -1.5 V 53 l -0.61,-0.95 v -0.12 h 1.79 l 4.53,6.37 v -6.37 h 1.5 v 8.96 h -1.5 z"
   id="path40"
   inkscape:connector-curvature="0"
   style="fill:#0a0a0a" />
			<path
   class="st0"
   d="m 183.86,53.9 c -0.62,-0.36 -1.48,-0.62 -2.44,-0.62 -1.81,0 -3.12,1.33 -3.12,3.12 0,1.7 1.24,3.12 2.97,3.12 1.67,0 2.7,-1.16 2.7,-2.47 0,-0.08 0,-0.24 -0.01,-0.32 h -2.75 v -1.36 h 4.3 c 0.07,0.32 0.11,0.8 0.11,1.24 0,2.39 -1.57,4.4 -4.38,4.4 -2.6,0 -4.47,-2.03 -4.47,-4.63 0,-2.62 1.95,-4.63 4.67,-4.63 0.96,0 1.83,0.2 2.44,0.48 v 1.67 z"
   id="path42"
   inkscape:connector-curvature="0"
   style="fill:#0a0a0a" />
		</g>
	</g>
	<path
   class="st0"
   d="M 40.9,1.62 C 19.88,1.62 2.84,18.66 2.84,39.68 2.84,60.7 19.88,77.75 40.9,77.75 61.92,77.75 78.96,60.71 78.96,39.69 78.96,18.67 61.92,1.62 40.9,1.62 Z m 35.89,38.07 c 0,9.51 -3.72,18.16 -9.78,24.58 L 62.49,59.75 V 19.41 c 0,-1.23 -1.69,-1.58 -2.18,-0.46 L 53.54,34.54 36.44,25.99 45.94,4.15 C 63.35,6.61 76.79,21.6 76.79,39.69 Z M 57.17,31.65 c 0.71,-1.64 3.16,-1.13 3.16,0.66 V 57.58 L 50.27,47.52 Z M 48.62,45.87 32.17,29.43 c -1.16,-1.16 0.2,-3.04 1.67,-2.31 l 18.84,9.42 z M 5.01,39.69 C 5.01,19.9 21.11,3.8 40.9,3.8 c 0.93,0 1.86,0.05 2.77,0.12 L 34.5,25.02 20.93,18.23 c -0.75,-0.37 -1.62,0.17 -1.62,1 v 40.72 c 0,1.24 1.69,1.58 2.18,0.46 L 33.19,33.51 47.7,48.02 35.86,75.22 C 18.45,72.76 5.01,57.77 5.01,39.69 Z M 31.53,31.85 24.6,47.78 C 23.89,49.4 21.47,48.9 21.47,47.13 V 21.79 Z m 6.59,43.61 11.21,-25.8 16.15,16.14 c -6.43,6.05 -15.08,9.77 -24.58,9.77 -0.94,0.01 -1.86,-0.04 -2.78,-0.11 z"
   id="path48"
   inkscape:connector-curvature="0"
   style="fill:#0a0a0a" />
</g>
</svg>