
<svg version="1.1" id="Warstwa_1" xmlns="http://www.w3.org/2000/svg" xmlns:xlink="http://www.w3.org/1999/xlink" x="0px" y="0px"
	 viewBox="0 0 113.1 23.3" style="enable-background:new 0 0 113.1 23.3;" xml:space="preserve">
<style type="text/css">
	.st0{fill:rgb(156 163 175);}
	.st1{fill:rgb(156 163 175);}
	.st2{fill:rgb(156 163 175);}
	.st3{fill:rgb(156 163 175);}
	.st4{clip-path:url(#SVGID_00000011017319379396326730000006491522821607685789_);}
	.st5{clip-path:url(#SVGID_00000109728213932703819810000017033345434117996478_);}
	.st6{clip-path:url(#SVGID_00000026125052899287170770000005270049215259964586_);}
	.st7{clip-path:url(#SVGID_00000097475985960505647420000001214173730637519782_);}
	.st8{clip-path:url(#SVGID_00000090288917733235499280000005440923540112829336_);}
	.st9{clip-path:url(#SVGID_00000054225476120882502970000014081933966574631860_);}
	.st10{clip-path:url(#SVGID_00000021115433914264605440000014472605185339015077_);}
	.st11{clip-path:url(#SVGID_00000087406695862773932850000010741229715122613650_);}
	.st12{clip-path:url(#SVGID_00000047042193088422261320000012241555518566942139_);}
	.st13{clip-path:url(#SVGID_00000039852894650756313470000003793942628092357040_);}
	.st14{clip-path:url(#SVGID_00000121262911916805301110000002045445972206538158_);}
	.st15{clip-path:url(#SVGID_00000129884870025595320580000000920836170843690144_);}
	.st16{clip-path:url(#SVGID_00000057866922634930189530000011879867697869418146_);}
	.st17{clip-path:url(#SVGID_00000120531440711064677240000001220920659676665217_);}
	.st18{clip-path:url(#SVGID_00000136382826198322766160000000762564278898452616_);}
</style>
<polygon class="st0" points="4.4,14.5 3,22 24.2,12.2 15.7,9.3 "/>
<polygon class="st1" points="4.1,0 6,6 15.6,9.3 22.3,6.2 "/>
<polygon class="st2" points="15.6,9.3 24.2,12.2 22.3,6.2 "/>
<polygon class="st3" points="0.4,16.2 3.7,14.7 5.3,6.2 3.3,0.2 "/>
<polygon class="st2" points="0,17.3 1.9,23.3 3.3,15.8 "/>
<g>
	<g>
		<defs>
			<rect id="SVGID_1_" y="0" width="113.1" height="23.3"/>
		</defs>
		<clipPath class="st0" id="SVGID_00000064328400025704486960000007169102935972462481_">
			<use xlink:href="#SVGID_1_"  style="overflow:visible;"/>
		</clipPath>
		<path class="st0" style="clip-path:url(#SVGID_00000064328400025704486960000007169102935972462481_);" d="M39.7,12.3c0,1.1-0.3,1.8-0.9,2.2
			c-0.6,0.4-1.6,0.6-3,0.6h-3.2c-1.2,0-2.1-0.2-2.7-0.6c-0.5-0.4-0.8-1-0.8-1.9c0-0.1,0-0.4,0-0.7h1.1c0,0.3,0,0.5,0,0.6
			c0,0.6,0.2,1,0.6,1.3c0.4,0.2,1.1,0.3,2.1,0.3h2.5c1.2,0,2-0.1,2.4-0.3c0.5-0.2,0.7-0.7,0.7-1.5c0-0.6-0.2-1.1-0.5-1.3
			s-0.8-0.3-1.6-0.3h-4c-1.2,0-2.1-0.2-2.6-0.6C29.3,9.7,29,9,29,8.1c0-1,0.3-1.7,1-2.1c0.6-0.4,1.6-0.5,3.1-0.5h2.1
			c1,0,1.7,0,2.2,0.1c0.6,0.1,1.1,0.2,1.4,0.5c0.4,0.4,0.6,1,0.6,1.9v0.3h-1.1V8.1c0-0.7-0.2-1.1-0.5-1.3c-0.3-0.2-0.9-0.3-1.8-0.3
			h-3.2c-1,0-1.6,0.1-2,0.3c-0.4,0.2-0.5,0.6-0.5,1.3c0,0.7,0.2,1.1,0.6,1.3c0.3,0.2,1,0.3,2,0.3h3.4c1.3,0,2.1,0.1,2.6,0.4
			c0.3,0.2,0.6,0.5,0.7,0.9C39.6,11.2,39.7,11.7,39.7,12.3"/>
	</g>
	<g>
		<defs>
			<rect id="SVGID_00000150070311911364396640000008958021850757600173_" y="0" width="113.1" height="23.3"/>
		</defs>
		<clipPath class="st0" id="SVGID_00000072965054001018081450000008185274870733239689_">
			<use xlink:href="#SVGID_00000150070311911364396640000008958021850757600173_"  style="overflow:visible;"/>
		</clipPath>
		<path class="st0" style="clip-path:url(#SVGID_00000072965054001018081450000008185274870733239689_);" d="M51.9,9.1c0,0.9-0.3,1.5-0.9,1.8
			c-0.5,0.3-1.4,0.4-2.8,0.4h-5.4V15h-1.2V5.6h6.6c1.4,0,2.4,0.1,2.8,0.4c0.6,0.3,0.9,0.9,0.9,1.8C51.9,7.8,51.9,9.1,51.9,9.1z
			 M50.7,8.7V8.2c0-0.6-0.1-1.1-0.4-1.3c-0.3-0.2-0.8-0.3-1.7-0.3h-5.7v3.6h5.7c0.9,0,1.4-0.1,1.7-0.3C50.5,9.7,50.7,9.3,50.7,8.7"
			/>
	</g>
	<g>
		<defs>
			<rect id="SVGID_00000149353357014050783640000010808243465755034534_" y="0" width="113.1" height="23.3"/>
		</defs>
		<clipPath id="SVGID_00000167371568599203063460000005018188939314706103_">
			<use xlink:href="#SVGID_00000149353357014050783640000010808243465755034534_"  style="overflow:visible;"/>
		</clipPath>
		<polygon class="st0" style="clip-path:url(#SVGID_00000167371568599203063460000005018188939314706103_);" points="63,15 53.7,15 53.7,5.6 
			63,5.6 63,6.7 54.9,6.7 54.9,9.6 62.7,9.6 62.7,10.7 54.9,10.7 54.9,14 63,14 		"/>
	</g>
	<g>
		<defs>
			<rect id="SVGID_00000054975660493504626350000004957389499163809408_" y="0" width="113.1" height="23.3"/>
		</defs>
		<clipPath id="SVGID_00000158747399480850537650000016604659512234852736_">
			<use xlink:href="#SVGID_00000054975660493504626350000004957389499163809408_"  style="overflow:visible;"/>
		</clipPath>
		<path class="st0" style="clip-path:url(#SVGID_00000158747399480850537650000016604659512234852736_);" d="M75.5,12.3c0,1.1-0.2,1.9-0.7,2.3
			c-0.3,0.2-0.7,0.4-1.3,0.5c-0.4,0.1-1.1,0.1-2,0.1h-3c-0.8,0-1.5,0-1.9-0.1c-0.6-0.1-1-0.3-1.3-0.6c-0.6-0.5-0.9-1.4-0.9-2.8V9.1
			c0-1.5,0.3-2.5,0.9-3c0.3-0.3,0.9-0.5,1.5-0.6c0.4-0.1,0.9-0.1,1.7-0.1h3c1.5,0,2.5,0.2,3,0.5C75.1,6.3,75.4,7,75.4,8
			c0,0.2,0,0.4,0,0.5h-1.1l0,0c0-0.7-0.2-1.3-0.5-1.6c-0.3-0.3-0.9-0.4-1.7-0.4H68c-1,0-1.7,0.2-2,0.7c-0.2,0.3-0.3,0.9-0.3,1.8v2.5
			c0,0.9,0.1,1.5,0.3,1.8c0.3,0.5,1,0.7,2,0.7h4.1c0.9,0,1.5-0.1,1.8-0.4c0.3-0.3,0.5-0.8,0.5-1.6v-0.3h1.1c0,0.1,0,0.1,0,0.2V12.3
			L75.5,12.3z"/>
	</g>
	<g>
		<defs>
			<rect id="SVGID_00000142866320680028369630000002206196642444329860_" y="0" width="113.1" height="23.3"/>
		</defs>
		<clipPath id="SVGID_00000168099556072539312870000017896214818036221097_">
			<use xlink:href="#SVGID_00000142866320680028369630000002206196642444329860_"  style="overflow:visible;"/>
		</clipPath>
		<polygon class="st0" style="clip-path:url(#SVGID_00000168099556072539312870000017896214818036221097_);" points="87.3,6.6 82.6,6.6 82.6,15 
			81.5,15 81.5,6.6 76.8,6.6 76.8,5.6 87.3,5.6 		"/>
	</g>
	<g>
		<defs>
			<rect id="SVGID_00000072265879636166482860000000000161892936854657_" y="0" width="113.1" height="23.3"/>
		</defs>
		<clipPath id="SVGID_00000023271979851293741620000004733153133437147280_">
			<use xlink:href="#SVGID_00000072265879636166482860000000000161892936854657_"  style="overflow:visible;"/>
		</clipPath>
		<path class="st0" style="clip-path:url(#SVGID_00000023271979851293741620000004733153133437147280_);" d="M99.2,9c0,0.6-0.1,1-0.4,1.3
			c-0.2,0.3-0.7,0.5-1.3,0.6c1,0.1,1.6,0.7,1.6,1.8V15H98v-2.1c0-0.7-0.2-1.1-0.5-1.3s-0.9-0.2-1.8-0.2H90V15h-1.2V5.6h6.7
			c1.4,0,2.4,0.1,2.9,0.4c0.6,0.3,0.8,0.9,0.8,1.8L99.2,9L99.2,9z M98,8.7V8.2c0-0.6-0.1-1.1-0.4-1.3s-0.8-0.3-1.7-0.3H90v3.6h5.9
			c0.8,0,1.4-0.1,1.7-0.3C97.9,9.7,98,9.3,98,8.7"/>
	</g>
	<g>
		<defs>
			<rect id="SVGID_00000065042765778514654040000000872931779988188567_" y="0" width="113.1" height="23.3"/>
		</defs>
		<clipPath id="SVGID_00000167391241032573093470000003472452004194526387_">
			<use xlink:href="#SVGID_00000065042765778514654040000000872931779988188567_"  style="overflow:visible;"/>
		</clipPath>
		<path class="st0" style="clip-path:url(#SVGID_00000167391241032573093470000003472452004194526387_);" d="M112.7,15h-1.2l-1.2-2.1h-7.5
			l-1.2,2.1h-1.3l5.5-9.4h1.6L112.7,15z M109.6,12l-3.2-5.4l-3.2,5.4H109.6z"/>
	</g>
	<g>
		<defs>
			<rect id="SVGID_00000159454293827184344950000008107165713637571465_" y="0" width="113.1" height="23.3"/>
		</defs>
		<clipPath id="SVGID_00000070120388064684327500000012879105840386144414_">
			<use xlink:href="#SVGID_00000159454293827184344950000008107165713637571465_"  style="overflow:visible;"/>
		</clipPath>
		<polygon class="st0" style="clip-path:url(#SVGID_00000070120388064684327500000012879105840386144414_);" points="85,21 81.7,21 81.7,17.3 
			82.2,17.3 82.2,20.5 85,20.5 		"/>
	</g>
	<g>
		<defs>
			<rect id="SVGID_00000007410328283060719730000008584688889430677401_" y="0" width="113.1" height="23.3"/>
		</defs>
		<clipPath id="SVGID_00000137123152531378620080000005493785202198757264_">
			<use xlink:href="#SVGID_00000007410328283060719730000008584688889430677401_"  style="overflow:visible;"/>
		</clipPath>
		
			<rect class="st0" x="85.6" y="17.3" style="clip-path:url(#SVGID_00000137123152531378620080000005493785202198757264_);" width="0.5" height="3.7"/>
	</g>
	<g>
		<defs>
			<rect id="SVGID_00000068659373299925218580000010798495052625232020_" y="0" width="113.1" height="23.3"/>
		</defs>
		<clipPath id="SVGID_00000083791523201406147350000014767503739652846481_">
			<use xlink:href="#SVGID_00000068659373299925218580000010798495052625232020_"  style="overflow:visible;"/>
		</clipPath>
		<path class="st0" style="clip-path:url(#SVGID_00000083791523201406147350000014767503739652846481_);" d="M91.5,19.7c0,0.3,0,0.5,0,0.6
			c0,0.2-0.1,0.3-0.3,0.5c-0.1,0.1-0.3,0.2-0.5,0.2s-0.4,0-0.8,0h-1.3c-0.3,0-0.5,0-0.7,0c-0.3,0-0.5-0.1-0.6-0.2
			c-0.2-0.2-0.4-0.6-0.4-1.1v-1c0-0.6,0.1-1,0.4-1.2c0.1-0.1,0.3-0.2,0.6-0.2c0.1,0,0.4,0,0.7,0h1.3c0.6,0,1,0.1,1.2,0.2
			s0.4,0.4,0.4,0.8c0,0.1,0,0.2,0,0.2H91v-0.1c0-0.3-0.1-0.5-0.2-0.6s-0.4-0.2-0.7-0.2h-1.8c-0.4,0-0.7,0.1-0.8,0.3
			c-0.1,0.1-0.1,0.4-0.1,0.7v1c0,0.4,0,0.6,0.1,0.7c0.1,0.2,0.4,0.3,0.8,0.3h1.8c0.4,0,0.6-0.1,0.7-0.2C91,20.3,91,20,91,19.7v-0.2
			h-1.9v-0.4h2.4V19.7z"/>
	</g>
	<g>
		<defs>
			<rect id="SVGID_00000025408023207883704930000006411169361515872655_" y="0" width="113.1" height="23.3"/>
		</defs>
		<clipPath id="SVGID_00000087414418003250067730000007445895837728655527_">
			<use xlink:href="#SVGID_00000025408023207883704930000006411169361515872655_"  style="overflow:visible;"/>
		</clipPath>
		<polygon class="st0" style="clip-path:url(#SVGID_00000087414418003250067730000007445895837728655527_);" points="96.6,21 96.1,21 96.1,19.3 
			92.7,19.3 92.7,21 92.3,21 92.3,17.3 92.7,17.3 92.7,18.9 96.1,18.9 96.1,17.3 96.6,17.3 		"/>
	</g>
	<g>
		<defs>
			<rect id="SVGID_00000136379930891881251950000005234865731950814338_" y="0" width="113.1" height="23.3"/>
		</defs>
		<clipPath id="SVGID_00000008838080889187718850000010787805738257889703_">
			<use xlink:href="#SVGID_00000136379930891881251950000005234865731950814338_"  style="overflow:visible;"/>
		</clipPath>
		<polygon class="st0" style="clip-path:url(#SVGID_00000008838080889187718850000010787805738257889703_);" points="101.3,17.7 99.4,17.7 
			99.4,21 99,21 99,17.7 97.1,17.7 97.1,17.3 101.3,17.3 		"/>
	</g>
	<g>
		<defs>
			<rect id="SVGID_00000148651449199727153690000015378475828303639716_" y="0" width="113.1" height="23.3"/>
		</defs>
		<clipPath id="SVGID_00000046324385310712076800000008841475955079864251_">
			<use xlink:href="#SVGID_00000148651449199727153690000015378475828303639716_"  style="overflow:visible;"/>
		</clipPath>
		
			<rect class="st0" x="101.8" y="17.3" style="clip-path:url(#SVGID_00000046324385310712076800000008841475955079864251_);" width="0.5" height="3.7"/>
	</g>
	<g>
		<defs>
			<rect id="SVGID_00000048464718490278403540000005333616405667125639_" y="0" width="113.1" height="23.3"/>
		</defs>
		<clipPath id="SVGID_00000054953395626548288220000014061950511762686117_">
			<use xlink:href="#SVGID_00000048464718490278403540000005333616405667125639_"  style="overflow:visible;"/>
		</clipPath>
		<polygon style="clip-path:url(#SVGID_00000054953395626548288220000014061950511762686117_);" points="107.8,21 107.1,21 
			103.7,17.6 103.7,21 103.2,21 103.2,17.3 104,17.3 107.3,20.5 107.3,17.3 107.8,17.3 		"/>
	</g>
	<g>
		<defs>
			<rect id="SVGID_00000054263030913491246860000002401434833702758291_" y="0" width="113.1" height="23.3"/>
		</defs>
		<clipPath id="SVGID_00000000211162531697982750000001735715738476054156_">
			<use xlink:href="#SVGID_00000054263030913491246860000002401434833702758291_"  style="overflow:visible;"/>
		</clipPath>
		<path class="st0" style="clip-path:url(#SVGID_00000000211162531697982750000001735715738476054156_);" d="M113.1,19.7c0,0.3,0,0.5,0,0.6
			c0,0.2-0.1,0.3-0.3,0.5c-0.1,0.1-0.3,0.2-0.5,0.2s-0.4,0-0.8,0h-1.3c-0.3,0-0.5,0-0.7,0c-0.3,0-0.5-0.1-0.6-0.2
			c-0.2-0.2-0.4-0.6-0.4-1.1v-1c0-0.6,0.1-1,0.4-1.2c0.1-0.1,0.3-0.2,0.6-0.2c0.1,0,0.4,0,0.7,0h1.3c0.6,0,1,0.1,1.2,0.2
			s0.4,0.4,0.4,0.8c0,0.1,0,0.2,0,0.2h-0.4v-0.1c0-0.3-0.1-0.5-0.2-0.6s-0.4-0.2-0.7-0.2H110c-0.4,0-0.7,0.1-0.8,0.3
			c-0.1,0.1-0.1,0.4-0.1,0.7v1c0,0.4,0,0.6,0.1,0.7c0.1,0.2,0.4,0.3,0.8,0.3h1.8c0.4,0,0.6-0.1,0.7-0.2s0.2-0.3,0.2-0.7v-0.2h-1.9
			v-0.4h2.4L113.1,19.7L113.1,19.7z"/>
	</g>
</g>
</svg>
