<svg width="246" height="48" viewBox="0 0 246 48" fill="none" xmlns="http://www.w3.org/2000/svg">
<path d="M0.58551 48V1.47199H9.80151V41.344H26.5695V48H0.58551Z" fill="#3B82F6"/>
<path d="M27.0975 48L41.9455 7.26399L53.4015 7.55199L69.4655 48H59.9935L48.4735 13.376L47.9615 11.008L47.3855 13.504L41.9455 30.08L41.1775 31.36L42.1375 31.232H47.0015C48.2388 31.232 49.2735 31.584 50.1055 32.288C50.9588 32.992 51.6415 33.856 52.1535 34.88C52.6868 35.904 53.1028 36.8853 53.4015 37.824H39.5135L36.1215 48H27.0975Z" fill="#3B82F6"/>
<path d="M71.941 48L76.421 1.47199H88.005L98.181 37.376L98.629 39.68L99.141 37.376L109.253 1.47199H120.901L125.253 48H116.869L114.373 12.928L114.181 9.85599L113.413 12.928L103.301 47.36H93.893L83.653 12.864L82.885 9.85599L82.693 12.864L80.325 48H71.941Z" fill="#3B82F6"/>
<path d="M131.232 48V2.04799C133.536 1.66399 135.488 1.36532 137.088 1.15199C138.688 0.938656 140.16 0.789323 141.504 0.703991C142.848 0.618656 144.288 0.575989 145.824 0.575989C149.28 0.575989 152.384 1.16266 155.136 2.33599C157.909 3.50932 160.096 5.19466 161.696 7.39199C163.317 9.56799 164.128 12.16 164.128 15.168C164.128 18.0053 163.413 20.4587 161.984 22.528C160.576 24.576 158.741 26.1973 156.48 27.392C154.219 28.5653 151.819 29.2693 149.28 29.504C148.32 29.5893 147.296 29.6 146.208 29.536C145.141 29.472 144.011 29.2693 142.816 28.928C143.136 28.1173 143.541 27.2853 144.032 26.432C144.523 25.5573 145.12 24.8107 145.824 24.192C146.528 23.552 147.36 23.1893 148.32 23.104C149.493 22.9973 150.56 22.5813 151.52 21.856C152.501 21.1093 153.28 20.16 153.856 19.008C154.432 17.8347 154.72 16.5547 154.72 15.168C154.72 13.696 154.347 12.3627 153.6 11.168C152.853 9.95199 151.808 8.98132 150.464 8.25599C149.141 7.53066 147.595 7.16799 145.824 7.16799C144.672 7.16799 143.776 7.19999 143.136 7.26399C142.496 7.32799 141.6 7.42399 140.448 7.55199V48H131.232Z" fill="#3B82F6"/>
<path d="M164.805 48L178.885 7.26399L191.109 7.13599L207.173 48H197.701L186.181 13.376L185.669 11.008L185.093 13.504L179.653 30.08L178.885 31.36L179.845 31.232H184.709C185.946 31.232 186.981 31.584 187.813 32.288C188.666 32.992 189.349 33.856 189.861 34.88C190.394 35.904 190.81 36.8853 191.109 37.824H177.221L173.829 48H164.805Z" fill="#3B82F6"/>
<path d="M210.225 48V2.04799C212.529 1.66399 214.481 1.36532 216.081 1.15199C217.681 0.938656 219.153 0.789323 220.497 0.703991C221.841 0.618656 223.281 0.575989 224.817 0.575989C228.166 0.575989 231.227 1.14132 234.001 2.27199C236.774 3.38132 238.982 5.00266 240.625 7.13599C242.289 9.26932 243.121 11.84 243.121 14.848C243.121 17.3653 242.534 19.5733 241.361 21.472C240.209 23.3707 238.683 24.896 236.785 26.048L234.993 26.752L236.401 27.456C237.702 28.5653 238.715 29.8773 239.441 31.392C240.166 32.8853 240.774 34.528 241.265 36.32C241.777 38.112 242.31 40 242.865 41.984C243.419 43.9467 244.166 45.952 245.105 48H235.697C234.95 46.3573 234.331 44.6187 233.841 42.784C233.371 40.9493 232.902 39.1467 232.433 37.376C231.963 35.6053 231.377 33.9733 230.673 32.48C229.969 30.9867 229.019 29.7813 227.825 28.864C226.929 28.928 225.969 28.928 224.945 28.864C223.942 28.8 222.897 28.608 221.809 28.288C222.129 27.4773 222.534 26.6347 223.025 25.76C223.515 24.8853 224.113 24.128 224.817 23.488C225.521 22.848 226.353 22.4853 227.313 22.4C228.486 22.2933 229.553 21.9093 230.513 21.248C231.494 20.5653 232.273 19.68 232.849 18.592C233.425 17.4827 233.713 16.2347 233.713 14.848C233.713 13.376 233.318 12.064 232.529 10.912C231.739 9.73866 230.673 8.82132 229.329 8.15999C227.985 7.49866 226.481 7.16799 224.817 7.16799C223.665 7.16799 222.769 7.19999 222.129 7.26399C221.489 7.32799 220.593 7.42399 219.441 7.55199V48H210.225Z" fill="#3B82F6"/>
</svg>
